<svg fill="none" height="353" viewBox="0 0 1469 353" width="1469" xmlns="http://www.w3.org/2000/svg"><g fill="#fff"><path d="m1338.35 351.886c-.52-.13-.92-.522-.79-.914l3.66-29.008c0-.392.39-.784.78-.784h28.47c.39 0 .78.261.78.653l2.49 14.635c.13.522-.27.914-.66.914-.39.131-.91-.261-.91-.653l-2.35-13.851h-26.9l-3.53 28.355c-.26.392-.52.653-1.04.653z"/><path d="m1366.68 321.964c-.52 0-.78-.392-.91-.784l-.39-26.918c0-.522.39-.914.78-.914.52 0 .79.392.92.784l.39 26.917c.13.523-.26.915-.79.915z"/><path d="m1345.92 321.963c-.52 0-.91-.392-.78-.914l.78-35.019c0-.523.39-.784.79-.784.52 0 .78.392.78.915l-.78 35.018c0 .392-.4.784-.79.784z"/><path d="m1356.24 322.095c-.52 0-.92-.392-.92-.914v-24.958c0-.522.4-.914.92-.914s.91.392.91.914v24.958c0 .522-.39.914-.91.914z"/><path d="m1350.75 322.487c-.52 0-.91-.392-.91-.914l.26-18.686c0-.522.39-.914.91-.784.53 0 .79.392.79.915l-.26 18.685c0 .392-.26.784-.79.784z"/><path d="m1361.46 321.962c-.52 0-.78-.392-.78-.784l-.39-14.634c0-.523.39-.915.78-.915.52 0 .78.392.78.784l.39 14.635c0 .522-.26.914-.78.914z"/><path d="m1332.21 250.752-11.75-.915c-1.57-.131-3.14-1.045-3.79-2.613l-4.31-8.624c-.13-.262-.13-.523 0-.784.13-.262.39-.392.65-.392l36.7-2.744c.39 0 .78.261.91.653.65 2.744 3 9.147 9.79 7.448.53-.131.92.131 1.05.653.13.392-.13.915-.65 1.046-6.4 1.568-10.19-3.006-11.76-7.971l-34.73 2.613 3.79 7.448c.52.915 1.43 1.568 2.48 1.568l11.75.915c.52 0 .78.392.78.915-.13.522-.52.784-.91.784z"/><path d="m1380.13 250.749c-.39 0-.78-.392-.78-.784 0-.523.26-.915.78-.915l12.02-.914c1.04-.131 1.96-.654 2.35-1.568l3.79-7.579-34.35-2.875c-.13 0-.26 0-.52 0-.52 0-1.44-.13-2.09-.13-.52 0-.78-.392-.78-.915s.39-.784.78-.784c.78 0 1.7.131 2.22.131h.52l35.65 2.874c.26 0 .52.131.65.392.14.262.14.523 0 .784l-4.3 8.624c-.79 1.438-2.22 2.483-3.79 2.614z"/><path d="m1369.42 296.353c-.13 0-.26 0-.39-.13l-26.37-10.976c-.4-.131-.53-.523-.53-.784l.53-12.152c0-.523.39-.784.91-.784s.78.392.78.914l-.52 11.63 24.55 10.322-2.74-58.146c0-.523.39-.915.78-.915s.92.392.92.784l2.74 59.453c0 .262-.13.523-.39.784.13 0 0 0-.27 0z"/><path d="m1340.83 254.149c-.13 0-.13 0-.26 0-6.66-2.221-17.76-7.186-17.76-15.68 0-.522.39-.914.91-.914.53 0 .92.392.92.914 0 5.358 6 10.584 16.58 14.112.39.131.65.654.52 1.046-.26.261-.65.522-.91.522z"/><path d="m1356.24 256.499c-2.61 0-5.36-.131-7.97-.523-.52-.13-.78-.522-.65-.914.13-.523.52-.784.91-.654 3.79.523 7.97.654 11.89.392.52 0 .91.262.91.784 0 .523-.26.915-.78.915-1.31 0-2.88 0-4.31 0z"/><path d="m1368.38 255.063c-.39 0-.78-.261-.78-.653-.13-.392.13-.915.65-1.046 9.93-2.482 19.85-8.232 19.85-15.68 0-.522.39-.914.92-.914.52 0 .91.392.91.914 0 8.363-10.58 14.766-21.16 17.379-.26 0-.39 0-.39 0z"/><path d="m1360.94 292.563c-.52 0-.92-.392-.92-.915l.26-56.317c0-.523.4-.784.92-.784s.78.392.78.915l-.26 56.317c.13.392-.26.784-.78.784z"/><path d="m1339.52 274.141c-.26 0-.39-.13-.52-.261-.26-.131-.26-.392-.26-.784l2.48-26.918c0-.522.52-.783.91-.783.53 0 .79.522.79.914l-2.35 25.611 5.74-1.437 1.31-22.998c0-.523.52-.784.91-.784.52 0 .79.392.79.915l-1.31 23.651c0 .392-.26.653-.65.784l-7.45 1.96c-.26.13-.26.13-.39.13z"/><path d="m1354.8 248.529c-18.15 0-20.63-9.408-21.02-11.368-.13-.523.26-.915.65-1.046.52-.13.91.262.91.654.39 1.96 3.14 11.89 25.21 9.669.52 0 .91.261.91.784s-.26.915-.78.915c-2.09.392-4.05.392-5.88.392z"/><path d="m1403.25 246.044c-3.14 0-5.88-.784-6.01-.784-.39-.13-.65-.653-.52-1.045s.65-.653 1.04-.523c0 0 2.74.784 5.62.784 2.74 0 4.57-.914 5.35-2.352.13-.261 0-.392 0-.522 0-.131-.13-.262-.39-.262l-8.88-.653c-.52 0-.78-.392-.78-.915 0-.522.39-.784.91-.784l8.88.523c.65 0 1.44.392 1.83 1.045.39.654.39 1.438.13 2.091-.78 1.307-2.48 3.397-7.18 3.397z"/><path d="m1308.97 246.044c-4.57 0-6.27-2.09-6.92-3.397-.4-.653-.27-1.437.13-2.091.39-.653 1.04-1.045 1.82-1.045l8.75-.523c.53 0 .92.262.92.784 0 .523-.26.915-.79.915l-8.88.523c-.26 0-.39.13-.52.261 0 .131-.13.261 0 .523.79 1.568 2.61 2.352 5.36 2.352 2.87 0 5.48-.784 5.61-.784.39-.131.91.13 1.05.522.13.392-.14.915-.53 1.046-.13.13-2.87.914-6 .914z"/><path d="m1355.72 234.286c-2.48 0-4.44-1.96-4.57-4.443l-.4-7.317c0-1.307.4-2.483 1.31-3.397.91-.915 2.09-1.438 3.39-1.438h.66c1.3 0 2.48.523 3.39 1.438.92.914 1.31 2.09 1.31 3.397l-.39 7.317c-.26 2.483-2.22 4.443-4.7 4.443zm-.4-14.896c-.78 0-1.56.261-2.08.915-.53.522-.79 1.306-.79 2.09l.39 7.318c.13 1.568 1.31 2.744 2.88 2.744 1.56 0 2.87-1.176 2.87-2.744l.39-7.318c0-.784-.26-1.568-.78-2.09-.53-.523-1.31-.915-2.09-.915z"/><path d="m1361.33 236.248c-.39 0-.78-.262-.78-.784l-1.44-13.198c0-.522.26-.914.78-.914.53 0 .92.261.92.784l1.43 13.197c0 .392-.39.784-.91.915z"/><path d="m1350.1 237.029c-.13 0-.13 0 0 0-.52 0-.92-.522-.79-.914l1.57-14.112c0-.523.52-.784.92-.784.52 0 .78.522.78.914l-1.57 14.112c-.13.523-.52.784-.91.784z"/><path d="m1213.25 192.864h-39.3c-.53 0-.92-.392-.92-.915v-12.152c0-.522.39-.914.92-.914h39.3c.52 0 .91.392.91.914v12.283c0 .523-.39.784-.91.784zm-38.39-1.699h37.61v-10.584h-37.61z"/><path d="m1213.51 188.945c-.39 0-.78-.392-.78-.784 0-.523.26-.915.78-.915 4.96-.261 7.45-.653 8.75-.915-3.65-.784-13.84-1.568-28.6-1.568-14.88 0-24.94.784-28.59 1.568 1.3.262 3.91.654 8.75.915.52 0 .78.392.78.915 0 .522-.39.784-.92.784-11.62-.784-11.62-1.83-11.62-2.614s0-1.829 9.8-2.482c5.87-.392 13.58-.654 21.8-.654 8.23 0 15.93.262 21.81.654 9.79.784 9.79 1.698 9.79 2.482-.13.915-.13 1.83-11.75 2.614z"/><path d="m1213.38 180.45h-39.57c-.39 0-.78-.262-.78-.654-.13-.392.13-.784.52-.914l14.89-6.011h.26 9.92.27l14.88 6.011c.39.13.65.522.52.914s-.52.654-.91.654zm-35.13-1.699h30.82l-10.58-4.312h-9.53z"/><path d="m1198.5 174.308c-.26 0-.4-.131-.66-.262-.39-.261-.39-.914 0-1.176l2.88-2.874h-14.24l2.88 2.874c.39.392.26.915 0 1.176-.4.262-.92.262-1.18 0l-4.18-4.312c-.26-.261-.26-.653-.13-.914.13-.262.39-.523.78-.523h18.29c.39 0 .65.261.78.523.13.261 0 .653-.13.914l-4.18 4.312c-.39.131-.65.262-.91.262z"/><path d="m1202.81 166.728h-18.29c-.52 0-.91-.392-.91-.915s.39-.915.91-.915h18.29c.52 0 .91.392.91.915s-.52.915-.91.915z"/><path d="m1193.66 166.076c-.52 0-.91-.392-.91-.915v-10.322c0-.523.39-.784.91-.784.53 0 .92.392.92.784v10.322c-.13.523-.52.915-.92.915z"/><path d="m1187.26 274.268c-.52 0-.91-.522-.78-.914 1.18-12.152 1.83-23.782 1.7-33.712-.26-31.622-3.27-37.763-7.84-47.04-.26-.392 0-.915.4-1.176.39-.262.91 0 1.17.392 4.7 9.408 7.84 15.68 8.1 47.693.13 9.931-.53 21.56-1.7 33.843-.26.653-.65.914-1.05.914z"/><path d="m1199.93 274.92c-.39 0-.78-.392-.78-.784-1.31-12.544-1.83-24.435-1.7-34.496.26-32.014 3.39-38.286 8.1-47.694.26-.392.65-.653 1.17-.392.39.262.65.654.39 1.176-4.57 9.278-7.57 15.419-7.83 47.04-.13 10.062.52 21.952 1.69 34.366-.13.392-.52.784-1.04.784z"/><path d="m1190.92 282.107c-.52 0-.91-.523-.78-.915 1.3-12.675 2.61-30.968 2.61-41.421-.13-26.003-2.22-34.627-4.05-42.336-.39-1.699-.78-3.267-1.17-4.966-.13-.522.26-.914.65-1.045.52-.131.91.261 1.04.653.39 1.699.79 3.267 1.18 4.835 1.83 7.709 4.05 16.464 4.05 42.728 0 10.584-1.31 28.877-2.62 41.683-.13.392-.39.784-.91.784z"/><path d="m1195.49 279.755c-.39 0-.78-.392-.78-.784-.92-10.715-1.96-28.747-1.96-39.331.13-26.264 2.22-35.019 4.05-42.728.39-1.699.78-3.267 1.17-4.835.13-.522.53-.784 1.05-.653s.78.523.65 1.045c-.39 1.699-.78 3.267-1.17 4.966-1.83 7.578-3.92 16.202-4.05 42.336 0 10.584.91 28.485 1.96 39.2 0 .392-.4.784-.92.784z"/><path d="m1467.62 351.888h-489.944c-.523 0-.914-.392-.914-.915 0-.522.391-.914.914-.914h489.944c.53 0 .92.392.92.914 0 .523-.39.915-.92.915z"/><path d="m1137.51 321.05c-.13 0-.26 0-.26 0-.26-.131-.39-.261-.52-.523l-27.82-94.08c-.13-.261 0-.522.13-.784.13-.261.4-.392.66-.392.52 0 57.06-3.789 83.18 58.408.13.392 0 .784-.26 1.046l-54.72 36.194c-.13 0-.26.131-.39.131zm-26.64-94.08 27.16 91.859 52.89-35.15c-23.77-55.664-72.34-56.97-80.05-56.709z"/><path d="m1228.66 321.574h-10.58c-.26 0-.52-.131-.65-.392l-26.12-36.717c-.26-.262-.26-.654 0-.915 11.75-19.077 44.4-32.797 72.21-22.083.26.131.39.262.52.523s0 .523-.13.653l-16.58 27.963c-.26.392-.78.523-1.18.261-.39-.261-.52-.784-.26-1.176l16.06-27.178c-26.63-9.8-57.32 3.136-68.94 21.168l25.59 35.933h9.66l9.15-15.157c.26-.392.78-.523 1.17-.262.39.262.52.784.26 1.176l-9.4 15.55c-.13.522-.39.653-.78.653z"/><path d="m1180.34 321.571c-.13 0-.26 0-.26 0l-27.29-10.061c-.39-.131-.66-.654-.53-1.046.14-.392.66-.653 1.05-.522l26.38 9.669 11.36-35.933c.13-.392.65-.654 1.04-.523s.66.653.52 1.045l-11.62 36.718c-.13.261-.26.392-.39.522 0 .131-.13.131-.26.131z"/><path d="m1180.34 321.571c-.39 0-.65-.261-.78-.653s.13-.915.65-1.045l30.03-8.363c.4-.131.92.131 1.05.653.13.392-.13.915-.65 1.046l-30.04 8.362c-.13 0-.26 0-.26 0z"/><path d="m1338.35 347.575c-.26 0-.39-.131-.52-.261l-13.85-12.414h-46.35c-.13 0-.26 0-.26 0l-32.65-12.674h-123.79-.13l-61.12-12.283h-26.51l-21.15 6.403c-.39.13-.91-.131-1.04-.523-.14-.392.13-.915.52-1.045l21.28-6.403h.26 26.64.13l61.12 12.283h123.92.26l32.65 12.674h46.48c.27 0 .4.131.53.262l13.97 12.674c.39.262.39.915 0 1.176.13 0-.13.131-.39.131z"/><path d="m1096.9 316.607c-.13 0-.13 0-.26 0-.39-.131-.79-.523-.66-1.046 5.62-21.429 13.46-37.24 23.64-48.216-9.01-11.368-35.26-19.208-47.92-18.293l20.89 65.856c.13.392-.13.915-.52 1.045-.39.131-.92-.13-1.05-.522l-21.28-66.902c-.13-.261 0-.522.13-.653.13-.261.39-.392.65-.392 13.06-1.568 41.79 6.664 50.93 19.469.26.392.26.784-.13 1.046-10.32 10.845-18.02 26.525-23.77 48.085.13.261-.26.523-.65.523z"/><path d="m1133.59 309.944h-.13l-31.73-5.618c-.52-.131-.78-.523-.65-1.046.13-.522.52-.784 1.04-.653l31.73 5.619c.53.13.79.522.66 1.045-.13.261-.53.653-.92.653z"/><path d="m1086.84 303.149h-.13l-30.03-4.966c-.52-.13-.79-.522-.65-.914.13-.523.52-.784.91-.654l30.03 4.966c.53.13.79.522.66.914 0 .392-.26.654-.79.654z"/><path d="m1044.66 309.942c-.39 0-.65-.262-.78-.523l-17.76-46.125c-.13-.262-.13-.523 0-.654.13-.261.39-.392.52-.392.26 0 22.86-4.312 50.02 6.142.26.13.52.392.52.653s-.13.653-.26.784c-10.32 7.971-18.68 21.168-24.68 39.069-.13.392-.65.654-1.05.523-.39-.131-.65-.653-.52-1.045 6.01-17.64 14.1-30.707 24.16-38.939-22.85-8.493-42.18-6.403-46.62-5.749l17.37 45.21c.13.392 0 .915-.52 1.046-.27-.131-.27 0-.4 0z"/><path d="m1052.37 342.086c-.13 0-.13 0-.26 0l-37.61-12.675h-1.18c-.52 0-.91-.392-.91-.914 0-.523.39-.915.91-.915h1.31.26l37.74 12.675c.39.13.65.653.52 1.045-.13.523-.39.784-.78.784z"/><path d="m996.871 351.625c-.522 0-.914-.392-.914-.915v-22.213c0-.523.392-.915.914-.915h4.829c.53 0 .92.392.92.915 0 .522-.39.914-.92.914h-3.915v21.43c-.13.392-.522.784-.914.784z"/><path d="m1095.2 351.102c-.52 0-.91-.392-.91-.914v-33.32c0-.523.39-.915.91-.915s.91.392.91.915v33.32c0 .522-.39.914-.91.914z"/><path d="m1130.85 351.625c-.52 0-.91-.392-.91-.914v-28.355c0-.523.39-.915.91-.915s.92.392.92.915v28.355c-.13.522-.53.914-.92.914z"/><path d="m1277.63 351.104c-.53 0-.92-.392-.92-.914v-16.072c0-.523.39-.915.92-.915.52 0 .91.392.91.915v16.072c-.13.522-.39.914-.91.914z"/><path d="m1277.63 334.901c-.13 0-.13 0-.26 0-.27-.131-.53-.261-.53-.653-1.3-4.574-7.31-26.526-7.83-29.923-7.71-9.408-18.41-13.72-34.61-13.981l11.23 30.576c.13.392 0 .914-.52 1.045-.39.131-.91 0-1.04-.523l-11.63-31.752c-.13-.261 0-.522.14-.784.13-.261.39-.392.65-.392 10.71 0 25.98 1.438 36.69 13.982 10.19-11.499 38.52-23.52 63.6-17.902.26.131.52.262.65.654.13.261 0 .653-.26.784-8.23 7.709-55.11 48.085-55.63 48.477-.26.392-.52.392-.65.392zm-6.92-30.576c.39 2.483 4.44 17.509 7.31 28.224 6.66-5.749 43.48-37.371 53.41-46.387-24.29-4.834-51.45 7.056-60.72 18.163z"/><path d="m1316.02 334.639c-.13 0-.27 0-.4-.131-.39-.261-.65-.653-.39-1.176l4.7-9.539-17.1-9.669c-.39-.261-.53-.784-.26-1.176.26-.392.78-.523 1.17-.261l17.76 10.061c.39.261.52.653.39 1.176l-4.96 10.323c-.39.261-.65.392-.91.392z"/><path d="m1320.98 324.318h-30.95c-.52 0-.91-.392-.91-.915s.39-.915.91-.915h30.95c.52 0 .91.392.91.915s-.39.915-.91.915z"/><path d="m1249.29 351.103c-.52 0-.92-.392-.92-.914v-10.846h-80.57v10.846c0 .522-.39.914-.91.914s-.91-.392-.91-.914v-11.63c0-.522.39-.914.91-.914h82.27c.52 0 .91.392.91.914v11.63c0 .522-.39.914-.78.914z"/><path d="m221.078 196.651c-.522 0-.914-.392-.783-.915l1.045-26.003c0-.522.391-.784.914-.784.522 0 .783.392.783.915l-1.045 26.003c-.13.392-.522.784-.914.784z"/><path d="m222.254 164.507c-.522 0-.914-.392-.783-.915l.261-6.925c0-.392.392-.784.783-.784.392 0 .784.392.784.784l.261 6.794c0 .523-.392.915-.784.915 0 0 0 0-.13 0 0 0-.261.131-.392.131z"/><path d="m224.082 196.912c-.392 0-.783-.392-.783-.784l-1.045-26.264c0-.523.392-.915.783-.915.523 0 .914.392.914.784l1.045 26.264c-.13.523-.392.915-.914.915z"/><path d="m227.739 291.386c-.392 0-.784-.392-.784-.784l-2.611-67.816c0-.523.392-.915.783-.915.523 0 .914.392.914.784l2.612 67.816c0 .523-.392.915-.914.915z"/><path d="m217.16 293.475c-.522 0-.914-.392-.783-.915l2.873-69.776c0-.523.391-.784.914-.784.522 0 .783.392.783.915l-2.873 69.776c-.13.392-.522.784-.914.784z"/><path d="m222.514 157.583c-.522 0-.784-.392-.784-.784v-13.589c0-.523.392-.784.784-.784s.783.392.783.784v13.589c.131.392-.261.784-.783.784z"/><path d="m222.514 299.224c-.522 0-.784-.392-.784-.915v-75.394c0-.523.392-.915.784-.915s.783.392.783.915v75.394c.131.523-.261.915-.783.915z"/><path d="m226.169 218.081h-7.313c-3.395 0-6.137-2.744-6.137-6.142v-4.442c0-.523.392-.915.783-.915h17.89c.523 0 .784.392.784.915v4.442c.13 3.398-2.612 6.142-6.007 6.142zm-11.753-9.67v3.528c0 2.483 1.959 4.443 4.44 4.443h7.313c2.481 0 4.44-1.96 4.44-4.443v-3.528z"/><path d="m228.649 207.757c-.523 0-.784-.392-.784-.915v-3.136h-10.446v3.136c0 .523-.392.915-.784.915-.522 0-.783-.392-.783-.915v-3.92c0-.522.391-.914.783-.914h12.144c.523 0 .784.392.784.914v3.92c-.131.523-.392.915-.914.915z"/><path d="m228.388 223.177h-11.622c-1.828 0-3.395-1.568-3.395-3.397s1.567-3.397 3.395-3.397h11.622c1.828 0 3.395 1.568 3.395 3.397s-1.567 3.397-3.395 3.397zm-11.622-5.096c-.914 0-1.697.784-1.697 1.699s.783 1.699 1.697 1.699h11.622c.914 0 1.698-.784 1.698-1.699s-.784-1.699-1.698-1.699z"/><path d="m225.908 203.577c-.522 0-.783-.392-.783-.915v-5.096h-5.093v5.096c0 .523-.392.915-.784.915-.522 0-.783-.392-.783-.915v-5.88c0-.523.392-.915.783-.915h6.791c.522 0 .783.392.783.915v5.88c0 .523-.392.915-.914.915z"/><path d="m230.869 212.462h-16.714c-.523 0-.784-.392-.784-.915 0-.522.392-.914.784-.914h16.714c.523 0 .784.392.784.914 0 .523-.392.915-.784.915z"/><path d="m222.514 170.259c-1.959 0-3.526-1.568-3.526-3.528s1.567-3.528 3.526-3.528 3.526 1.568 3.526 3.528-1.567 3.528-3.526 3.528zm0-5.357c-1.045 0-1.828.784-1.828 1.829s.783 1.829 1.828 1.829 1.828-.784 1.828-1.829-.783-1.829-1.828-1.829z"/><path d="m240.013 324.708c-.261 0-.522-.13-.652-.392l-48.316-64.941-47.924 64.419c-.262.392-.784.392-1.176.13-.391-.261-.391-.784-.13-1.176l48.577-65.333c.261-.392 1.044-.392 1.306 0l48.968 65.856c.262.392.262.915-.13 1.176-.131.131-.261.261-.523.261z"/><path d="m296.556 351.885h-76.261c-.261 0-.653-.131-.783-.523-.131-.261-.131-.653.13-.915l11.622-15.68c.131-.261.392-.392.653-.392h2.35l1.306-5.749c0-.131.131-.261.131-.392l7.835-10.323c.13-.13.261-.261.522-.261l2.873-.523.261-3.658c0-.131 0-.262.131-.392l5.484-9.931c.131-.261.392-.392.784-.392h8.096c.261 0 .522.131.653.392l7.313 9.539c.13.13.13.392.13.653l-.261 3.136 2.35.392c.262 0 .392.131.523.261l8.488 11.238c0 .13.13.13.13.261l1.698 5.619h1.959c.261 0 .522.13.653.392l12.013 15.81c.131.262.261.654.131.915-.261.392-.523.523-.914.523zm-74.563-1.699h72.865l-10.708-14.112h-2.089c-.392 0-.653-.261-.784-.653l-1.828-6.142-8.226-10.845-2.873-.523c-.392-.13-.784-.522-.653-.914l.392-3.528-6.791-9.016h-7.182l-5.093 9.277-.261 4.051c0 .392-.261.653-.653.784l-3.264.522-7.574 9.931-1.437 6.272c-.13.392-.391.653-.783.653h-2.612z"/><path d="m96.8935 351.888c-.1306 0-.3917 0-.5223-.131-.3918-.261-.3918-.784-.1306-1.176l32.6454-43.904c.131-.261.392-.392.653-.392.262 0 .523.131.653.392l22.33 30.054c.261.392.261.914-.131 1.176-.391.261-.914.261-1.175-.131l-21.677-29.139-31.9926 42.99c-.1305.13-.3917.261-.6529.261z"/><path d="m318.883 300.273c-.261 0-.522-.131-.652-.392l-26.378-35.803c-.261-.392-.261-.784.13-1.045l1.698-1.699-23.244-24.173-24.027 24.696 2.35 2.875c.261.261.261.784 0 1.045l-26.378 33.843c-.261.392-.783.392-1.175.13-.392-.261-.392-.784-.13-1.176l25.855-33.32-2.481-2.874c-.261-.392-.261-.784 0-1.176l25.203-25.872c.13-.131.391-.262.652-.262.262 0 .392.131.653.262l24.419 25.349c.262.392.262.915 0 1.176l-1.828 1.829 25.986 35.15c.262.392.262.914-.13 1.176-.261.261-.392.261-.523.261z"/><path d="m344.349 335.552c-.261 0-.522-.13-.653-.392l-15.147-21.037c-.262-.392-.131-.915.13-1.176.392-.261.914-.131 1.175.131l15.148 21.037c.261.392.131.915-.13 1.176-.131.131-.262.261-.523.261z"/><path d="m356.884 351.886h-356.100497c-.522333 0-.783503-.392-.783503-.915 0-.522.391753-.914.783503-.914h354.403497l-6.138-8.363c-.261-.392-.261-.915.131-1.176s.914-.261 1.175.131l7.052 9.669c.13.261.261.653.13.915 0 .522-.392.653-.653.653z"/><path d="m405.983 351.885h-48.316c-.522 0-.783-.392-.783-.915 0-.522.391-.914.783-.914h46.749l-55.89-75.134-20.632 27.571c-.261.392-.783.392-1.175.131-.392-.262-.392-.784-.131-1.176l21.285-28.486c.131-.261.392-.392.653-.392s.523.131.653.392l57.457 77.616c.13.262.261.654.13.915-.13.261-.522.392-.783.392z"/><path d="m162.708 333.461c-.131 0-.261 0-.261 0-.392-.131-.653-.653-.522-1.045l28.467-73.043c.13-.392.653-.653 1.044-.523.392.131.653.654.523 1.046l-28.467 73.042c-.131.392-.523.523-.784.523z"/><path d="m232.699 314.253c-.131 0-.261 0-.392-.13-.392-.262-.522-.784-.261-1.176l25.594-44.296.784-6.142c0-.13 0-.13.13-.261l11.622-25.872c.131-.392.653-.653 1.176-.392.391.131.653.653.391 1.176l-11.622 25.741-.783 6.142c0 .13 0 .261-.131.261l-25.725 44.427c-.261.392-.522.522-.783.522z"/><path d="m243.014 351.625c-.131 0-.131 0-.261 0-.392-.13-.784-.653-.653-1.045l4.048-14.766c.131-.261.392-.522.653-.653l1.567-.261v-6.664c0-.131 0-.262.13-.392l4.701-8.363.262-4.051c0-.13 0-.261.13-.391l5.746-10.192c.261-.392.783-.523 1.175-.262.392.262.522.784.261 1.176l-5.745 10.062-.262 4.05c0 .131 0 .262-.13.392l-4.701 8.363v7.186c0 .392-.261.785-.653.785l-1.698.391-3.917 14.243c0 .131-.392.392-.653.392z"/><path d="m334.423 321.049c-.131 0-.131 0-.261 0-.392-.131-.653-.654-.523-1.046l14.103-46.778c.131-.392.653-.654 1.045-.523s.653.653.522 1.045l-14.103 46.779c-.13.261-.522.523-.783.523z"/><path d="m285.586 269.567h-.131l-26.247-5.357-11.1 2.09c-.261 0-.652-.13-.783-.392l-2.612-3.658c-.261-.392-.261-.915.131-1.176.392-.262.914-.262 1.175.13l2.351 3.136 10.707-1.96h.262l26.116 5.227 8.88-7.187c.392-.261.914-.261 1.175.131s.261.915-.13 1.176l-9.141 7.448c-.261.392-.392.392-.653.392z"/><path d="m284.28 336.208h-52.364c-.522 0-.783-.392-.783-.914 0-.523.392-.915.783-.915h52.364c.523 0 .784.392.784.915 0 .522-.392.914-.784.914z"/><path d="m279.839 329.411h-42.962c-.522 0-.783-.392-.783-.914 0-.523.392-.915.783-.915h42.962c.523 0 .784.392.784.915.13.522-.261.914-.784.914z"/><path d="m254.113 320.394c-.13 0-.13 0-.261 0l-6.529-1.698c-.392-.131-.783-.523-.653-1.046.131-.392.522-.784 1.045-.653l6.398 1.568 14.234-2.352c.522-.131.914.261.914.653.131.523-.261.915-.653.915l-14.364 2.483c0 .13-.131.13-.131.13z"/><path d="m122.357 335.816c-.261 0-.391-.131-.522-.262l-7.835-6.925c-.392-.261-.392-.784-.13-1.176.261-.392.783-.392 1.175-.131l7.312 6.403 7.313-4.965c.261-.131.653-.131.914 0l6.529 3.528 6.791-5.227c.391-.261.914-.261 1.175.131s.261.914-.131 1.176l-7.182 5.488c-.261.261-.653.261-.914.13l-6.529-3.528-7.443 5.096c-.131.131-.261.262-.523.262z"/><path d="m392.272 343.13h-22.852c-.522 0-.783-.392-.783-.915 0-.522.391-.914.783-.914h22.852c.523 0 .784.392.784.914 0 .523-.261.915-.784.915z"/><path d="m368.639 332.939h-9.402c-.523 0-.784-.392-.784-.915s.392-.915.784-.915h9.402c.522 0 .783.392.783.915s-.261.915-.783.915z"/><path d="m383.916 332.939h-7.574c-.522 0-.783-.392-.783-.915s.391-.915.783-.915h7.574c.522 0 .783.392.783.915s-.391.915-.783.915z"/><path d="m354.534 308.634h-9.141c-.522 0-.784-.392-.784-.915 0-.522.392-.914.784-.914h9.141c.522 0 .783.392.783.914.131.654-.261.915-.783.915z"/><path d="m364.327 308.634h-3.395c-.522 0-.784-.392-.784-.915 0-.522.392-.914.784-.914h3.395c.522 0 .784.392.784.914 0 .654-.392.915-.784.915z"/><path d="m363.545 320.525h-4.832c-.522 0-.783-.392-.783-.915s.391-.915.783-.915h4.832c.522 0 .783.392.783.915s-.391.915-.783.915z"/><path d="m356.492 296.743h-6.529c-.522 0-.783-.392-.783-.914 0-.523.391-.915.783-.915h6.529c.523 0 .784.392.784.915 0 .522-.392.914-.784.914z"/><path d="m310.003 332.939h-17.106c-.523 0-.784-.392-.784-.915s.392-.915.784-.915h17.106c.523 0 .784.392.784.915s-.261.915-.784.915z"/><path d="m284.28 308.634h-9.141c-.522 0-.784-.392-.784-.915 0-.522.392-.914.784-.914h9.141c.522 0 .783.392.783.914.131.654-.261.915-.783.915z"/><path d="m309.613 308.634h-14.103c-.522 0-.783-.392-.783-.915 0-.522.391-.914.783-.914h14.103c.522 0 .784.392.784.914.13.654-.262.915-.784.915z"/><path d="m296.033 320.525h-11.23c-.522 0-.783-.392-.783-.915s.391-.915.783-.915h11.23c.523 0 .784.392.784.915s-.261.915-.784.915z"/><path d="m301.387 296.743h-18.412c-.522 0-.784-.392-.784-.914 0-.523.392-.915.784-.915h18.412c.522 0 .784.392.784.915.13.522-.262.914-.784.914z"/><path d="m257.249 296.743h-8.227c-.523 0-.784-.392-.784-.914 0-.523.392-.915.784-.915h8.227c.522 0 .783.392.783.915 0 .522-.261.914-.783.914z"/><path d="m273.443 296.743h-2.351c-.522 0-.783-.392-.783-.914 0-.523.391-.915.783-.915h2.351c.522 0 .783.392.783.915 0 .522-.392.914-.783.914z"/><path d="m276.184 252.579h-3.787c-.523 0-.784-.392-.784-.914 0-.523.392-.915.784-.915h3.787c.522 0 .783.392.783.915 0 .653-.392.914-.783.914z"/><path d="m281.931 260.419h-9.663c-.522 0-.784-.392-.784-.914 0-.523.392-.915.784-.915h9.663c.522 0 .784.392.784.915 0 .522-.262.914-.784.914z"/><path d="m289.372 280.15h-9.924c-.523 0-.784-.392-.784-.915s.392-.915.784-.915h9.924c.522 0 .783.392.783.915.131.523-.261.915-.783.915z"/><path d="m270.048 280.15h-7.835c-.522 0-.783-.392-.783-.915s.391-.915.783-.915h7.835c.523 0 .784.392.784.915s-.392.915-.784.915z"/><path d="m188.17 343.13h-9.402c-.522 0-.784-.392-.784-.915 0-.522.392-.914.784-.914h9.402c.522 0 .783.392.783.914 0 .523-.391.915-.783.915z"/><path d="m203.973 343.13h-6.529c-.523 0-.784-.392-.784-.915 0-.522.392-.914.784-.914h6.529c.522 0 .783.392.783.914 0 .523-.391.915-.783.915z"/><path d="m219.51 343.13h-9.141c-.522 0-.783-.392-.783-.915 0-.522.392-.914.783-.914h9.141c.523 0 .784.392.784.914.13.523-.261.915-.784.915z"/><path d="m209.977 332.939h-21.154c-.523 0-.784-.392-.784-.915s.392-.915.784-.915h21.154c.522 0 .784.392.784.915s-.262.915-.784.915z"/><path d="m181.248 332.939h-7.574c-.522 0-.783-.392-.783-.915s.391-.915.783-.915h7.574c.522 0 .783.392.783.915s-.261.915-.783.915z"/><path d="m224.865 332.939h-7.574c-.522 0-.783-.392-.783-.915s.392-.915.783-.915h7.574c.522 0 .784.392.784.915s-.262.915-.784.915z"/><path d="m215.722 308.634h-12.536c-.523 0-.784-.392-.784-.915 0-.522.392-.914.784-.914h12.536c.522 0 .783.392.783.914.131.654-.261.915-.783.915z"/><path d="m196.658 308.634h-12.406c-.522 0-.783-.392-.783-.915 0-.522.391-.914.783-.914h12.406c.522 0 .783.392.783.914.131.654-.261.915-.783.915z"/><path d="m216.246 320.525h-22.33c-.522 0-.783-.392-.783-.915s.392-.915.783-.915h22.33c.522 0 .784.392.784.915s-.262.915-.784.915z"/><path d="m183.731 320.525h-2.873c-.523 0-.784-.392-.784-.915s.392-.915.784-.915h2.873c.522 0 .783.392.783.915s-.261.915-.783.915z"/><path d="m191.306 282.239h-2.089c-.522 0-.783-.391-.783-.914s.391-.915.783-.915h2.089c.523 0 .784.392.784.915.131.523-.261.914-.784.914z"/><path d="m158.918 325.622h-8.357c-.523 0-.784-.392-.784-.914 0-.523.392-.915.784-.915h8.357c.523 0 .784.392.784.915.13.522-.261.914-.784.914z"/><path d="m160.486 318.435h-3.003c-.523 0-.784-.392-.784-.915s.392-.915.784-.915h3.003c.522 0 .784.392.784.915s-.392.915-.784.915z"/><path d="m239.752 289.427h-3.004c-.522 0-.783-.392-.783-.915 0-.522.392-.914.783-.914h3.004c.522 0 .783.392.783.914.131.523-.261.915-.783.915z"/><path d="m234.657 300.275h-5.354c-.522 0-.783-.392-.783-.915s.391-.915.783-.915h5.354c.522 0 .783.392.783.915s-.391.915-.783.915z"/><path d="m129.799 339.212h-2.09c-.522 0-.783-.392-.783-.915 0-.522.392-.914.783-.914h2.09c.522 0 .783.392.783.914.131.523-.261.915-.783.915z"/><path d="m144.164 339.212h-5.877c-.522 0-.783-.392-.783-.915 0-.522.392-.914.783-.914h5.877c.522 0 .783.392.783.914 0 .523-.392.915-.783.915z"/><path d="m123.4 346.661h-12.406c-.522 0-.783-.392-.783-.914 0-.523.392-.915.783-.915h12.406c.522 0 .783.392.783.915 0 .522-.391.914-.783.914z"/><path d="m137.242 346.661h-5.876c-.523 0-.784-.392-.784-.914 0-.523.392-.915.784-.915h5.876c.522 0 .783.392.783.915 0 .522-.391.914-.783.914z"/><path d="m201.098 282.239h-2.873c-.522 0-.784-.391-.784-.914s.392-.915.784-.915h2.873c.522 0 .783.392.783.915s-.392.914-.783.914z"/><path d="m226.43 320.525h-2.873c-.522 0-.784-.392-.784-.915s.392-.915.784-.915h2.873c.522 0 .783.392.783.915s-.391.915-.783.915z"/><path d="m202.145 296.743h-6.529c-.523 0-.784-.392-.784-.914 0-.523.392-.915.784-.915h6.529c.522 0 .783.392.783.915.131.522-.261.914-.783.914z"/><path d="m456.126 219.651c-.523 0-.784-.392-.784-.915v-26.133h-142.466v26.002c0 .523-.392.915-.784.915-.522 0-.783-.392-.783-.915v-26.917c0-.523.391-.915.783-.915h144.164c.522 0 .784.392.784.915v27.048c0 .653-.392.915-.914.915z"/><path d="m456.128 351.884h-48.446c-.522 0-.784-.392-.784-.915v-97.739h-45.573v36.195c0 .523-.392.915-.784.915-.522 0-.783-.392-.783-.915v-36.979c0-.522.392-.914.783-.914h47.271c.523 0 .784.392.784.914v97.739h46.749v-120.083c0-.522.392-.914.783-.914.523 0 .784.392.784.914v120.867c.13.523-.261.915-.784.915z"/><path d="m312.092 290.735c-.522 0-.783-.392-.783-.915v-59.976c0-.522.391-.914.783-.914.522 0 .784.392.784.914v59.976c0 .523-.262.915-.784.915z"/><path d="m500.917 351.884h-205.016c-.523 0-.784-.392-.784-.915 0-.522.392-.914.784-.914h204.885c.522 0 .783.392.783.914.131.523-.261.915-.652.915z"/><path d="m461.742 230.367h-155.133c-.261 0-.522-.13-.783-.392l-5.876-10.322c-.131-.262-.131-.523 0-.784.13-.262.391-.392.783-.392h167.016c.261 0 .522.13.784.392.13.261.13.522 0 .784l-5.877 10.322c-.391.262-.653.392-.914.392zm-154.741-1.698h154.219l4.962-8.624h-164.143z"/><path d="m458.868 199.396h-149.256c-.523 0-.784-.392-.784-.915s.392-.915.784-.915h149.256c.523 0 .784.392.784.915s-.261.915-.784.915z"/><path d="m459.259 240.95h-150.171c-.522 0-.783-.392-.783-.914 0-.523.391-.915.783-.915h150.171c.522 0 .783.392.783.915 0 .653-.391.914-.783.914z"/><path d="m407.812 351.885c-.522 0-.783-.392-.783-.915v-75.002c0-12.544-10.186-22.867-22.852-22.867-12.536 0-22.852 10.192-22.852 22.867v13.85c0 .523-.392.915-.784.915-.522 0-.783-.392-.783-.915v-13.85c0-13.459 10.969-24.566 24.549-24.566 13.451 0 24.55 10.976 24.55 24.566v75.002c-.261.523-.653.915-1.045.915z"/><path d="m342.651 281.454h-30.426c-.522 0-.784-.392-.784-.914 0-.523.392-.915.784-.915h30.426c.522 0 .783.392.783.915 0 .522-.261.914-.783.914z"/><path d="m360.278 281.454h-6.53c-.522 0-.783-.392-.783-.914 0-.523.392-.915.783-.915h6.53c.522 0 .783.392.783.915 0 .522-.261.914-.783.914z"/><path d="m337.426 288.513h-24.81c-.523 0-.784-.392-.784-.915 0-.522.392-.914.784-.914h24.81c.523 0 .784.392.784.914 0 .523-.261.915-.784.915z"/><path d="m456.258 281.454h-48.185c-.523 0-.784-.392-.784-.914 0-.523.392-.915.784-.915h48.185c.522 0 .783.392.783.915 0 .522-.391.914-.783.914z"/><path d="m455.213 288.251h-47.14c-.523 0-.784-.392-.784-.914 0-.523.392-.915.784-.915h47.14c.522 0 .784.392.784.915 0 .522-.262.914-.784.914z"/><path d="m440.846 330.978c-.522 0-.783-.392-.783-.915v-25.088c0-4.573-3.787-8.362-8.357-8.362-4.571 0-8.358 3.789-8.358 8.362v25.088c0 .523-.391.915-.783.915-.523 0-.784-.392-.784-.915v-25.088c0-5.488 4.44-10.061 10.055-10.061 5.485 0 10.055 4.443 10.055 10.061v25.088c-.261.523-.653.915-1.045.915z"/><path d="m443.065 351.493c-.523 0-.784-.392-.784-.915v-18.816c0-.522.392-.914.784-.914.522 0 .783.392.783.914v18.816c0 .523-.391.915-.783.915z"/><path d="m420.213 351.493c-.522 0-.783-.392-.783-.915v-18.816c0-.522.391-.914.783-.914.523 0 .784.392.784.914v18.816c.13.523-.261.915-.784.915z"/><path d="m455.472 331.63h-47.532c-.523 0-.784-.392-.784-.915 0-.522.392-.914.784-.914h47.532c.522 0 .784.392.784.914 0 .523-.392.915-.784.915z"/><path d="m351.399 271.135h-30.295c-.523 0-.784-.392-.784-.915v-18.032c0-.523.392-.915.784-.915h30.295c.523 0 .784.392.784.915v18.032c0 .523-.392.915-.784.915zm-29.512-1.699h28.598v-16.333h-28.598z"/><path d="m446.854 271.135h-30.426c-.522 0-.783-.392-.783-.915v-18.032c0-.523.391-.915.783-.915h30.295c.523 0 .784.392.784.915v18.032c.13.523-.261.915-.653.915zm-29.512-1.699h28.598v-16.333h-28.598z"/><path d="m322.799 213.51c-.522 0-.783-.392-.783-.915v-7.579c0-.522.391-.914.783-.914.522 0 .784.392.784.914v7.579c0 .523-.262.915-.784.915z"/><path d="m340.299 213.51c-.522 0-.783-.392-.783-.915v-7.579c0-.522.391-.914.783-.914.522 0 .784.392.784.914v7.579c.13.523-.262.915-.784.915z"/><path d="m357.795 213.51c-.522 0-.783-.392-.783-.915v-7.579c0-.522.391-.914.783-.914.523 0 .784.392.784.914v7.579c.13.523-.261.915-.784.915z"/><path d="m375.424 213.51c-.522 0-.783-.392-.783-.915v-7.579c0-.522.391-.914.783-.914.522 0 .784.392.784.914v7.579c0 .523-.392.915-.784.915z"/><path d="m392.924 213.51c-.522 0-.783-.392-.783-.915v-7.579c0-.522.391-.914.783-.914.522 0 .784.392.784.914v7.579c0 .523-.392.915-.784.915z"/><path d="m410.42 213.51c-.522 0-.783-.392-.783-.915v-7.579c0-.522.391-.914.783-.914s.784.392.784.914v7.579c.13.523-.261.915-.784.915z"/><path d="m427.92 213.51c-.522 0-.783-.392-.783-.915v-7.579c0-.522.391-.914.783-.914.523 0 .784.392.784.914v7.579c.13.523-.261.915-.784.915z"/><path d="m445.416 213.51c-.522 0-.783-.392-.783-.915v-7.579c0-.522.392-.914.783-.914.523 0 .784.392.784.914v7.579c.13.523-.261.915-.784.915z"/><path d="m912.648 262.381h-143.772c-6.791 0-13.581-.653-20.241-1.96l-4.701-.914c-.392-.131-.653-.392-.653-.784v-2.744c0-.392.261-.784.653-.784 11.23-2.483 25.072-6.534 31.863-14.766.13-.261.391-.261.652-.261h136.46c.522 0 .914.392.914.915 0 .522-.392.914-.914.914h-136.068c-7.051 8.232-20.632 12.283-31.862 14.896v1.438l3.917.784c6.529 1.306 13.32 1.829 19.98 1.829h143.772c.522 0 .914.392.914.915 0 .522-.392.522-.914.522z"/><path d="m902.591 299.096h-149.387c-6.791 0-13.581-.653-20.241-1.96l-4.701-.914c-.391-.131-.653-.393-.653-.785v-2.744c0-.392.262-.784.653-.784 14.234-3.136 28.337-7.186 34.474-14.765.131-.261.392-.261.653-.261h149.518c.522 0 .914.392.914.914 0 .523-.392.915-.914.915h-149.126c-6.529 7.579-20.371 11.63-34.474 14.896v1.438l3.917.783c6.53 1.307 13.32 1.83 19.98 1.83h149.518c.522 0 .914.392.914.914-.131.131-.523.523-1.045.523z"/><path d="m763.781 277.536c-.522 0-.914-.392-.914-.915v-14.765c0-.523.392-.915.914-.915.523 0 .914.392.914.915v14.765c-.13.523-.522.915-.914.915z"/><path d="m777.102 241.082c-.523 0-.914-.392-.914-.915v-6.272c0-.523.391-.915.914-.915.522 0 .914.392.914.915v6.272c-.131.523-.523.915-.914.915z"/><path d="m748.894 337.253c-.522 0-.914-.392-.914-.915v-37.501c0-.523.392-.915.914-.915.523 0 .915.392.915.915v37.501c0 .523-.392.915-.915.915z"/><path d="m966.579 351.887h-234.266c-.523 0-.915-.392-.915-.914v-13.59c0-.522.392-.914.915-.914h177.07c.523 0 .915.392.915.914 0 .523-.392.915-.915.915h-176.287v11.891h232.569l-.131-11.499-5.484-.392c-.523 0-.784-.392-.784-.915 0-.522.392-.784.914-.784l6.268.523c.392 0 .784.392.784.784l.131 13.197c0 .262-.131.392-.262.654-.13 0-.391.13-.522.13z"/><path d="m887.184 351.887c-.523 0-.914-.392-.914-.914v-13.59c0-.522.391-.914.914-.914.522 0 .914.392.914.914v13.59c0 .522-.392.914-.914.914z"/><path d="m832.598 351.887c-.523 0-.914-.392-.914-.914v-13.59c0-.522.391-.914.914-.914.522 0 .914.392.914.914v13.59c-.131.522-.523.914-.914.914z"/><path d="m879.219 351.887c-.523 0-.914-.392-.914-.914v-13.59c0-.522.391-.914.914-.914.522 0 .914.392.914.914v13.59c0 .522-.392.914-.914.914z"/><path d="m840.563 351.887c-.523 0-.915-.392-.915-.914v-13.59c0-.522.392-.914.915-.914.522 0 .914.392.914.914v13.59c-.131.522-.523.914-.914.914z"/><path d="m883.525 336.993c-.522 0-.914-.392-.914-.915v-19.6c0-2.09-13.972-5.096-18.412-5.096h-8.619c-4.44 0-18.412 3.006-18.412 5.096v19.6c0 .523-.392.915-.914.915s-.914-.392-.914-.915v-19.6c0-4.573 17.89-6.794 20.11-6.794h8.618c2.22 0 20.11 2.221 20.11 6.794v19.6c.131.523-.261.915-.653.915z"/><path d="m891.102 336.993c-.523 0-.914-.392-.914-.915v-19.6c0-2.091 3.134-4.051 9.271-5.749.522-.131.914.13 1.045.653.13.392-.131.915-.653 1.045-5.485 1.438-8.096 3.136-8.096 4.051v19.6c.13.523-.131.915-.653.915z"/><path d="m828.683 336.993c-.523 0-.914-.392-.914-.915v-19.6c0-2.221-10.839-5.096-13.973-5.096h-6.659c-3.134 0-13.973 2.875-13.973 5.096v19.6c0 .523-.392.915-.914.915s-.914-.392-.914-.915v-19.6c0-4.442 13.972-6.794 15.67-6.794h6.66c1.697 0 15.67 2.352 15.67 6.794v19.6c.261.523-.131.915-.653.915z"/><path d="m785.065 336.993c-.522 0-.914-.392-.914-.915v-19.6c0-2.352-9.402-5.096-11.752-5.096h-5.615c-2.351 0-11.753 2.744-11.753 5.096v19.6c0 .523-.392.915-.914.915s-.914-.392-.914-.915v-19.6c0-4.312 11.361-6.794 13.45-6.794h5.615c2.09 0 13.45 2.482 13.45 6.794v19.6c.131.523-.261.915-.653.915z"/><path d="m912.906 272.572h-148.734c-.522 0-.914-.393-.914-.915 0-.523.392-.915.914-.915h148.734c.523 0 .914.392.914.915-.13.522-.522.915-.914.915z"/><path d="m900.894 305.368h-151.085c-.523 0-.914-.392-.914-.914 0-.523.391-.915.914-.915h151.085c.522 0 .914.392.914.915 0 .522-.392.914-.914.914z"/><path d="m1000.4 351.888h-281.017c-.522 0-.914-.392-.914-.915 0-.522.392-.914.914-.914h281.017c.52 0 .91.392.91.914-.13.523-.39.915-.91.915z"/><path d="m720.955 351.886h-129.539c-.522 0-.783-.392-.783-.915v-81.013c0-.523.392-.915.783-.915h129.539c.522 0 .914.392.914.915v81.013c0 .523-.392.915-.914.915zm-128.755-1.699h127.841v-79.315h-127.841z"/><path d="m702.935 269.696c-.523 0-.914-.392-.914-.914v-49.523h-91.931v49.523c0 .522-.392.914-.914.914-.523 0-.914-.392-.914-.914v-50.438c0-.522.391-.914.914-.914h93.628c.522 0 .914.392.914.914v50.438c.131.522-.261.914-.783.914z"/><path d="m695.229 218.606c-.522 0-.914-.392-.914-.915v-23.781h-76.26v23.781c0 .523-.392.915-.914.915-.523 0-.914-.392-.914-.915v-24.565c0-.523.391-.915.914-.915h77.958c.522 0 .914.392.914.915v24.565c0 .523-.392.915-.784.915z"/><path d="m690.919 192.995c-.522 0-.914-.392-.914-.915v-6.795c0-18.685-15.278-33.973-33.952-33.973-18.673 0-33.951 15.288-33.951 33.973v6.795c0 .523-.392.915-.915.915-.522 0-.914-.392-.914-.915v-6.795c0-19.73 15.932-35.672 35.65-35.672s35.649 15.942 35.649 35.672v6.795c.261.653-.131.915-.653.915z"/><path d="m733.098 351.886h-219.772c-.522 0-.783-.392-.783-.914v-65.987c0-.523.392-.915.783-.915h77.045c.522 0 .783.392.783.915s-.392.915-.783.915h-76.261v64.288h218.988c.523 0 .914.392.914.914 0 .392-.391.784-.914.784z"/><path d="m750.076 287.075h-27.814c-.523 0-.914-.392-.914-.914 0-.523.391-.915.914-.915h27.814c.522 0 .914.392.914.915 0 .653-.392.914-.914.914z"/><path d="m663.366 151.574c-.522 0-.914-.392-.914-.784v-21.298h-12.667v21.298c0 .523-.392.784-.914.784s-.914-.392-.914-.784v-22.213c0-.523.392-.784.914-.784h14.364c.523 0 .914.392.914.784v22.213c.131.392-.261.784-.783.784z"/><path d="m656.184 128.706c-.523 0-.914-.392-.914-.784v-20.384c0-.523.391-.784.914-.784.522 0 .914.392.914.784v20.384c-.131.392-.523.784-.914.784z"/><path d="m625.629 217.952c-.522 0-.914-.392-.914-.915v-12.282c0-.523.392-.915.914-.915s.914.392.914.915v12.282c-.131.654-.522.915-.914.915z"/><path d="m635.813 217.952c-.523 0-.915-.392-.915-.915v-12.282c0-.523.392-.915.915-.915.522 0 .914.392.914.915v12.282c-.131.654-.523.915-.914.915z"/><path d="m646 217.952c-.522 0-.914-.392-.914-.915v-12.282c0-.523.392-.915.914-.915s.914.392.914.915v12.282c-.13.654-.522.915-.914.915z"/><path d="m656.184 217.952c-.523 0-.914-.392-.914-.915v-12.282c0-.523.391-.915.914-.915.522 0 .914.392.914.915v12.282c-.131.654-.523.915-.914.915z"/><path d="m666.371 217.952c-.522 0-.914-.392-.914-.915v-12.282c0-.523.392-.915.914-.915s.914.392.914.915v12.282c-.13.654-.392.915-.914.915z"/><path d="m676.555 217.952c-.523 0-.914-.392-.914-.915v-12.282c0-.523.391-.915.914-.915.522 0 .914.392.914.915v12.282c0 .654-.392.915-.914.915z"/><path d="m686.742 217.952c-.522 0-.914-.392-.914-.915v-12.282c0-.523.392-.915.914-.915.523 0 .914.392.914.915v12.282c0 .654-.391.915-.914.915z"/><path d="m629.152 188.029c-.522 0-.914-.392-.914-.914v-4.704c0-.523.392-.915.914-.915.523 0 .914.392.914.915v4.704c0 .522-.391.914-.914.914z"/><path d="m638.164 188.029c-.522 0-.914-.392-.914-.914v-4.704c0-.523.392-.915.914-.915s.914.392.914.915v4.704c0 .522-.392.914-.914.914z"/><path d="m647.172 188.029c-.522 0-.914-.392-.914-.914v-4.704c0-.523.392-.915.914-.915s.914.392.914.915v4.704c-.131.522-.392.914-.914.914z"/><path d="m656.184 188.029c-.523 0-.914-.392-.914-.914v-4.704c0-.523.391-.915.914-.915.522 0 .914.392.914.915v4.704c-.131.522-.523.914-.914.914z"/><path d="m665.191 188.029c-.522 0-.914-.392-.914-.914v-4.704c0-.523.392-.915.914-.915.523 0 .915.392.915.915v4.704c-.131.522-.523.914-.915.914z"/><path d="m674.203 188.029c-.522 0-.914-.392-.914-.914v-4.704c0-.523.392-.915.914-.915s.914.392.914.915v4.704c-.13.522-.522.914-.914.914z"/><path d="m683.215 188.029c-.522 0-.914-.392-.914-.914v-4.704c0-.523.392-.915.914-.915s.914.392.914.915v4.704c-.131.522-.522.914-.914.914z"/><path d="m701.89 231.017h-91.8c-.522 0-.914-.392-.914-.915 0-.522.392-.914.914-.914h91.8c.522 0 .914.392.914.914-.131.523-.522.915-.914.915z"/><path d="m617.922 269.433c-.522 0-.914-.392-.914-.915v-30.576c0-.523.392-.915.914-.915s.914.392.914.915v30.707c-.131.522-.392.784-.914.784z"/><path d="m628.891 269.433c-.523 0-.914-.392-.914-.915v-30.576c0-.523.391-.915.914-.915.522 0 .914.392.914.915v30.707c0 .522-.392.784-.914.784z"/><path d="m639.992 269.433c-.522 0-.914-.392-.914-.915v-30.576c0-.523.392-.915.914-.915.523 0 .914.392.914.915v30.707c-.13.522-.522.784-.914.784z"/><path d="m650.961 269.433c-.522 0-.914-.392-.914-.915v-30.576c0-.523.392-.915.914-.915s.914.392.914.915v30.707c0 .522-.392.784-.914.784z"/><path d="m662.059 269.433c-.523 0-.914-.392-.914-.915v-30.576c0-.523.391-.915.914-.915.522 0 .914.392.914.915v30.707c-.131.522-.523.784-.914.784z"/><path d="m673.027 269.433c-.522 0-.914-.392-.914-.915v-30.576c0-.523.392-.915.914-.915.523 0 .914.392.914.915v30.707c0 .522-.391.784-.914.784z"/><path d="m684.129 269.433c-.522 0-.914-.392-.914-.915v-30.576c0-.523.392-.915.914-.915s.914.392.914.915v30.707c-.131.522-.522.784-.914.784z"/><path d="m695.098 269.433c-.523 0-.914-.392-.914-.915v-30.576c0-.523.391-.915.914-.915.522 0 .914.392.914.915v30.707c-.131.522-.392.784-.914.784z"/><path d="m590.762 294.654h-15.67c-.522 0-.783-.392-.783-.915s.391-.915.783-.915h15.67c.522 0 .784.392.784.915 0 .653-.392.915-.784.915z"/><path d="m562.427 294.654h-48.315c-.523 0-.784-.392-.784-.915s.392-.915.784-.915h48.315c.523 0 .784.392.784.915.131.653-.261.915-.784.915z"/><path d="m727.614 294.654h-6.137c-.523 0-.915-.392-.915-.915s.392-.915.915-.915h6.137c.522 0 .914.392.914.915-.131.653-.522.915-.914.915z"/><path d="m720.692 280.279h-129.147c-.522 0-.783-.392-.783-.915s.391-.915.783-.915h129.147c.522 0 .914.392.914.915s-.392.915-.914.915z"/><path d="m748.506 322.614h-171.195c-.522 0-.784-.391-.784-.914s.392-.915.784-.915h171.195c.522 0 .914.392.914.915-.131.523-.523.914-.914.914z"/><path d="m559.682 322.614h-45.313c-.522 0-.783-.391-.783-.914s.392-.915.783-.915h45.182c.523 0 .784.392.784.915.13.523-.261.914-.653.914z"/><path d="m600.424 322.354c-.522 0-.783-.392-.783-.915v-41.552c0-.522.391-.914.783-.914s.784.392.784.914v41.552c0 .523-.392.915-.784.915z"/><path d="m712.203 322.092c-.522 0-.914-.392-.914-.915v-40.376c0-.522.392-.914.914-.914s.914.392.914.914v40.376c-.13.523-.522.915-.914.915z"/><path d="m697.582 321.962c-.522 0-.914-.392-.914-.915v-41.421c0-.523.392-.915.914-.915s.914.392.914.915v41.421c-.13.523-.522.915-.914.915z"/><path d="m689.484 321.962c-.522 0-.914-.392-.914-.915v-41.421c0-.523.392-.915.914-.915.523 0 .914.392.914.915v41.421c-.13.523-.522.915-.914.915z"/><path d="m622.363 321.962c-.522 0-.914-.392-.914-.915v-41.421c0-.523.392-.915.914-.915.523 0 .914.392.914.915v41.421c0 .523-.391.915-.914.915z"/><path d="m614.266 321.962c-.523 0-.914-.392-.914-.915v-41.421c0-.523.391-.915.914-.915.522 0 .914.392.914.915v41.421c0 .523-.392.915-.914.915z"/><path d="m644.172 321.962c-.522 0-.914-.392-.914-.915v-41.421c0-.523.392-.915.914-.915s.914.392.914.915v41.421c-.131.523-.522.915-.914.915z"/><path d="m636.074 321.962c-.522 0-.914-.392-.914-.915v-41.421c0-.523.392-.915.914-.915.523 0 .914.392.914.915v41.421c-.13.523-.522.915-.914.915z"/><path d="m676.035 321.962c-.522 0-.914-.392-.914-.915v-41.421c0-.523.392-.915.914-.915.523 0 .914.392.914.915v41.421c0 .523-.391.915-.914.915z"/><path d="m667.937 321.962c-.522 0-.914-.392-.914-.915v-41.421c0-.523.392-.915.914-.915.523 0 .915.392.915.915v41.421c0 .523-.392.915-.915.915z"/><path d="m656.055 321.962c-.523 0-.914-.392-.914-.915v-41.421c0-.523.391-.915.914-.915.522 0 .914.392.914.915v41.421c0 .523-.392.915-.914.915z"/><path d="m608.131 351.232c-.523 0-.784-.392-.784-.915v-13.328c0-1.568-1.306-3.005-3.003-3.005-1.567 0-3.004 1.306-3.004 3.005v13.328c0 .523-.391.915-.783.915s-.784-.392-.784-.915v-13.328c0-2.613 2.09-4.704 4.701-4.704 2.612 0 4.701 2.091 4.701 4.704v13.328c-.13.523-.522.915-1.044.915z"/><path d="m628.894 351.232c-.523 0-.914-.392-.914-.915v-13.328c0-1.568-1.306-3.005-3.004-3.005-1.567 0-3.003 1.306-3.003 3.005v13.328c0 .523-.392.915-.914.915-.523 0-.914-.392-.914-.915v-13.328c0-2.613 2.089-4.704 4.7-4.704 2.612 0 4.702 2.091 4.702 4.704v13.328c.13.523-.131.915-.653.915z"/><path d="m649.655 351.232c-.522 0-.914-.392-.914-.915v-13.328c0-1.568-1.306-3.005-3.003-3.005-1.567 0-3.004 1.306-3.004 3.005v13.328c0 .523-.391.915-.914.915-.522 0-.914-.392-.914-.915v-13.328c0-2.613 2.09-4.704 4.701-4.704 2.612 0 4.701 2.091 4.701 4.704v13.328c.131.523-.261.915-.653.915z"/><path d="m670.288 351.232c-.522 0-.914-.392-.914-.915v-13.328c0-1.568-1.306-3.005-3.003-3.005-1.567 0-3.004 1.306-3.004 3.005v13.328c0 .523-.392.915-.914.915s-.914-.392-.914-.915v-13.328c0-2.613 2.089-4.704 4.701-4.704s4.701 2.091 4.701 4.704v13.328c.261.523-.131.915-.653.915z"/><path d="m691.05 351.232c-.522 0-.914-.392-.914-.915v-13.328c0-1.568-1.306-3.005-3.004-3.005-1.567 0-3.003 1.306-3.003 3.005v13.328c0 .523-.392.915-.914.915s-.914-.392-.914-.915v-13.328c0-2.613 2.089-4.704 4.701-4.704 2.611 0 4.701 2.091 4.701 4.704v13.328c.261.523-.131.915-.653.915z"/><path d="m711.816 351.232c-.523 0-.915-.392-.915-.915v-13.328c0-1.568-1.305-3.005-3.003-3.005-1.567 0-3.003 1.306-3.003 3.005v13.328c0 .523-.392.915-.914.915-.523 0-.915-.392-.915-.915v-13.328c0-2.613 2.09-4.704 4.701-4.704 2.612 0 4.701 2.091 4.701 4.704v13.328c.131.523-.261.915-.652.915z"/><path d="m527.69 312.162c-.523 0-.784-.392-.784-.914v-4.704c0-.523.392-.915.784-.915.522 0 .783.392.783.915v4.704c.131.522-.261.914-.783.914z"/><path d="m544.143 312.162c-.522 0-.784-.392-.784-.914v-4.704c0-.523.392-.915.784-.915.522 0 .783.392.783.915v4.704c.131.522-.261.914-.783.914z"/><path d="m527.69 341.824c-.523 0-.784-.392-.784-.915v-8.885c0-.523.392-.915.784-.915.522 0 .783.392.783.915v8.885c.131.523-.261.915-.783.915z"/><path d="m544.143 341.824c-.522 0-.784-.392-.784-.915v-8.885c0-.523.392-.915.784-.915.522 0 .783.392.783.915v8.885c.131.523-.261.915-.783.915z"/><path d="m560.729 341.824c-.523 0-.784-.392-.784-.915v-8.885c0-.523.392-.915.784-.915.522 0 .783.392.783.915v8.885c0 .523-.391.915-.783.915z"/><path d="m577.182 341.824c-.522 0-.784-.392-.784-.915v-8.885c0-.523.392-.915.784-.915.522 0 .783.392.783.915v8.885c.131.523-.261.915-.783.915z"/><path d="m751.379 285.768c-.522 0-.914-.392-.914-.915v-9.931c0-.522.392-.914.914-.914h12.144c.523 0 .914.392.914.914 0 .523-.391.915-.914.915h-11.23v9.147c-.131.522-.522.784-.914.784z"/><path d="m829.075 351.884h-346.045c-.523 0-.784-.392-.784-.915 0-.522.392-.914.784-.914h346.045c.523 0 .915.392.915.914 0 .523-.392.915-.915.915z"/><path d="m567.383 284.983c-.392 0-.784-.392-.784-.784l-.522-9.147c0-.261.131-.523.392-.784l2.089-1.568-3.134-36.325c-.13-3.006-2.089-5.488-4.962-6.142l-12.667-.784c-.261 0-.522-.13-.653-.392l-3.656-4.965c-.261-.392-.13-.915.131-1.176.391-.261.914-.131 1.175.131l3.395 4.704 12.275.784h.131c3.656.784 6.268 3.92 6.398 7.709l3.134 36.717c0 .262-.13.523-.392.784l-2.22 1.568.523 8.624c.261.654-.131 1.046-.653 1.046.13 0 .13 0 0 0z"/><path d="m538.131 285.506c-.522 0-.914-.392-.783-.914l1.959-48.086-4.44-4.442c-1.567-.262-2.742-1.046-3.134-2.222-.261-.653-.523-1.96.783-3.658l8.227-9.016c.131-.131.392-.262.653-.262.131 0 2.22.131 3.395 1.699.784 1.176 1.045 2.613.653 4.573 0 0 0 .131-.131.131-1.044 2.091-4.701 5.357-4.831 5.488-.392.261-.914.261-1.175-.131-.262-.392-.262-.914.13-1.176.914-.784 3.526-3.397 4.309-4.834.262-1.307.131-2.352-.391-3.006-.523-.653-1.306-.914-1.698-1.045l-7.835 8.624c-.392.523-.783 1.307-.522 1.96s1.044 1.045 2.089 1.176c.131 0 .392.131.522.261l4.832 4.835c.131.131.261.392.261.653l-1.959 48.478c-.13.522-.522.914-.914.914z"/><path d="m553.41 284.852c-.261 0-.522-.131-.653-.392-.261-.392-.131-.915.261-1.176l15.54-10.976c.391-.262.914-.131 1.175.261s.13.915-.261 1.176l-15.54 10.976c-.13 0-.261.131-.522.131z"/><path d="m538.656 274.399c-.261 0-.522-.131-.653-.392-.261-.392-.131-.915.261-1.176l17.89-12.413-1.828-6.664c-.131-.392 0-.654.261-.915l11.23-8.755c.392-.261.914-.261 1.176.131.261.392.261.915-.131 1.176l-10.708 8.493 1.828 6.664c.131.392 0 .654-.391.915l-18.413 12.805c-.13.131-.391.131-.522.131z"/><path d="m561.899 284.983c-.523 0-.914-.523-.784-.915l.784-6.011c0-.522.522-.784.914-.784.522 0 .783.523.783.915l-.783 6.011c-.131.522-.523.784-.914.784z"/><path d="m572.084 260.81c-.13 0-.261 0-.392-.13l-3.525-2.222c-.392-.261-.523-.784-.262-1.176.262-.392.784-.522 1.176-.261l2.872 1.829 1.829-2.613c.261-.392.783-.523 1.175-.261.392.261.522.784.261 1.176l-2.35 3.266c-.262.262-.523.392-.784.392z"/><path d="m578.222 251.661c-.13 0-.391 0-.522-.13-.392-.262-.522-.784-.261-1.176l1.959-2.744-6.268-4.443-4.963 6.925c-.261.392-.783.523-1.175.131-.392-.261-.522-.784-.13-1.176l5.484-7.709c.261-.392.784-.523 1.175-.262l7.574 5.358c.392.261.522.784.261 1.176l-2.35 3.528c-.131.392-.392.522-.784.522z"/><path d="m576.263 257.674c-.523 0-1.045-.131-1.567-.523l-.523-.392c-.652-.392-1.044-1.045-1.175-1.829-.13-.784 0-1.568.392-2.221l1.175-1.699c.392-.653 1.045-1.045 1.828-1.176.784-.131 1.567 0 2.22.392l.523.392c1.305.915 1.697 2.613.783 4.051l-1.175 1.698c-.522.784-1.437 1.307-2.481 1.307zm.653-6.141c-.131 0-.131 0-.261 0-.262 0-.523.261-.784.522l-1.175 1.699c-.131.261-.261.523-.131.915 0 .261.261.522.523.784l.522.392c.522.392 1.306.261 1.697-.392l1.176-1.699c.13-.261.261-.523.13-.915 0-.261-.261-.522-.522-.784l-.522-.392c-.131-.13-.392-.13-.653-.13z"/><path d="m571.432 243.951c-.131 0-.392 0-.523-.13l-4.309-3.006c-.392-.261-.522-.784-.261-1.176s.784-.522 1.175-.261l4.31 3.005c.391.262.522.784.261 1.176-.131.262-.392.392-.653.392z"/><path d="m553.41 284.72c-.522 0-.914-.392-.783-.914l1.828-21.038c0-.522.392-.784.914-.784s.784.392.784.915l-1.829 21.037c-.13.392-.391.784-.914.784z"/><path d="m554.979 254.013c-.131 0-.131 0-.261 0-.392-.131-.784-.523-.653-1.046l4.309-17.64c.131-.392.522-.784 1.045-.653.391.131.783.523.653 1.045l-4.31 17.64c0 .392-.391.654-.783.654z"/><path d="m539.569 252.315c-.13 0-.391 0-.522-.13-.392-.262-.392-.784-.131-1.176 1.045-1.307 17.368-21.168 18.152-22.083.261-.392.783-.392 1.175-.131.391.262.392.784.13 1.176-.13.262-17.106 20.646-18.151 21.952-.13.262-.392.392-.653.392z"/><path d="m541.266 218.603c-.391 0-.653-.261-.783-.653l-5.746-18.816c-.13-.392.131-.915.522-1.045.392-.131.914.13 1.045.522l5.746 18.816c.13.392-.131.915-.523 1.046-.13.13-.13.13-.261.13z"/><path d="m535.257 224.223c-.391 0-.783-.262-.783-.654-.914-5.357-4.048-22.866-4.048-23.65 0-.523.392-.915.783-.915.523 0 .784.392.784.784 0 .915 2.481 14.504 4.048 23.389.13.523-.261.915-.653 1.046-.131 0-.131 0-.131 0z"/><path d="m532.779 200.571c-2.22 0-4.049-1.83-4.049-4.051v-2.352c0-2.221 1.829-4.051 4.049-4.051 2.219 0 4.048 1.83 4.048 4.051v2.352c0 2.352-1.829 4.051-4.048 4.051zm0-8.755c-1.306 0-2.351 1.045-2.351 2.352v2.352c0 1.307 1.045 2.352 2.351 2.352 1.305 0 2.35-1.045 2.35-2.352v-2.352c0-1.307-1.045-2.352-2.35-2.352z"/><path d="m537.871 191.424h-10.447c-.522 0-.783-.392-.783-.914v-5.88c0-.523.391-.915.783-.915h10.447c.522 0 .783.392.783.915v5.88c.131.522-.261.914-.783.914zm-9.533-1.698h8.749v-4.182h-8.749z"/><path d="m534.738 184.892c-.13 0-.261 0-.391-.131-.392-.261-.523-.784-.262-1.176 1.306-2.221 1.045-4.442-1.175-7.317-.261.915-.783 1.568-1.306 2.221-.914 1.438-1.697 2.352-.522 4.835.131.392 0 .915-.392 1.176-.391.131-.914 0-1.175-.392-1.436-3.397-.261-4.965.784-6.533.653-1.046 1.305-1.83 1.175-3.267 0-.392.13-.653.522-.784s.653 0 .914.261c2.351 2.614 5.224 6.403 2.612 10.715-.261.261-.522.392-.784.392z"/><path d="m554.846 224.613h-1.697c-2.09 0-3.657-1.698-3.657-3.658v-5.358c0-.261.131-.522.392-.784l3.787-2.352c.261-.13.653-.13.914 0l3.526 2.352c.261.131.391.392.391.654v5.357c.131 2.091-1.567 3.789-3.656 3.789zm-3.656-8.624v4.966c0 1.045.914 1.96 1.959 1.96h1.697c1.045 0 1.959-.915 1.959-1.96v-4.966l-2.742-1.698z"/><path d="m549.887 218.863c-.261 0-.392-.13-.653-.261-.784-.784-1.175-1.96-1.175-3.005v-.915c0-2.744 2.22-5.096 5.092-5.096h1.959c2.742 0 5.093 2.221 5.093 5.096v.915c0 .914-.261 1.698-.784 2.482-.261.392-.783.523-1.175.262-.392-.262-.522-.784-.261-1.176s.522-.915.522-1.568v-.915c0-1.829-1.436-3.397-3.395-3.397h-1.959c-1.828 0-3.395 1.437-3.395 3.397v.915c0 .653.261 1.306.784 1.829.261.392.261.915 0 1.176-.261.131-.392.261-.653.261z"/><path d="m548.579 214.553c-.261 0-.653-.13-.783-.522-.392-.784-.523-1.568-.523-2.352 0-3.267 3.004-6.011 6.791-6.011s6.79 2.613 6.79 6.011c0 .784-.13 1.568-.522 2.221-.261.392-.653.653-1.176.392-.391-.261-.652-.653-.391-1.176s.391-1.045.391-1.568c0-2.352-2.35-4.312-5.092-4.312-2.873 0-5.093 1.96-5.093 4.312 0 .523.131 1.045.392 1.568.261.392 0 .915-.392 1.176-.131.261-.261.261-.392.261z"/><path d="m554.065 207.105c-.523 0-.784-.392-.784-.915v-5.357c0-.523.392-.915.784-.915.522 0 .783.392.783.915v5.357c0 .523-.261.915-.783.915z"/><path d="m550.407 207.889c-.261 0-.522-.131-.653-.392l-2.612-3.659c-.261-.392-.13-.915.131-1.176.392-.261.914-.131 1.175.131l2.612 3.658c.261.392.13.915-.131 1.176-.261.262-.391.262-.522.262z"/><path d="m548.057 210.764c-.131 0-.261 0-.261 0l-4.048-1.568c-.392-.131-.653-.654-.523-1.046.131-.392.653-.653 1.045-.522l4.048 1.568c.392.13.653.653.522 1.045-.13.261-.391.523-.783.523z"/><path d="m557.983 207.887c-.13 0-.392 0-.522-.13-.392-.262-.522-.784-.131-1.176l2.612-3.659c.261-.392.783-.523 1.175-.131.392.262.523.784.131 1.176l-2.612 3.659c-.13.131-.392.261-.653.261z"/><path d="m560.202 210.765c-.392 0-.653-.261-.784-.523-.13-.392 0-.914.523-1.045l4.048-1.568c.391-.131.914 0 1.044.523.131.392 0 .915-.522 1.045l-4.048 1.568c0-.13-.131 0-.261 0z"/><path d="m554.194 213.768c-.523 0-.784-.392-.784-.915v-2.091c0-.522.392-.914.784-.914.522 0 .783.392.783.914v2.091c.131.523-.261.915-.783.915z"/><path d="m550.928 229.186c-.522 0-.783-.392-.783-.915v-5.88c0-.522.391-.914.783-.914.522 0 .784.392.784.914v5.88c.13.523-.262.915-.784.915z"/><path d="m557.459 229.186c-.522 0-.783-.392-.783-.915v-5.88c0-.522.392-.914.783-.914.523 0 .784.392.784.914v5.88c0 .523-.392.915-.784.915z"/><path d="m549.1 229.578c-.131 0-.261 0-.392-.131-2.089-1.307-3.264-3.005-3.526-4.965-.391-3.267 1.829-6.534 3.134-7.84.392-.392.914-.392 1.176 0 .391.392.391.914 0 1.176-1.176 1.176-3.004 3.92-2.743 6.402.131 1.438 1.045 2.744 2.612 3.79.392.261.522.784.261 1.176 0 .261-.261.392-.522.392z"/><path d="m558.504 229.319c-.391 0-.653-.13-.783-.522-.131-.392 0-.915.392-1.176 1.828-.784 2.872-1.96 3.134-3.528.391-2.483-1.437-5.488-2.612-6.272-.392-.262-.392-.784-.131-1.176s.784-.392 1.176-.131c1.305 1.045 3.656 4.573 3.264 7.84-.261 1.568-1.044 3.528-4.048 4.835-.261.13-.261.13-.392.13z"/><path d="m1098.33 351.888h-220.42c-.522 0-.914-.392-.914-.915 0-.522.392-.914.914-.914h220.42c.53 0 .92.392.92.914 0 .523-.39.915-.92.915z"/><path d="m1016.07 234.81h-54.976c-.523 0-.914-.392-.914-.915s.391-.915.914-.915h54.976c.52 0 .91.392.91.915s-.39.915-.91.915z"/><path d="m1016.07 246.048h-54.976c-.523 0-.914-.392-.914-.915 0-.522.391-.914.914-.914h54.976c.52 0 .91.392.91.914 0 .523-.39.915-.91.915z"/><path d="m959.917 285.114c-.131 0-.392 0-.522-.13-.392-.262-.392-.784-.131-1.176l28.728-38.678c.131-.261.392-.392.653-.392s.523.131.653.392l27.812 37.894c.26.392.26.914-.13 1.176-.39.261-.91.261-1.17-.131l-27.165-36.979-28.075 37.763c-.131.131-.392.261-.653.261z"/><path d="m959.917 351.885h-46.487c-.523 0-.914-.392-.914-.915v-17.901c0-.523.391-.915.914-.915.522 0 .914.392.914.915v17.117h44.79v-148.568h-44.79v89.246c0 .522-.392.914-.914.914-.523 0-.914-.392-.914-.914v-90.16c0-.523.391-.915.914-.915h46.487c.523 0 .914.392.914.915v150.266c-.13.523-.522.915-.914.915z"/><path d="m956.912 201.227c-.522 0-.914-.392-.914-.915v-30.053h-38.783v30.053c0 .523-.392.915-.914.915-.523 0-.914-.392-.914-.915v-30.968c0-.522.391-.914.914-.914h40.481c.522 0 .914.392.914.914v30.968c.13.523-.261.915-.784.915z"/><path d="m953.779 169.475c-.523 0-.914-.392-.914-.915v-25.088h-32.646v25.088c0 .523-.392.915-.914.915-.523 0-.914-.392-.914-.915v-26.003c0-.522.391-.784.914-.784h34.343c.522 0 .914.392.914.784v26.003c0 .523-.261.915-.783.915z"/><path d="m950.385 143.603c-.522 0-.914-.392-.914-.784v-20.515h-25.725v20.515c0 .522-.392.784-.914.784s-.914-.392-.914-.784v-21.43c0-.522.392-.784.914-.784h27.423c.522 0 .914.392.914.784v21.43c0 .392-.392.784-.784.784z"/><path d="m946.86 122.175c-.522 0-.914-.392-.914-.784v-17.901h-18.934v17.901c0 .523-.392.784-.914.784-.523 0-.914-.392-.914-.784v-18.685c0-.523.391-.784.914-.784h20.632c.522 0 .914.392.914.784v18.685c.131.392-.261.784-.784.784z"/><path d="m944.638 102.312c-.523 0-.914-.392-.914-.784v-6.9251l-7.183-13.72-7.182 13.72v6.9251c0 .523-.391.784-.914.784-.522 0-.914-.392-.914-.784v-7.1865c0-.1306 0-.2613.131-.392l8.096-15.288c.131-.2613.392-.392.783-.392.262 0 .653.1307.784.392l8.096 15.288c0 .1307.131.2614.131.392v7.1865c0 .392-.392.784-.914.784z"/><path d="m936.672 79.8386c-.522 0-.914-.392-.914-.784v-24.4347c0-.5226.392-.784.914-.784s.914.392.914.784v24.4347c-.131.392-.522.784-.914.784z"/><path d="m936.672 122.043c-.522 0-.914-.392-.914-.784v-18.424c0-.523.392-.784.914-.784s.914.392.914.784v18.424c-.131.392-.522.784-.914.784z"/><path d="m925.441 351.101c-.522 0-.914-.392-.914-.914v-149.222c0-.522.392-.914.914-.914.523 0 .915.392.915.914v149.352c0 .392-.392.784-.915.784z"/><path d="m947.25 351.101c-.522 0-.914-.392-.914-.914v-149.222c0-.522.392-.914.914-.914s.914.392.914.914v149.352c0 .392-.392.784-.914.784z"/><path d="m936.672 200.965c-.522 0-.914-.392-.914-.915v-29.792c0-.522.392-.914.914-.914s.914.392.914.914v29.792c-.131.523-.522.915-.914.915z"/><path d="m925.703 200.965c-.522 0-.914-.392-.914-.915v-29.792c0-.522.392-.914.914-.914s.914.392.914.914v29.792c0 .523-.392.915-.914.915z"/><path d="m942.027 169.867c-.522 0-.914-.392-.914-.915v-26.395c0-.522.392-.784.914-.784.523 0 .914.392.914.784v26.395c0 .523-.391.915-.914.915z"/><path d="m931.188 169.867c-.523 0-.915-.392-.915-.915v-26.395c0-.522.392-.784.915-.784.522 0 .914.392.914.784v26.395c-.131.523-.523.915-.914.915z"/><path d="m942.027 142.688c-.522 0-.914-.392-.914-.784v-20.515c0-.522.392-.784.914-.784.523 0 .914.392.914.784v20.515c0 .392-.391.784-.914.784z"/><path d="m931.188 142.688c-.523 0-.915-.392-.915-.784v-20.515c0-.522.392-.784.915-.784.522 0 .914.392.914.784v20.515c-.131.392-.523.784-.914.784z"/><path d="m947.121 200.965c-.522 0-.914-.392-.914-.915v-29.792c0-.522.392-.914.914-.914s.914.392.914.914v29.792c-.13.523-.522.915-.914.915z"/><path d="m1016.46 314.514c-.52 0-.91-.392-.91-.914v-112.896c0-.523.39-.915.91-.915h46.49c.52 0 .91.392.91.915v64.157c0 .523-.39.915-.91.915s-.92-.392-.92-.915v-63.243h-44.79v112.112c0 .392-.39.784-.78.784z"/><path d="m1060.08 200.835c-.53 0-.92-.392-.92-.915v-29.661h-38.78v29.661c0 .523-.39.915-.92.915-.52 0-.91-.392-.91-.915v-30.576c0-.522.39-.914.91-.914h40.49c.52 0 .91.392.91.914v30.576c0 .523-.39.915-.78.915z"/><path d="m1056.81 169.475c-.52 0-.91-.392-.91-.915v-25.088h-32.65v25.088c0 .523-.39.915-.91.915-.53 0-.92-.392-.92-.915v-26.003c0-.522.39-.784.92-.784h34.34c.52 0 .91.392.91.784v26.003c.13.523-.26.915-.78.915z"/><path d="m1053.42 143.603c-.53 0-.92-.392-.92-.784v-20.515h-25.72v20.515c0 .522-.39.784-.92.784-.52 0-.91-.392-.91-.784v-21.43c0-.522.39-.784.91-.784h27.43c.52 0 .91.392.91.784v21.43c.13.392-.26.784-.78.784z"/><path d="m1050.02 122.175c-.52 0-.91-.392-.91-.784v-17.901h-18.94v17.901c0 .523-.39.784-.91.784s-.92-.392-.92-.784v-18.685c0-.523.4-.784.92-.784h20.63c.52 0 .91.392.91.784v18.685c0 .392-.39.784-.78.784z"/><path d="m1047.8 102.312c-.52 0-.91-.392-.91-.784v-6.9251l-7.18-13.72-7.19 13.72v6.9251c0 .523-.39.784-.91.784s-.91-.392-.91-.784v-7.1865c0-.1306 0-.2613.13-.392l8.09-15.288c.13-.2613.39-.392.79-.392.26 0 .65.1307.78.392l8.1 15.288c0 .1307.13.2614.13.392v7.1865c-.13.392-.53.784-.92.784z"/><path d="m1039.7 79.8386c-.52 0-.91-.392-.91-.784v-24.4347c0-.5226.39-.784.91-.784.53 0 .92.392.92.784v24.4347c0 .392-.39.784-.92.784z"/><path d="m1039.7 122.043c-.52 0-.91-.392-.91-.784v-18.424c0-.523.39-.784.91-.784.53 0 .92.392.92.784v18.424c0 .392-.39.784-.92.784z"/><path d="m1028.61 311.249c-.53 0-.92-.392-.92-.915v-42.466c0-.523.39-.915.92-.915.52 0 .91.392.91.915v42.466c-.13.523-.39.915-.91.915z"/><path d="m1028.61 262.642c-.53 0-.92-.392-.92-.915v-60.89c0-.523.39-.915.92-.915.52 0 .91.392.91.915v60.89c-.13.523-.39.915-.91.915z"/><path d="m1050.41 263.295c-.52 0-.91-.392-.91-.914v-61.544c0-.523.39-.915.91-.915.53 0 .92.392.92.915v61.544c-.13.522-.52.914-.92.914z"/><path d="m1039.7 200.965c-.52 0-.91-.392-.91-.915v-29.792c0-.522.39-.914.91-.914.53 0 .92.392.92.914v29.792c0 .523-.39.915-.92.915z"/><path d="m1028.87 200.965c-.53 0-.92-.392-.92-.915v-29.792c0-.522.39-.914.92-.914.52 0 .91.392.91.914v29.792c-.13.523-.52.915-.91.915z"/><path d="m1045.19 169.867c-.52 0-.92-.392-.92-.915v-26.395c0-.522.4-.784.92-.784s.91.392.91.784v26.395c-.13.523-.52.915-.91.915z"/><path d="m1034.22 169.867c-.52 0-.92-.392-.92-.915v-26.395c0-.522.4-.784.92-.784s.91.392.91.784v26.395c0 .523-.39.915-.91.915z"/><path d="m1045.19 142.688c-.52 0-.92-.392-.92-.784v-20.515c0-.522.4-.784.92-.784s.91.392.91.784v20.515c-.13.392-.52.784-.91.784z"/><path d="m1034.22 142.688c-.52 0-.92-.392-.92-.784v-20.515c0-.522.4-.784.92-.784s.91.392.91.784v20.515c0 .392-.39.784-.91.784z"/><path d="m1050.15 200.965c-.52 0-.91-.392-.91-.915v-29.792c0-.522.39-.914.91-.914s.92.392.92.914v29.792c0 .523-.4.915-.92.915z"/><path d="m101.723 345.093c-.523 0-.784-.392-.784-.915v-75.525c-4.9619 2.613-24.027 15.68-28.8586 59.714 0 .523-.5223.784-.9141.784-.5223 0-.7835-.522-.7835-.914 5.6151-51.483 30.1652-61.283 31.0792-61.675.261-.131.522 0 .783.131.261.13.392.392.392.653v76.963c0 .392-.392.784-.914.784z"/><path d="m39.6976 351.103c-.5224 0-.7835-.392-.7835-.915 0-30.315 13.3195-61.152 30.4259-70.168.2611-.131.5223-.131.7835 0 .2611.131.3917.392.3917.784v46.125c0 .523-.3917.915-.7835.915-.5223 0-.7835-.392-.7835-.915v-44.688c-15.9311 9.67-28.3366 39.07-28.3366 68.078 0 .392-.3917.784-.914.784z"/><path d="m31.4692 351.102c-.3917 0-.6529-.131-.7835-.523 0-.131-4.9621-11.76-8.3573-18.032-.1306-.261-.1306-.523 0-.784s.3918-.392.7835-.392c5.4845 0 13.4501 1.96 17.6288 5.357.3917.262.3917.784.1305 1.176-.2611.392-.7835.392-1.1752.131-3.3952-2.744-10.1855-4.573-15.1477-4.965 3.3952 6.664 7.7044 16.856 7.835 16.986.1306.392 0 .915-.3917 1.176-.3918-.13-.5224-.13-.5224-.13z"/><path d="m42.5707 351.101h-.1306c-.5223-.131-.7835-.523-.6529-.915 1.9587-12.283 5.7457-22.997 10.3161-28.616.1306-.261.3917-.261.6529-.261 16.8452.914 35.7798 19.73 42.4396 28.616.2611.392.2611.914-.1306 1.176-.3918.261-.9141.261-1.1753-.131-7.835-10.715-26.1166-26.787-40.742-27.832-3.3951 4.312-7.5738 13.72-9.6631 27.44-.1306.261-.5224.523-.9141.523z"/><path d="m48.1826 352.018c-.2612 0-.5223-.131-.6529-.262-.2612-.392-.2612-.914.1306-1.176.3917-.392 1.0446-1.045 1.9587-1.829 4.0481-4.051 12.536-12.544 23.505-12.544h.3918c4.048 0 10.969 2.352 14.8865 5.749.3917.262.3917.784.1305 1.176-.2611.392-.7835.392-1.1752.131-3.6563-3.136-10.0549-5.357-13.8418-5.357-.1306 0-.2612 0-.2612 0-10.1855 0-18.4123 8.101-22.3298 12.021-.7835.784-1.567 1.437-1.9587 1.96-.3918 0-.6529.131-.7835.131z"/><path d="m69.8597 293.871h-.1305c-.5224-.131-.7835-.523-.653-1.046 4.0481-18.032 16.4535-33.842 20.8934-36.586.2611-.131.6529-.131.9141 0 .2611.261.3917.522.2611.914-1.9587 7.318-3.3951 15.811-4.1786 23.782 0 .522-.5224.784-.9141.784-.5224 0-.7835-.392-.7835-.915.6529-7.187 1.9587-14.765 3.5257-21.56-5.0927 4.965-14.7559 18.947-18.1511 33.973 0 .392-.3917.654-.7835.654z"/><path d="m87.3599 273.355h-.1306c-.3917-.13-.7835-.522-.6529-1.045 2.7422-11.76 11.6219-19.731 14.7556-21.821.261-.131.653-.131.914 0 .262.13.392.392.392.784v18.554c0 .523-.392.915-.783.915-.523 0-.784-.392-.784-.915v-16.986c-3.6562 2.874-10.4465 9.93-12.6664 19.861-.2612.392-.653.653-1.0447.653z"/><path d="m129.147 308.505c-.391 0-.783-.261-.783-.653-8.619-32.667-26.117-39.592-26.378-39.723-.392-.13-.653-.653-.522-1.045.13-.392.653-.653 1.044-.523.784.262 18.413 7.318 27.292 40.899.131.392-.13.915-.653 1.045.131 0 .131 0 0 0z"/><path d="m134.369 313.86c-.522 0-.783-.392-.783-.914v-32.275c0-.261.131-.523.392-.784.261-.131.522-.131.783 0 8.096 4.312 15.409 13.328 21.024 25.872.131.392 0 .915-.392 1.176-.391.131-.914 0-1.175-.392-5.093-11.629-11.752-19.992-19.065-24.304v30.837c0 .523-.392.784-.784.784z"/><path d="m134.11 293.867c-.392 0-.784-.261-.784-.653-3.395-15.027-13.058-28.878-18.151-33.974 1.698 6.795 2.873 14.374 3.526 21.56 0 .523-.261.915-.784.915-.522 0-.914-.261-.914-.784-.783-8.101-2.22-16.464-4.178-23.781-.131-.392 0-.654.261-.915s.653-.261.914 0c4.44 2.744 16.845 18.685 20.893 36.587.131.522-.13.914-.653 1.045 0 0 0 0-.13 0z"/><path d="m116.743 273.354c-.392 0-.784-.261-.784-.653-2.611-11.237-10.969-18.816-13.972-20.776-.392-.261-.522-.784-.261-1.176s.783-.523 1.175-.261c3.134 2.09 12.014 10.061 14.756 21.821.13.392-.131.915-.653 1.045-.261 0-.261 0-.261 0z"/><path d="m55.4983 351.755c-.5223 0-.7835-.392-.7835-.914v-6.403c0-.523.3918-.915.7835-.915.5224 0 .7835.392.7835.915v6.403c0 .522-.3917.914-.7835.914z"/><path d="m62.6819 351.754c-.5223 0-.7835-.392-.7835-.915v-10.323c0-.522.3918-.914.7835-.914.5224 0 .7835.392.7835.914v10.323c.1306.523-.2611.915-.7835.915z"/><path d="m69.9944 351.754c-.5223 0-.7835-.392-.7835-.915v-12.936c0-.523.3918-.915.7835-.915.3918 0 .7835.392.7835.915v12.936c0 .523-.3917.915-.7835.915z"/><path d="m77.3069 351.752c-.5223 0-.7835-.392-.7835-.914v-12.544c0-.523.3918-.915.7835-.915.5224 0 .7835.392.7835.915v12.544c0 .522-.3917.914-.7835.914z"/><path d="m84.4866 351.752c-.5223 0-.7835-.392-.7835-.914v-9.931c0-.523.3918-.915.7835-.915.5224 0 .7835.392.7835.915v9.931c.1306.522-.2611.914-.7835.914z"/><path d="m501.572 303.932c-.392 0-.784-.261-.784-.653-1.698-8.885-3.134-18.032-4.179-27.048 0-.523.262-.915.784-.915s.914.262.914.784c1.045 9.016 2.35 18.032 4.179 26.787.13.523-.262.915-.653 1.045-.131 0-.261 0-.261 0z"/><path d="m481.594 304.061h-.13c-.523-.131-.784-.523-.653-1.045 1.697-8.886 3.134-18.032 4.178-27.048 0-.523.523-.784.914-.784.523 0 .784.522.784.914-1.045 9.147-2.481 18.294-4.179 27.179-.13.523-.392.784-.914.784z"/><path d="m462.919 303.41c-.131 0-.261 0-.261 0-.392-.131-.653-.653-.522-1.045 3.525-8.494 6.529-17.248 9.01-26.134.13-.392.653-.653 1.044-.653.392.131.653.653.653 1.045-2.481 9.016-5.484 17.771-9.01 26.395-.261.261-.522.392-.914.392z"/><path d="m478.067 261.334h-.131c-.522-.131-.783-.523-.653-.915l.261-1.437c3.787-23.52 7.444-69.384 7.183-89.376 0-.523.391-.915.783-.915s.914.392.914.784c.261 19.992-3.526 66.118-7.182 89.638l-.261 1.437c-.131.523-.522.784-.914.784z"/><path d="m505.098 261.596c-.391 0-.783-.262-.783-.654-3.787-23.65-7.704-71.474-7.443-91.336 0-.522.391-.914.914-.784.522 0 .783.392.783.915-.261 19.731 3.657 67.424 7.444 91.075.13.522-.262.914-.653.914-.131-.13-.262-.13-.262-.13z"/><path d="m513.456 286.031c-.392 0-.653-.262-.784-.654-.653-1.96-1.436-4.965-2.089-7.317l-.522-2.091c-.131-.392.13-.914.653-1.045.391-.131.914.131 1.044.653l.523 2.091c.652 2.352 1.436 5.357 2.089 7.187.13.392-.131.914-.522 1.045-.131.131-.262.131-.392.131z"/><path d="m512.802 345.486c-.392 0-.653-.262-.784-.523-.653-2.091-1.306-3.92-1.828-5.619-1.959-6.272-3.395-10.714-7.182-14.504-1.828-1.568-5.354-2.874-7.704-3.397-.392-.131-.784-.523-.653-1.045.13-.392.522-.784 1.044-.654 2.612.654 6.268 2.091 8.488 3.79 4.179 4.181 5.615 8.754 7.705 15.288.522 1.698 1.175 3.658 1.828 5.618.13.392-.131.915-.523 1.046-.13 0-.261 0-.391 0z"/><path d="m470.231 351.234h-.131c-.522-.131-.783-.523-.653-1.045 1.176-5.75 3.396-15.811 3.918-17.379 1.959-6.533 7.835-12.021 14.625-13.589.522-.131.914.13 1.045.653.13.392-.131.915-.653 1.045-6.007 1.438-11.491 6.534-13.32 12.414-.391 1.306-2.611 11.106-3.787 17.117-.391.392-.652.784-1.044.784z"/><path d="m513.064 304.454h-56.804c-.522 0-.783-.392-.783-.914 0-.523.391-.915.783-.915h56.804c.522 0 .783.392.783.915 0 .522-.261.914-.783.914z"/><path d="m489.167 321.048h-32.907c-.522 0-.783-.392-.783-.915 0-.522.391-.914.783-.914h32.907c.522 0 .784.392.784.914 0 .523-.392.915-.784.915z"/><path d="m512.411 321.048h-17.237c-.522 0-.783-.392-.783-.915 0-.522.391-.914.783-.914h17.237c.522 0 .784.392.784.914 0 .523-.262.915-.784.915z"/><path d="m511.104 276.361h-38.914c-.523 0-.784-.392-.784-.915v-14.504c0-.523.392-.915.784-.915h38.914c.522 0 .783.392.783.915v14.504c0 .523-.392.915-.783.915zm-38.131-1.699h37.216v-12.805h-37.216z"/><path d="m512.672 310.072h-56.412c-.522 0-.783-.392-.783-.915s.391-.915.783-.915h56.412c.522 0 .784.392.784.915s-.392.915-.784.915z"/><path d="m510.843 267.345h-38.392c-.522 0-.783-.392-.783-.915 0-.522.392-.914.783-.914h38.392c.522 0 .783.392.783.914 0 .523-.261.915-.783.915z"/><path d="m491.647 261.727c-.523 0-.784-.392-.784-.915v-90.682c0-.523.392-.915.784-.915.522 0 .783.392.783.915v90.682c0 .523-.391.915-.783.915z"/><path d="m499.875 169.997h-16.845c-.523 0-.784-.392-.784-.914v-14.766c0-4.05 3.265-7.317 7.313-7.317h3.787c4.048 0 7.312 3.267 7.312 7.317v14.766c0 .522-.261.914-.783.914zm-15.931-1.698h15.147v-13.982c0-3.136-2.481-5.618-5.615-5.618h-3.917c-3.134 0-5.615 2.482-5.615 5.618z"/><path d="m499.351 156.146h-15.931c-.522 0-.783-.392-.783-.784 0-.523.391-.784.783-.784h15.931c.523 0 .784.392.784.784.13.392-.261.784-.784.784z"/><path d="m491.518 147.916c-.522 0-.784-.392-.784-.784v-13.067c0-.522.392-.784.784-.784.522 0 .783.392.783.784v13.067c0 .392-.391.784-.783.784z"/><path d="m833.903 126.485h-44.79c-.522 0-.914-.392-.914-.784v-42.8584c0-.5227.392-.784.914-.784h44.79c.523 0 .914.392.914.784v42.8584c-.13.392-.522.784-.914.784zm-44.006-1.698h43.092v-41.1604h-43.092z"/><path d="m791.984 241.34c-.522 0-.914-.392-.914-.915v-114.856c0-.523.392-.784.914-.784.523 0 .914.392.914.784v114.856c-.13.523-.522.915-.914.915z"/><path d="m830.898 241.34c-.522 0-.914-.392-.914-.915v-114.856c0-.523.392-.784.914-.784.523 0 .914.392.914.784v114.856c0 .523-.391.915-.914.915z"/><path d="m830.902 83.1022c-.523 0-.914-.392-.914-.784v-10.3227h-37.347v10.3227c0 .5227-.392.784-.914.784-.523 0-.915-.392-.915-.784v-11.2373c0-.5227.392-.784.915-.784h39.044c.522 0 .914.392.914.784v11.2373c.131.392-.261.784-.783.784z"/><path d="m821.628 53.1812c-.522 0-.914-.392-.914-.784v-12.4134h-18.804v12.2827c0 .5227-.392.784-.914.784s-.914-.392-.914-.784v-13.1973c0-.5227.392-.784.914-.784h20.502c.522 0 .914.392.914.784v13.1973c.13.5227-.261.9147-.784.9147z"/><path d="m830.898 71.606c-.261 0-.653-.1306-.783-.5226l-8.88-17.1174h-19.849l-8.879 17.1174c-.262.392-.784.5227-1.176.392-.391-.2613-.522-.784-.391-1.176l9.14-17.64c.131-.2614.392-.5227.784-.5227h20.893c.261 0 .653.1307.784.5227l9.141 17.64c.261.392 0 .9147-.392 1.176-.131 0-.261.1306-.392.1306z"/><path d="m811.443 119.038c-8.096 0-14.755-6.664-14.755-14.765 0-8.1012 6.659-14.7652 14.755-14.7652 8.097 0 14.756 6.664 14.756 14.7652 0 8.101-6.659 14.765-14.756 14.765zm0-27.8315c-7.182 0-13.058 5.88-13.058 13.0665 0 7.187 5.876 13.067 13.058 13.067s13.059-5.88 13.059-13.067c0-7.1865-5.877-13.0665-13.059-13.0665z"/><path d="m811.702 105.317c-.13 0-.391 0-.522-.131l-3.787-2.613c-.392-.262-.522-.784-.261-1.176s.783-.523 1.175-.262l3.265 2.222 5.615-4.835c.392-.2614.914-.2614 1.175.1306s.261.9147-.13 1.176l-6.138 5.2264c0 .131-.261.262-.392.262z"/><path d="m821.498 39.7225c-.392 0-.653-.2614-.784-.5227l-9.271-28.224-9.272 28.224c-.13.392-.653.6533-1.044.5227-.392-.1307-.653-.6534-.523-1.0454l10.055-30.70663c.261-.65333 1.437-.65333 1.567 0l10.055 30.70663c.131.392-.13.9147-.522 1.0454-.131 0-.131 0-.261 0z"/><path d="m811.441 9.016c-.522 0-.914-.39201-.914-.78401v-7.447992c0-.522667.392-.783998.914-.783998.523 0 .915.391998.915.783998v7.317332c0 .52267-.392.91467-.915.91467z"/><path d="m791.984 70.5613c-.522 0-.914-.392-.914-.784v-8.4933c0-.5227.392-.784.914-.784.523 0 .914.392.914.784v8.4933c-.13.392-.522.784-.914.784z"/><path d="m830.898 70.5613c-.522 0-.914-.392-.914-.784v-8.4933c0-.5227.392-.784.914-.784.523 0 .914.392.914.784v8.4933c0 .392-.391.784-.914.784z"/><path d="m829.596 155.103h-36.955c-.523 0-.914-.392-.914-.784s.391-.784.914-.784h36.955c.522 0 .914.392.914.784s-.523.784-.914.784z"/><path d="m829.596 183.454h-36.955c-.523 0-.914-.392-.914-.914 0-.523.391-.915.914-.915h36.955c.522 0 .914.392.914.915-.131.522-.523.914-.914.914z"/><path d="m829.596 211.81h-36.955c-.523 0-.914-.392-.914-.915s.391-.915.914-.915h36.955c.522 0 .914.392.914.915-.131.523-.523.915-.914.915z"/><path d="m800.734 153.795c-.522 0-.914-.392-.914-.784v-18.293c0-.523.392-.784.914-.784.523 0 .915.392.915.784v18.293c-.131.392-.523.784-.915.784z"/><path d="m807.918 153.795c-.522 0-.914-.392-.914-.784v-18.293c0-.523.392-.784.914-.784s.914.392.914.784v18.293c-.13.392-.522.784-.914.784z"/><path d="m814.969 153.795c-.523 0-.914-.392-.914-.784v-18.293c0-.523.391-.784.914-.784.522 0 .914.392.914.784v18.293c0 .392-.392.784-.914.784z"/><path d="m822.148 153.795c-.522 0-.914-.392-.914-.784v-18.293c0-.523.392-.784.914-.784.523 0 .915.392.915.784v18.293c0 .392-.392.784-.915.784z"/><path d="m800.734 79.0518c-.522 0-.914-.392-.914-.784v-1.6986c0-.5227.392-.784.914-.784.523 0 .915.392.915.784v1.6986c-.131.392-.523.784-.915.784z"/><path d="m807.918 79.0518c-.522 0-.914-.392-.914-.784v-1.6986c0-.5227.392-.784.914-.784s.914.392.914.784v1.6986c-.13.392-.522.784-.914.784z"/><path d="m814.969 79.0518c-.523 0-.914-.392-.914-.784v-1.6986c0-.5227.391-.784.914-.784.522 0 .914.392.914.784v1.6986c0 .392-.392.784-.914.784z"/><path d="m822.148 79.0518c-.522 0-.914-.392-.914-.784v-1.6986c0-.5227.392-.784.914-.784.523 0 .915.392.915.784v1.6986c0 .392-.392.784-.915.784z"/><path d="m804.262 67.1612c-.523 0-.914-.392-.914-.784v-1.6987c0-.5226.391-.784.914-.784.522 0 .914.392.914.784v1.6987c0 .392-.392.784-.914.784z"/><path d="m811.445 67.1612c-.522 0-.914-.392-.914-.784v-1.6987c0-.5226.392-.784.914-.784.523 0 .914.392.914.784v1.6987c0 .392-.391.784-.914.784z"/><path d="m818.625 67.1612c-.522 0-.914-.392-.914-.784v-1.6987c0-.5226.392-.784.914-.784s.914.392.914.784v1.6987c-.13.392-.522.784-.914.784z"/><path d="m807.918 60.4971c-.522 0-.914-.392-.914-.784v-1.6986c0-.5227.392-.784.914-.784s.914.392.914.784v1.6986c-.13.392-.522.784-.914.784z"/><path d="m814.969 60.4971c-.523 0-.914-.392-.914-.784v-1.6986c0-.5227.391-.784.914-.784.522 0 .914.392.914.784v1.6986c0 .392-.392.784-.914.784z"/><path d="m800.734 182.019c-.522 0-.914-.392-.914-.914v-18.294c0-.522.392-.784.914-.784.523 0 .915.392.915.784v18.294c-.131.522-.523.914-.915.914z"/><path d="m807.918 182.019c-.522 0-.914-.392-.914-.914v-18.294c0-.522.392-.784.914-.784s.914.392.914.784v18.294c-.13.522-.522.914-.914.914z"/><path d="m814.969 182.019c-.523 0-.914-.392-.914-.914v-18.294c0-.522.391-.784.914-.784.522 0 .914.392.914.784v18.294c0 .522-.392.914-.914.914z"/><path d="m822.148 182.019c-.522 0-.914-.392-.914-.914v-18.294c0-.522.392-.784.914-.784.523 0 .915.392.915.784v18.294c0 .522-.392.914-.915.914z"/><path d="m800.734 210.111c-.522 0-.914-.392-.914-.915v-18.293c0-.523.392-.915.914-.915.523 0 .915.392.915.915v18.293c-.131.523-.523.915-.915.915z"/><path d="m807.918 210.111c-.522 0-.914-.392-.914-.915v-18.293c0-.523.392-.915.914-.915s.914.392.914.915v18.293c-.13.523-.522.915-.914.915z"/><path d="m814.969 210.111c-.523 0-.914-.392-.914-.915v-18.293c0-.523.391-.915.914-.915.522 0 .914.392.914.915v18.293c0 .523-.392.915-.914.915z"/><path d="m822.148 210.111c-.522 0-.914-.392-.914-.915v-18.293c0-.523.392-.915.914-.915.523 0 .915.392.915.915v18.293c0 .523-.392.915-.915.915z"/><path d="m800.734 226.839c-.522 0-.914-.392-.914-.915v-6.794c0-.523.392-.915.914-.915.523 0 .915.392.915.915v6.794c-.131.523-.523.915-.915.915z"/><path d="m807.918 226.839c-.522 0-.914-.392-.914-.915v-6.794c0-.523.392-.915.914-.915s.914.392.914.915v6.794c-.13.523-.522.915-.914.915z"/><path d="m814.969 226.839c-.523 0-.914-.392-.914-.915v-6.794c0-.523.391-.915.914-.915.522 0 .914.392.914.915v6.794c0 .523-.392.915-.914.915z"/><path d="m822.148 226.839c-.522 0-.914-.392-.914-.915v-6.794c0-.523.392-.915.914-.915.523 0 .915.392.915.915v6.794c0 .523-.392.915-.915.915z"/><path d="m830.245 227.228h-38.261c-.522 0-.914-.392-.914-.915s.392-.915.914-.915h38.261c.523 0 .914.392.914.915-.13.523-.522.915-.914.915z"/><path d="m609.693 93.0357h-47.924c-4.701 0-8.488-3.7893-8.488-8.4933s3.787-8.4933 8.488-8.4933c1.045 0 1.959.1306 2.873.5226 1.567-3.528 5.093-5.7493 9.01-5.7493 1.045 0 2.22.1307 3.134.5227.653-4.0507 4.179-7.056 8.358-7.056 3.917 0 7.312 2.6133 8.226 6.4026 1.176-.5226 2.351-.6533 3.526-.6533 4.309 0 7.966 2.8747 9.01 6.9253 1.176-.5226 2.351-.784 3.657-.784 4.701 0 8.488 3.7894 8.488 8.4934.13 4.5733-3.657 8.3626-8.358 8.3626zm-47.924-15.1573c-3.787 0-6.79 3.0053-6.79 6.7947 0 3.7893 3.003 6.7946 6.79 6.7946h47.924c3.787 0 6.791-3.0053 6.791-6.7946 0-3.7894-3.004-6.7947-6.791-6.7947-1.306 0-2.611.392-3.787 1.176-.261.1306-.522.1307-.783.1307-.261-.1307-.392-.392-.522-.6534-.523-3.7893-3.787-6.664-7.574-6.664-1.306 0-2.612.392-3.787 1.0454-.261.1306-.523.1306-.784 0-.261-.1307-.391-.392-.522-.6534-.392-3.3973-3.265-6.0106-6.66-6.0106-3.656 0-6.66 2.8746-6.79 6.664 0 .2613-.131.5226-.392.6533s-.522.1307-.783 0c-1.176-.5227-2.351-.784-3.526-.784-3.526 0-6.66 2.2213-7.835 5.488-.131.2613-.261.392-.522.5227-.262.1306-.523.1306-.653 0-.914-.6534-1.959-.9147-3.004-.9147z"/><path d="m897.63 71.4754h-35.258c-3.656 0-6.79-3.0054-6.79-6.664 0-3.6587 3.003-6.664 6.79-6.664.523 0 .914 0 1.437.1306 1.436-3.528 4.962-5.88 8.749-5.88.914 0 1.828.1307 2.612.3921.391-5.488 4.962-9.9307 10.577-9.9307 5.876 0 10.708 4.8346 10.708 10.584 0 .392 0 .784-.131 1.176.392 0 .784-.1307 1.175-.1307 4.701 0 8.488 3.7894 8.488 8.4934.131 4.704-3.656 8.4933-8.357 8.4933zm-35.258-11.76c-2.742 0-4.962 2.2213-4.962 5.096 0 2.8746 2.22 5.096 4.962 5.096h35.258c3.787 0 6.79-3.0054 6.79-6.7947s-3.003-6.7947-6.79-6.7947c-.653 0-1.306.1307-1.959.2614-.261.1306-.653 0-.783-.1307-.262-.2613-.262-.5227-.262-.784.131-.6533.262-1.4373.262-2.0907 0-4.9653-4.048-9.016-8.88-9.016-4.962 0-8.88 4.0507-8.88 9.016v.2614.1306c0 .2614-.13.5227-.391.7841-.262.1306-.523.2613-.784.1306-1.045-.392-2.089-.6533-3.134-.6533-3.395 0-6.399 2.2213-7.443 5.488-.131.2613-.261.392-.392.5226-.261.1307-.392.1307-.653 0-.914-.392-1.436-.5226-1.959-.5226z"/><path d="m156.963 224.617h-28.99c-3.917 0-7.051-3.136-7.051-7.056s3.134-7.056 7.051-7.056h.784c0-.261 0-.522 0-.784 0-4.965 4.048-8.885 8.88-8.885 4.701 0 8.487 3.528 8.879 8.101.653-.13 1.306-.261 2.09-.261 3.264 0 6.006 1.829 7.312 4.704 3.526-.784 6.791 2.091 6.791 5.619-.131 3.136-2.612 5.618-5.746 5.618zm-28.99-12.544c-3.003 0-5.354 2.483-5.354 5.358 0 2.874 2.482 5.357 5.354 5.357h28.99c2.22 0 3.917-1.829 3.917-3.92 0-2.221-1.828-3.92-3.917-3.92-.392 0-.914.131-1.306.261-.261.131-.392 0-.653 0-.261-.13-.392-.261-.392-.522-.783-2.614-3.264-4.312-6.006-4.312-.915 0-1.698.13-2.482.522-.261.131-.522.131-.783-.13-.261-.131-.392-.392-.392-.784v-.131c0-.131 0-.131 0-.261 0-3.92-3.264-7.187-7.182-7.187-3.917 0-7.182 3.267-7.182 7.187 0 .522.131 1.045.261 1.698.131.262 0 .654-.261.784-.261.262-.522.262-.783.131-.784 0-1.306-.131-1.829-.131z"/><path d="m1145.09 132.233h-33.56c-3.53 0-6.53-2.875-6.53-6.533 0-3.528 2.74-6.403 6.26-6.534.79-3.528 3.79-6.272 7.45-6.533 1.04-4.573 5.09-7.84 9.79-7.84 4.57 0 8.62 3.136 9.66 7.579 4.18.653 7.32 4.312 7.32 8.624 2.87.261 5.22 2.613 5.22 5.618 0 3.136-2.48 5.619-5.61 5.619zm-33.56-11.237c-2.62 0-4.84 2.221-4.84 4.834 0 2.614 2.22 4.835 4.84 4.835h33.56c2.22 0 3.91-1.829 3.91-3.92 0-2.221-1.83-3.92-3.91-3.92-.14 0-.14 0-.27 0h-.13c-.26 0-.52 0-.65-.261-.13-.131-.26-.392-.26-.654 0-.261 0-.522 0-.784 0-3.658-2.74-6.664-6.4-6.925-.39 0-.65-.261-.78-.653-.79-3.92-4.18-6.795-8.1-6.795-4.05 0-7.57 3.005-8.23 7.056 0 .392-.39.653-.91.784-3.39 0-6.27 2.483-6.53 5.88 0 .523-.52.784-.91.784h-.26c0-.261 0-.261-.13-.261z"/><path d="m326.849 136.938h-39.175c-4.048 0-7.444-3.398-7.444-7.448 0-4.051 3.265-7.318 7.313-7.448.784-4.182 4.44-7.318 8.749-7.579 1.045-5.227 5.876-9.147 11.23-9.147s9.925 3.659 11.231 8.755c4.831.784 8.487 4.835 8.487 9.931v.13c3.396.131 6.138 3.006 6.138 6.403-.131 3.528-3.004 6.403-6.529 6.403zm-39.175-13.198c-3.134 0-5.746 2.614-5.746 5.75s2.612 5.749 5.746 5.749h39.175c2.611 0 4.701-2.091 4.701-4.704s-2.09-4.704-4.701-4.704c-.131 0-.131 0-.261 0h-.262c-.261 0-.522 0-.653-.261-.13-.131-.261-.392-.261-.654 0-.261 0-.653 0-.914 0-4.312-3.264-7.84-7.574-8.232-.391 0-.652-.262-.783-.654-.914-4.573-4.962-7.97-9.663-7.97-4.832 0-9.01 3.658-9.663 8.493 0 .392-.392.653-.914.784-4.049 0-7.444 3.005-7.835 6.925 0 .523-.523.784-.915.784h-.261c0-.392 0-.392-.13-.392z"/><path d="m1293.56 185.025h-19.2c-3.52 0-6.53-2.875-6.53-6.534 0-3.658 2.87-6.533 6.53-6.533.26 0 .65 0 .92.131.39-4.182 3.91-7.448 8.22-7.448 4.57 0 8.23 3.658 8.23 8.232v.261c.52-.131 1.17-.261 1.83-.261 3.39 0 6.13 2.744 6.13 6.141-.13 3.267-2.87 6.011-6.13 6.011zm-19.2-11.368c-2.61 0-4.83 2.221-4.83 4.834 0 2.614 2.22 4.835 4.83 4.835h19.2c2.35 0 4.31-1.96 4.31-4.312s-1.96-4.312-4.31-4.312c-.79 0-1.7.261-2.35.653-.26.131-.66.131-.92 0-.26-.261-.39-.522-.39-.914.13-.523.13-1.046.13-1.568 0-3.659-3-6.534-6.53-6.534-3.52 0-6.53 3.006-6.53 6.534v.261c0 .261-.13.523-.39.653-.26.131-.52.262-.78.131-.52-.131-.92-.261-1.44-.261z"/><path d="m749.419 173.655h-19.196c-3.395 0-6.137-2.744-6.137-6.141s2.742-6.141 6.137-6.141c.653 0 1.176.13 1.829.261 0-.131 0-.131 0-.261 0-4.574 3.656-8.232 8.226-8.232 4.31 0 7.835 3.266 8.227 7.448.261 0 .653-.131.914-.131 3.526 0 6.529 2.875 6.529 6.533 0 3.79-3.003 6.664-6.529 6.664zm-19.196-10.453c-2.35 0-4.309 1.96-4.309 4.443 0 2.352 1.959 4.312 4.309 4.312h19.196c2.612 0 4.832-2.222 4.832-4.835s-2.22-4.835-4.832-4.835c-.522 0-.914.131-1.436.262-.261.13-.523 0-.784-.131s-.392-.392-.392-.653v-.131c0-3.789-2.872-6.664-6.529-6.664-3.656 0-6.529 3.005-6.529 6.533 0 .523 0 1.046.131 1.568.13.392 0 .654-.392.915-.261.261-.653.261-.914 0-.653-.523-1.437-.784-2.351-.784z"/><path d="m351.53 112.636h-13.581c-2.481 0-4.57-2.091-4.57-4.573 0-2.483 2.089-4.574 4.57-4.574.392 0 .653 0 1.045.131 0-3.267 2.742-6.0106 6.137-6.0106 3.134 0 5.615 2.352 6.007 5.2266 2.873-.261 5.354 1.96 5.354 4.835 0 2.744-2.22 4.965-4.962 4.965zm-13.581-7.448c-1.567 0-2.872 1.307-2.872 2.875s1.305 2.874 2.872 2.874h13.581c1.698 0 3.134-1.437 3.134-3.136 0-1.698-1.436-3.136-3.134-3.136-.261 0-.653 0-1.045.131-.261.131-.522 0-.783-.131-.261-.13-.392-.392-.392-.653l.784-.131h-.784c0-2.482-1.959-4.4423-4.44-4.4423s-4.44 1.9603-4.44 4.4423c0 .392 0 .654.131 1.046s0 .653-.392.914c-.261.262-.653.262-.914 0-.261-.522-.783-.653-1.306-.653z"/><path d="m1251.77 218.083h-22.59c-.52 0-.91-.392-.91-.914 0-.523.39-.915.91-.915h22.59c.52 0 .91.392.91.915 0 .522-.52.914-.91.914z"/><path d="m1264.83 212.072h-27.03c-.53 0-.92-.392-.92-.915s.39-.915.92-.915h27.03c.52 0 .91.392.91.915s-.52.915-.91.915z"/><path d="m1283.11 212.072h-11.36c-.52 0-.91-.392-.91-.915s.39-.915.91-.915h11.36c.52 0 .91.392.91.915s-.52.915-.91.915z"/><path d="m1269.14 218.083h-7.84c-.52 0-.91-.392-.91-.914 0-.523.39-.915.91-.915h7.84c.52 0 .91.392.91.915 0 .522-.39.914-.91.914z"/><path d="m1296.95 218.083h-21.81c-.52 0-.91-.392-.91-.914 0-.523.39-.915.91-.915h21.81c.52 0 .92.392.92.915 0 .522-.4.914-.92.914z"/><path d="m149.648 123.611h-10.447c-.522 0-.783-.392-.783-.784s.392-.784.783-.784h10.447c.522 0 .784.392.784.784s-.392.784-.784.784z"/><path d="m162.707 117.47h-14.756c-.522 0-.783-.392-.783-.784s.392-.784.783-.784h14.756c.523 0 .784.392.784.784s-.392.784-.784.784z"/><path d="m173.545 117.47h-3.918c-.522 0-.783-.392-.783-.784s.392-.784.783-.784h3.918c.522 0 .783.392.783.784s-.261.784-.783.784z"/><path d="m167.017 123.611h-7.835c-.522 0-.784-.392-.784-.784s.392-.784.784-.784h7.835c.522 0 .783.392.783.784s-.261.784-.783.784z"/><path d="m187.519 123.611h-14.364c-.523 0-.784-.392-.784-.784s.392-.784.784-.784h14.364c.522 0 .783.392.783.784s-.392.784-.783.784z"/><path d="m1234.8 105.318h-10.45c-.52 0-.91-.392-.91-.784s.39-.784.91-.784h10.45c.52 0 .91.392.91.784s-.52.784-.91.784z"/><path d="m1226.05 99.1774h-14.76c-.52 0-.91-.392-.91-.784s.39-.784.91-.784h14.76c.52 0 .91.392.91.784s-.39.784-.91.784z"/><path d="m1204.24 99.1774h-3.92c-.52 0-.91-.392-.91-.784s.39-.784.91-.784h3.92c.52 0 .92.392.92.784s-.4.784-.92.784z"/><path d="m1214.69 105.318h-7.84c-.52 0-.91-.392-.91-.784s.39-.784.91-.784h7.84c.52 0 .91.392.91.784s-.39.784-.91.784z"/><path d="m1200.84 105.318h-14.36c-.52 0-.91-.392-.91-.784s.39-.784.91-.784h14.36c.53 0 .92.392.92.784s-.52.784-.92.784z"/><path d="m697.575 82.5836h-22.591c-.522 0-.914-.392-.914-.784s.392-.784.914-.784h22.591c.523 0 .914.392.914.784s-.391.784-.914.784z"/><path d="m710.632 76.0485h-27.03c-.523 0-.914-.392-.914-.784s.391-.784.914-.784h27.03c.523 0 .914.392.914.784s-.391.784-.914.784z"/><path d="m732.833 76.0485h-15.278c-.523 0-.914-.392-.914-.784s.391-.784.914-.784h15.278c.522 0 .914.392.914.784s-.392.784-.914.784z"/><path d="m732.834 82.5836h-25.725c-.522 0-.914-.392-.914-.784s.392-.784.914-.784h25.725c.523 0 .914.392.914.784s-.391.784-.914.784z"/><path d="m755.945 82.5836h-13.058c-.523 0-.914-.392-.914-.784s.391-.784.914-.784h13.058c.522 0 .914.392.914.784s-.392.784-.914.784z"/><path d="m937.197 35.2828h-14.756c-.522 0-.914-.3919-.914-.7839s.392-.7841.914-.7841h14.756c.523 0 .914.3921.914.7841s-.391.7839-.914.7839z"/><path d="m946.468 28.7477h-32.515c-.522 0-.914-.392-.914-.784s.392-.784.914-.784h32.515c.523 0 .914.392.914.784s-.391.784-.914.784z"/><path d="m977.677 28.7477h-24.157c-.523 0-.915-.392-.915-.784s.392-.784.915-.784h24.157c.523 0 .915.392.915.784s-.523.784-.915.784z"/><path d="m967.883 35.2828h-21.024c-.522 0-.914-.3919-.914-.7839s.392-.7841.914-.7841h21.024c.523 0 .914.3921.914.7841s-.522.7839-.914.7839z"/><path d="m995.569 35.2828h-19.979c-.522 0-.914-.3919-.914-.7839s.392-.7841.914-.7841h19.979c.522 0 .914.3921.914.7841s-.392.7839-.914.7839z"/><path d="m384.177 163.205h-33.038c-.522 0-.784-.392-.784-.784s.392-.784.784-.784h33.038c.522 0 .783.392.783.784s-.261.784-.783.784z"/><path d="m396.842 157.064h-35.258c-.522 0-.783-.392-.783-.784s.392-.784.783-.784h35.258c.522 0 .783.392.783.784s-.261.784-.783.784z"/><path d="m422.046 157.064h-18.282c-.522 0-.784-.392-.784-.784s.392-.784.784-.784h18.282c.522 0 .783.392.783.784s-.261.784-.783.784z"/><path d="m408.206 163.205h-17.368c-.522 0-.783-.392-.783-.784s.391-.784.783-.784h17.368c.522 0 .783.392.783.784s-.391.784-.783.784z"/><path d="m445.549 163.205h-31.34c-.522 0-.783-.392-.783-.784s.391-.784.783-.784h31.34c.523 0 .784.392.784.784s-.261.784-.784.784z"/><path d="m429.099 150.529h-30.948c-.523 0-.784-.392-.784-.784s.392-.784.784-.784h30.948c.522 0 .783.392.783.784s-.391.784-.783.784z"/><path d="m389.398 150.529h-19.587c-.523 0-.784-.392-.784-.784s.392-.784.784-.784h19.587c.523 0 .784.392.784.784s-.261.784-.784.784z"/><path d="m1410.56 335.551c-5.35 0-9.66-10.453-9.66-23.781s4.31-23.782 9.66-23.782c5.36 0 9.66 10.454 9.66 23.782s-4.3 23.781-9.66 23.781zm0-45.733c-3.79 0-7.96 8.885-7.96 21.952 0 13.066 4.17 21.952 7.96 21.952s7.97-8.886 7.97-21.952c0-13.067-4.18-21.952-7.97-21.952z"/><path d="m1410.56 351.883c-.52 0-.91-.392-.91-.915v-30.053c0-.523.39-.915.91-.915s.92.392.92.915v30.184c-.13.392-.53.784-.92.784z"/><path d="m909.772 335.551c-5.353 0-9.663-10.453-9.663-23.781s4.31-23.782 9.663-23.782c5.354 0 9.664 10.454 9.664 23.782s-4.31 23.781-9.664 23.781zm0-45.733c-3.786 0-7.965 8.885-7.965 21.952 0 13.066 4.179 21.952 7.965 21.952 3.787 0 7.966-8.886 7.966-21.952 0-13.067-4.179-21.952-7.966-21.952z"/><path d="m909.773 351.883c-.522 0-.914-.392-.914-.915v-30.053c0-.523.392-.915.914-.915.523 0 .915.392.915.915v30.184c-.131.392-.523.784-.915.784z"/><path d="m568.429 335.551c-5.354 0-9.663-10.453-9.663-23.781s4.309-23.782 9.663-23.782 9.663 10.454 9.663 23.782-4.179 23.781-9.663 23.781zm0-45.733c-3.787 0-7.966 8.885-7.966 21.952 0 13.066 4.179 21.952 7.966 21.952s7.965-8.886 7.965-21.952c0-13.067-4.048-21.952-7.965-21.952z"/><path d="m568.428 351.883c-.522 0-.783-.392-.783-.915v-30.053c0-.523.391-.915.783-.915.522 0 .784.392.784.915v30.184c.13.392-.262.784-.784.784z"/><path d="m349.309 341.564c-4.179 0-6.399-7.84-6.399-15.288s2.22-15.288 6.399-15.288c4.178 0 6.398 7.84 6.398 15.288s-2.22 15.288-6.398 15.288zm0-28.746c-2.22 0-4.701 5.618-4.701 13.589s2.481 13.589 4.701 13.589 4.701-5.618 4.701-13.589-2.481-13.589-4.701-13.589z"/><path d="m349.307 351.885c-.522 0-.784-.392-.784-.914v-18.947c0-.523.392-.915.784-.915.522 0 .783.392.783.915v18.947c0 .522-.391.914-.783.914z"/><path d="m1007.45 341.564c-4.18 0-6.4-7.84-6.4-15.288s2.22-15.288 6.4-15.288 6.4 7.84 6.4 15.288-2.22 15.288-6.4 15.288zm0-28.746c-2.22 0-4.7 5.618-4.7 13.589s2.48 13.589 4.7 13.589 4.7-5.618 4.7-13.589-2.48-13.589-4.7-13.589z"/><path d="m1007.45 351.885c-.52 0-.91-.392-.91-.914v-18.947c0-.523.39-.915.91-.915s.91.392.91.915v18.947c-.13.522-.52.914-.91.914z"/><path d="m322.801 337.25c-3.264 0-7.051-3.136-7.051-18.032 0-18.555 6.137-26.526 6.399-26.918.13-.13.391-.261.652-.261.262 0 .523.131.653.261.262.262 6.399 6.795 6.399 26.918 0 14.896-3.787 18.032-7.052 18.032zm.131-42.99c-1.567 2.614-5.354 10.454-5.354 24.827 0 10.453 1.959 16.333 5.354 16.333s5.354-6.01 5.354-16.333c-.131-15.288-3.787-22.475-5.354-24.827z"/><path d="m322.803 351.883c-.522 0-.783-.392-.783-.915v-30.053c0-.523.391-.915.783-.915.522 0 .784.392.784.915v30.184c.13.392-.262.784-.784.784z"/><path d="m1436.02 340.256c-2.74 0-7.31-1.829-7.31-14.373 0-14.765 6.4-21.168 6.66-21.429.26-.262.78-.262 1.05 0 .26.261 6.79 5.488 6.79 21.429 0 12.544-4.57 14.373-7.19 14.373zm0-33.973c-1.56 1.829-5.61 8.101-5.61 19.6 0 8.232 1.96 12.675 5.61 12.675 3.66 0 5.62-4.574 5.62-12.675-.13-12.283-4.18-17.901-5.62-19.6z"/><path d="m1436.02 351.884c-.52 0-.91-.392-.91-.915v-23.781c0-.523.39-.915.91-.915.53 0 .92.392.92.915v23.781c-.13.523-.52.915-.92.915z"/><path d="m991.648 335.552h-20.24c-.261 0-.522-.131-.653-.262-.131-.13-.261-.392-.131-.653l10.055-56.187c.131-.392.392-.653.784-.653s.783.261.783.653l10.055 56.187c0 .261 0 .523-.13.653 0 .131-.262.262-.523.262zm-19.195-1.699h18.151l-9.141-50.568z"/><path d="m981.461 350.969c-.522 0-.914-.392-.914-.915v-28.354c0-.523.392-.915.914-.915s.914.392.914.915v28.354c0 .523-.392.915-.914.915z"/><path d="m498.697 341.041h-13.059c-.261 0-.522-.131-.653-.262-.13-.261-.261-.522-.13-.653l6.529-31.883c.131-.392.392-.653.784-.653.391 0 .783.261.783.653l6.529 31.883c0 .261 0 .523-.13.653-.131.131-.392.262-.653.262zm-12.014-1.699h10.969l-5.484-26.787z"/><path d="m492.166 350.97c-.522 0-.783-.392-.783-.914v-18.294c0-.522.392-.914.783-.914.523 0 .784.392.784.914v18.294c0 .522-.261.914-.784.914z"/><path d="m1396.98 351.492h-.13c-.39-.131-.78-.523-.65-1.046.13-.392.13-.653.13-.914 0-1.699-1.05-3.267-2.48-3.528-.27 0-.53-.262-.66-.523-.78-2.613-3.13-4.181-5.48-3.659-.26 0-.52 0-.66-.13-.26-.131-.26-.392-.39-.654-.13-4.312-3.13-7.84-6.79-7.84-3.65 0-6.66 3.528-6.79 7.71 0 .261-.13.522-.26.653s-.39.261-.65.131c-.26 0-.52-.131-.65-.131-1.96 0-3.79 1.437-4.58 3.659-.13.392-.39.653-.91.522h-.13c-1.7 0-3 1.568-3 3.528 0 .262 0 .523.13.915s-.13.915-.66 1.045c-.52.131-.91-.13-1.04-.653s-.13-.915-.13-1.307c0-2.744 1.96-5.096 4.31-5.226 1.04-2.614 3.39-4.312 6.01-4.312.52-4.835 4.04-8.494 8.48-8.494s7.97 3.659 8.49 8.494c2.74-.131 5.22 1.698 6.4 4.442 1.96.654 3.39 2.614 3.39 5.096 0 .392 0 .784-.13 1.307-.39.653-.78.915-1.17.915z"/><path d="m1080.97 351.492h-.13c-.4-.131-.79-.523-.66-1.046.13-.392.13-.653.13-.914 0-1.699-1.04-3.267-2.48-3.528-.26 0-.52-.262-.65-.523-.78-2.613-3.13-4.181-5.48-3.659-.27 0-.53 0-.66-.13-.26-.131-.26-.392-.39-.654-.13-4.312-3.13-7.84-6.79-7.84s-6.66 3.528-6.79 7.71c0 .261-.13.522-.26.653s-.39.261-.65.131c-.26 0-.53-.131-.66-.131-1.96 0-3.78 1.437-4.57 3.659-.13.392-.39.653-.91.522h-.13c-1.7 0-3 1.568-3 3.528 0 .262 0 .523.13.915s-.13.915-.66 1.045c-.52.131-.91-.13-1.04-.653s-.13-.915-.13-1.307c0-2.744 1.96-5.096 4.31-5.226 1.04-2.614 3.39-4.312 6-4.312.53-4.835 4.05-8.494 8.49-8.494s7.97 3.659 8.49 8.494c2.74-.131 5.22 1.698 6.4 4.442 1.96.654 3.39 2.614 3.39 5.096 0 .392 0 .784-.13 1.307-.39.653-.78.915-1.17.915z"/><path d="m176.288 351.492h-.131c-.392-.131-.783-.523-.653-1.046.131-.392.131-.653.131-.914 0-1.699-1.045-3.267-2.481-3.528-.262 0-.523-.262-.653-.523-.653-2.221-2.481-3.789-4.571-3.789-.261 0-.653 0-.914.13-.261 0-.522 0-.653-.13-.261-.131-.261-.392-.391-.654-.131-4.312-3.134-7.84-6.791-7.84-3.656 0-6.66 3.528-6.79 7.71 0 .261-.131.522-.261.653-.131.131-.392.261-.653.131-.261 0-.523-.131-.653-.131-1.959 0-3.787 1.437-4.571 3.659-.13.392-.522.653-.914.522h-.13c-1.698 0-3.004 1.568-3.004 3.528 0 .262 0 .523.131.915s-.131.915-.653 1.045c-.522.131-.914-.13-1.045-.653-.13-.523-.13-.915-.13-1.307 0-2.744 1.959-5.096 4.309-5.226 1.045-2.614 3.395-4.312 6.007-4.312.522-4.835 4.048-8.494 8.488-8.494s7.965 3.659 8.488 8.494c2.742-.131 5.223 1.698 6.398 4.442 1.959.654 3.395 2.614 3.395 5.096 0 .392 0 .784-.13 1.307-.392.653-.784.915-1.175.915z"/><path d="m160.618 346.396c-.261 0-.522-.131-.783-.392l-3.004-4.965c-.261-.392-.13-.915.261-1.176.392-.262.914-.131 1.176.261l3.003 4.965c.261.392.131.915-.261 1.176 0 .131-.261.131-.392.131z"/><path d="m159.31 343.655c-.131 0-.392 0-.522-.131-.392-.261-.523-.784-.261-1.176l2.089-3.005c.261-.392.783-.523 1.175-.262.392.262.522.784.261 1.176l-2.089 3.006c-.131.261-.392.392-.653.392z"/></g></svg>