<svg width="157" height="116" viewBox="0 0 157 116" fill="none" xmlns="http://www.w3.org/2000/svg">
<g clip-path="url(#clip0_333_574)">
<path d="M66.9288 78.6601C66.9288 78.6601 87.7787 76.1569 95.0762 72.1935C102.374 68.23 156.584 66.3526 156.584 78.6601C156.584 90.9677 94.2422 96.3913 94.2422 96.3913L61.5078 94.5139L66.9288 78.6601Z" fill="#FBBEBE"/>
<path opacity="0.1" d="M66.9288 78.6601C66.9288 78.6601 87.7787 76.1569 95.0762 72.1935C102.374 68.23 156.584 66.3526 156.584 78.6601C156.584 90.9677 94.2422 96.3913 94.2422 96.3913L61.5078 94.5139L66.9288 78.6601Z" fill="black"/>
<path d="M72.9748 76.3666L68.5963 89.0913L0 89.9257V71.1515C0 71.1515 26.2709 65.102 47.1208 78.0354C47.1208 78.0354 71.7238 75.1149 72.9748 76.3666Z" fill="#F5B400"/>
<path opacity="0.1" d="M72.9748 76.3431L68.5963 89.0679L0 89.9023V71.1281C0 71.1281 26.2709 65.0786 47.1208 78.0119C47.1208 78.0119 71.7238 75.0915 72.9748 76.3431Z" fill="black"/>
<path d="M151.403 71.0444C151.403 71.7553 149.809 72.2831 149.653 72.969C149.497 73.6492 150.444 74.6836 150.144 75.3333C149.835 75.9975 149.469 76.6341 149.051 77.236C148.658 77.7983 147.446 77.7162 146.949 78.2435C146.462 78.7223 145.946 79.1709 145.405 79.5866C144.877 80.0255 144.163 80.1176 143.563 80.5217C142.993 80.9058 143.062 82.3151 142.431 82.6649C141.828 82.9992 140.905 82.7303 140.251 83.0308C139.623 83.3192 139.292 84.3624 138.621 84.6175C137.974 84.8635 137.173 84.7576 136.489 84.9707C135.827 85.1769 135.086 85.1434 134.392 85.3171C133.718 85.4857 133.203 86.4962 132.502 86.6325C131.82 86.7652 131.019 86.4111 130.313 86.5117C129.623 86.6099 128.821 85.7367 128.112 85.8028C127.418 85.8675 126.763 86.2717 126.052 86.3044C125.355 86.3364 124.666 86.6436 123.954 86.6436C123.243 86.6436 122.509 87.3111 121.812 87.2791C121.101 87.2465 120.457 86.2347 119.763 86.17C119.054 86.1039 118.207 87.1608 117.518 87.0626C116.812 86.962 116.252 85.9275 115.569 85.7948C114.868 85.6585 113.963 86.3979 113.289 86.2292C112.595 86.0556 112.183 84.8521 111.521 84.6458C110.836 84.4327 109.988 84.7214 109.341 84.4753C108.67 84.2202 107.852 84.2612 107.225 83.9727C106.571 83.6722 106.101 82.9612 105.498 82.6268C104.867 82.277 104.577 81.4093 104.006 81.0251C103.406 80.621 102.492 80.6726 101.965 80.2336C101.408 79.7702 100.364 79.746 99.8945 79.2474C99.3974 78.7201 99.1962 77.8347 98.8037 77.2724C98.3904 76.6801 99.2016 75.4281 98.9131 74.8021C98.6136 74.1526 97.3615 73.8887 97.2062 73.2086C97.046 72.4982 96.9637 71.7725 96.9609 71.0444C96.9609 70.3334 98.0317 69.79 98.1884 69.1042C98.3438 68.424 97.5557 67.447 97.8553 66.7973C98.1439 66.1713 98.1071 65.2091 98.5205 64.6168C98.913 64.0545 99.8925 63.8341 100.39 63.3068C100.86 62.8083 101.701 62.6692 102.258 62.2058C102.785 61.767 102.718 60.4433 103.318 60.0393C103.888 59.6551 104.685 59.4798 105.315 59.13C105.918 58.7957 106.771 58.852 107.425 58.5515C108.053 58.2631 109.036 58.8314 109.707 58.5763C110.354 58.3303 110.879 57.7926 111.564 57.5795C112.226 57.3733 112.537 55.8005 113.231 55.6268C113.905 55.4582 114.734 55.7381 115.435 55.6019C116.118 55.4691 117.036 56.71 117.743 56.6095C118.432 56.5113 118.948 54.8547 119.657 54.7886C120.352 54.7239 121.135 55.5819 121.846 55.5493C122.543 55.5173 123.243 56.02 123.954 56.02C124.666 56.02 125.374 55.33 126.071 55.362C126.782 55.3947 127.409 56.3065 128.104 56.3712C128.813 56.4373 129.684 55.0504 130.374 55.1486C131.08 55.2491 131.626 56.3212 132.308 56.4539C133.01 56.5902 133.888 55.9246 134.562 56.0932C135.256 56.2669 135.673 57.4064 136.335 57.6126C137.02 57.8257 137.441 58.6296 138.088 58.8756C138.76 59.1308 140.006 57.937 140.634 58.2255C141.288 58.526 141.853 59.046 142.456 59.3803C143.087 59.7302 144.089 59.5543 144.66 59.9385C145.26 60.3426 145.407 61.4273 145.935 61.8662C146.492 62.3297 147.41 62.4692 147.88 62.9678C148.377 63.4951 148.446 64.44 148.839 65.0023C149.252 65.5945 149.239 66.4151 149.528 67.041C149.827 67.6906 150.627 68.1818 150.782 68.862C150.939 69.5476 151.403 70.3336 151.403 71.0444Z" fill="#3F3D56"/>
<path d="M76.3101 84.0832C76.3101 84.0832 99.8705 71.9843 115.091 76.5735C130.311 81.1628 151.578 73.2359 154.08 75.9477C156.582 78.6595 160.127 107.864 130.103 109.533C100.079 111.202 74.4336 104.526 74.4336 104.526L76.3101 84.0832Z" fill="#FBBEBE"/>
<path d="M70.7623 82.7973C70.7623 82.7973 80.0637 82.2084 79.6467 85.546C79.2297 88.8836 78.8127 114.75 76.3108 115.376C73.8088 116.002 54.0013 116.002 45.8699 116.002H0V76.0102C0 76.0102 32.5259 74.0729 48.7888 82.2084C48.7888 82.2084 68.3414 81.9259 70.7623 82.7973Z" fill="#FFC801"/>
<path d="M114.337 20.2422C113.448 20.2924 112.591 20.5893 111.861 21.0997C111.132 21.61 110.559 22.3136 110.206 23.1315C109.174 25.6293 110.503 28.5633 112.5 30.3847C114.496 32.2061 117.06 33.2472 119.39 34.6156C122.52 36.4537 125.332 39.0052 126.898 42.2805C128.464 45.5558 128.63 49.6129 126.79 52.7419C125.081 55.6461 121.975 57.3843 119.012 58.9874" stroke="#3F3D56" stroke-miterlimit="10"/>
<path d="M122.677 5.01562C121.788 5.06585 120.931 5.36278 120.201 5.87313C119.472 6.38347 118.899 7.08704 118.546 7.90497C117.514 10.4027 118.843 13.3367 120.84 15.1581C122.836 16.9795 125.4 18.0206 127.73 19.3891C130.86 21.2271 133.672 23.7786 135.238 27.0539C136.803 30.3292 136.97 34.3863 135.129 37.5153C133.421 40.4195 130.315 42.1577 127.352 43.7608" stroke="#3F3D56" stroke-miterlimit="10"/>
<path d="M150.096 8.5157C149.363 8.01107 148.503 7.72083 147.614 7.67754C146.725 7.63425 145.841 7.83962 145.062 8.27061C142.717 9.61308 141.974 12.7475 142.438 15.4104C142.902 18.0733 144.292 20.4672 145.297 22.9762C146.647 26.3464 147.31 30.0863 146.544 33.6351C145.778 37.184 143.427 40.4941 140.057 41.8409C136.929 43.091 133.409 42.5628 130.086 42.0158" stroke="#3F3D56" stroke-miterlimit="10"/>
<path d="M125.934 39.9962C128.697 39.9962 130.938 38.9075 130.938 37.5645C130.938 36.2215 128.697 35.1328 125.934 35.1328C123.17 35.1328 120.93 36.2215 120.93 37.5645C120.93 38.9075 123.17 39.9962 125.934 39.9962Z" fill="#57B894"/>
<path d="M125.309 39.5783C128.072 39.5783 130.313 38.4895 130.313 37.1466C130.313 35.8036 128.072 34.7148 125.309 34.7148C122.545 34.7148 120.305 35.8036 120.305 37.1466C120.305 38.4895 122.545 39.5783 125.309 39.5783Z" stroke="#3F3D56" stroke-miterlimit="10"/>
<path d="M136.777 37.9103C139.541 37.9103 141.781 36.8216 141.781 35.4786C141.781 34.1356 139.541 33.0469 136.777 33.0469C134.014 33.0469 131.773 34.1356 131.773 35.4786C131.773 36.8216 134.014 37.9103 136.777 37.9103Z" fill="#57B894"/>
<path d="M136.149 37.4923C138.912 37.4923 141.152 36.4036 141.152 35.0606C141.152 33.7176 138.912 32.6289 136.149 32.6289C133.385 32.6289 131.145 33.7176 131.145 35.0606C131.145 36.4036 133.385 37.4923 136.149 37.4923Z" stroke="#3F3D56" stroke-miterlimit="10"/>
<path d="M138.445 47.09C141.209 47.09 143.449 46.0013 143.449 44.6583C143.449 43.3153 141.209 42.2266 138.445 42.2266C135.682 42.2266 133.441 43.3153 133.441 44.6583C133.441 46.0013 135.682 47.09 138.445 47.09Z" fill="#57B894"/>
<path d="M137.816 46.672C140.58 46.672 142.82 45.5833 142.82 44.2403C142.82 42.8973 140.58 41.8086 137.816 41.8086C135.053 41.8086 132.812 42.8973 132.812 44.2403C132.812 45.5833 135.053 46.672 137.816 46.672Z" stroke="#3F3D56" stroke-miterlimit="10"/>
<path d="M137.402 24.1447C140.166 24.1447 142.406 23.056 142.406 21.713C142.406 20.37 140.166 19.2812 137.402 19.2812C134.639 19.2812 132.398 20.37 132.398 21.713C132.398 23.056 134.639 24.1447 137.402 24.1447Z" fill="#57B894"/>
<path d="M136.777 23.7267C139.541 23.7267 141.781 22.638 141.781 21.295C141.781 19.952 139.541 18.8633 136.777 18.8633C134.014 18.8633 131.773 19.952 131.773 21.295C131.773 22.638 134.014 23.7267 136.777 23.7267Z" stroke="#3F3D56" stroke-miterlimit="10"/>
<path d="M124.891 22.6837C127.654 22.6837 129.895 21.595 129.895 20.252C129.895 18.909 127.654 17.8203 124.891 17.8203C122.127 17.8203 119.887 18.909 119.887 20.252C119.887 21.595 122.127 22.6837 124.891 22.6837Z" fill="#57B894"/>
<path d="M124.266 22.2658C127.029 22.2658 129.27 21.177 129.27 19.8341C129.27 18.4911 127.029 17.4023 124.266 17.4023C121.502 17.4023 119.262 18.4911 119.262 19.8341C119.262 21.177 121.502 22.2658 124.266 22.2658Z" stroke="#3F3D56" stroke-miterlimit="10"/>
<path d="M130.52 17.4689C133.283 17.4689 135.524 16.3802 135.524 15.0372C135.524 13.6942 133.283 12.6055 130.52 12.6055C127.756 12.6055 125.516 13.6942 125.516 15.0372C125.516 16.3802 127.756 17.4689 130.52 17.4689Z" fill="#57B894"/>
<path d="M129.895 17.0509C132.658 17.0509 134.899 15.9622 134.899 14.6192C134.899 13.2762 132.658 12.1875 129.895 12.1875C127.131 12.1875 124.891 13.2762 124.891 14.6192C124.891 15.9622 127.131 17.0509 129.895 17.0509Z" stroke="#3F3D56" stroke-miterlimit="10"/>
<path d="M142.82 18.5119C145.584 18.5119 147.824 17.4231 147.824 16.0801C147.824 14.7372 145.584 13.6484 142.82 13.6484C140.057 13.6484 137.816 14.7372 137.816 16.0801C137.816 17.4231 140.057 18.5119 142.82 18.5119Z" fill="#57B894"/>
<path d="M142.195 18.0939C144.959 18.0939 147.199 17.0052 147.199 15.6622C147.199 14.3192 144.959 13.2305 142.195 13.2305C139.432 13.2305 137.191 14.3192 137.191 15.6622C137.191 17.0052 139.432 18.0939 142.195 18.0939Z" stroke="#3F3D56" stroke-miterlimit="10"/>
<path d="M151.996 25.3947C154.76 25.3947 157 24.306 157 22.963C157 21.62 154.76 20.5312 151.996 20.5312C149.233 20.5312 146.992 21.62 146.992 22.963C146.992 24.306 149.233 25.3947 151.996 25.3947Z" fill="#57B894"/>
<path d="M151.371 24.9767C154.135 24.9767 156.375 23.888 156.375 22.545C156.375 21.202 154.135 20.1133 151.371 20.1133C148.608 20.1133 146.367 21.202 146.367 22.545C146.367 23.888 148.608 24.9767 151.371 24.9767Z" stroke="#3F3D56" stroke-miterlimit="10"/>
<path d="M119.68 13.297C122.443 13.297 124.684 12.2083 124.684 10.8653C124.684 9.52231 122.443 8.43359 119.68 8.43359C116.916 8.43359 114.676 9.52231 114.676 10.8653C114.676 12.2083 116.916 13.297 119.68 13.297Z" fill="#57B894"/>
<path d="M119.055 12.879C121.818 12.879 124.059 11.7903 124.059 10.4473C124.059 9.10434 121.818 8.01562 119.055 8.01562C116.291 8.01562 114.051 9.10434 114.051 10.4473C114.051 11.7903 116.291 12.879 119.055 12.879Z" stroke="#3F3D56" stroke-miterlimit="10"/>
<path d="M122.805 5.36732C125.568 5.36732 127.809 4.27861 127.809 2.93561C127.809 1.59262 125.568 0.503906 122.805 0.503906C120.041 0.503906 117.801 1.59262 117.801 2.93561C117.801 4.27861 120.041 5.36732 122.805 5.36732Z" fill="#57B894"/>
<path d="M122.18 4.95326C124.943 4.95326 127.184 3.86455 127.184 2.52155C127.184 1.17856 124.943 0.0898438 122.18 0.0898438C119.416 0.0898438 117.176 1.17856 117.176 2.52155C117.176 3.86455 119.416 4.95326 122.18 4.95326Z" stroke="#3F3D56" stroke-miterlimit="10"/>
<path d="M151.789 11.2111C154.553 11.2111 156.793 10.1224 156.793 8.77936C156.793 7.43637 154.553 6.34766 151.789 6.34766C149.026 6.34766 146.785 7.43637 146.785 8.77936C146.785 10.1224 149.026 11.2111 151.789 11.2111Z" fill="#57B894"/>
<path d="M151.16 10.7931C153.924 10.7931 156.164 9.70439 156.164 8.36139C156.164 7.0184 153.924 5.92969 151.16 5.92969C148.397 5.92969 146.156 7.0184 146.156 8.36139C146.156 9.70439 148.397 10.7931 151.16 10.7931Z" stroke="#3F3D56" stroke-miterlimit="10"/>
<path d="M105.711 30.4025C108.475 30.4025 110.715 29.3138 110.715 27.9708C110.715 26.6278 108.475 25.5391 105.711 25.5391C102.947 25.5391 100.707 26.6278 100.707 27.9708C100.707 29.3138 102.947 30.4025 105.711 30.4025Z" fill="#57B894"/>
<path d="M105.082 29.9845C107.846 29.9845 110.086 28.8958 110.086 27.5528C110.086 26.2098 107.846 25.1211 105.082 25.1211C102.318 25.1211 100.078 26.2098 100.078 27.5528C100.078 28.8958 102.318 29.9845 105.082 29.9845Z" stroke="#3F3D56" stroke-miterlimit="10"/>
<path d="M123.016 29.1486C125.779 29.1486 128.02 28.0599 128.02 26.7169C128.02 25.3739 125.779 24.2852 123.016 24.2852C120.252 24.2852 118.012 25.3739 118.012 26.7169C118.012 28.0599 120.252 29.1486 123.016 29.1486Z" fill="#57B894"/>
<path d="M122.391 28.7345C125.154 28.7345 127.395 27.6458 127.395 26.3028C127.395 24.9598 125.154 23.8711 122.391 23.8711C119.627 23.8711 117.387 24.9598 117.387 26.3028C117.387 27.6458 119.627 28.7345 122.391 28.7345Z" stroke="#3F3D56" stroke-miterlimit="10"/>
<path d="M145.742 31.0275C148.506 31.0275 150.746 29.9388 150.746 28.5958C150.746 27.2528 148.506 26.1641 145.742 26.1641C142.979 26.1641 140.738 27.2528 140.738 28.5958C140.738 29.9388 142.979 31.0275 145.742 31.0275Z" fill="#57B894"/>
<path d="M145.117 30.6095C147.881 30.6095 150.121 29.5208 150.121 28.1778C150.121 26.8348 147.881 25.7461 145.117 25.7461C142.354 25.7461 140.113 26.8348 140.113 28.1778C140.113 29.5208 142.354 30.6095 145.117 30.6095Z" stroke="#3F3D56" stroke-miterlimit="10"/>
<path d="M133.649 31.8634C136.412 31.8634 138.652 30.7747 138.652 29.4317C138.652 28.0887 136.412 27 133.649 27C130.885 27 128.645 28.0887 128.645 29.4317C128.645 30.7747 130.885 31.8634 133.649 31.8634Z" fill="#57B894"/>
<path d="M133.024 31.4454C135.787 31.4454 138.027 30.3567 138.027 29.0137C138.027 27.6707 135.787 26.582 133.024 26.582C130.26 26.582 128.02 27.6707 128.02 29.0137C128.02 30.3567 130.26 31.4454 133.024 31.4454Z" stroke="#3F3D56" stroke-miterlimit="10"/>
<path d="M134.481 11.0001C137.244 11.0001 139.485 9.91142 139.485 8.56843C139.485 7.22543 137.244 6.13672 134.481 6.13672C131.717 6.13672 129.477 7.22543 129.477 8.56843C129.477 9.91142 131.717 11.0001 134.481 11.0001Z" fill="#57B894"/>
<path d="M133.856 10.5861C136.619 10.5861 138.86 9.49736 138.86 8.15436C138.86 6.81137 136.619 5.72266 133.856 5.72266C131.092 5.72266 128.852 6.81137 128.852 8.15436C128.852 9.49736 131.092 10.5861 133.856 10.5861Z" stroke="#3F3D56" stroke-miterlimit="10"/>
<path d="M113.008 23.9337C115.772 23.9337 118.012 22.845 118.012 21.502C118.012 20.159 115.772 19.0703 113.008 19.0703C110.244 19.0703 108.004 20.159 108.004 21.502C108.004 22.845 110.244 23.9337 113.008 23.9337Z" fill="#57B894"/>
<path d="M112.383 23.5158C115.147 23.5158 117.387 22.427 117.387 21.0841C117.387 19.7411 115.147 18.6523 112.383 18.6523C109.619 18.6523 107.379 19.7411 107.379 21.0841C107.379 22.427 109.619 23.5158 112.383 23.5158Z" stroke="#3F3D56" stroke-miterlimit="10"/>
<path d="M115.926 33.3204C118.689 33.3204 120.93 32.2317 120.93 30.8887C120.93 29.5457 118.689 28.457 115.926 28.457C113.162 28.457 110.922 29.5457 110.922 30.8887C110.922 32.2317 113.162 33.3204 115.926 33.3204Z" fill="#57B894"/>
<path d="M115.301 32.9064C118.064 32.9064 120.305 31.8177 120.305 30.4747C120.305 29.1317 118.064 28.043 115.301 28.043C112.537 28.043 110.297 29.1317 110.297 30.4747C110.297 31.8177 112.537 32.9064 115.301 32.9064Z" stroke="#3F3D56" stroke-miterlimit="10"/>
<g opacity="0.3">
<path d="M116.038 47.4946C116.745 46.2301 116.874 44.9569 116.326 44.6509C115.779 44.3448 114.763 45.1218 114.056 46.3863C113.35 47.6507 113.221 48.9239 113.768 49.2299C114.316 49.536 115.332 48.759 116.038 47.4946Z" fill="#57B894"/>
<path d="M115.71 47.686C116.417 46.4215 116.546 45.1483 115.998 44.8423C115.451 44.5362 114.435 45.3132 113.728 46.5777C113.022 47.8421 112.893 49.1153 113.44 49.4213C113.988 49.7274 115.004 48.9504 115.71 47.686Z" stroke="#3F3D56" stroke-miterlimit="10"/>
</g>
<g opacity="0.3">
<path d="M142.125 53.5543C142.543 53.0868 142.007 51.9248 140.929 50.9587C139.85 49.9927 138.636 49.5885 138.218 50.056C137.8 50.5234 138.336 51.6855 139.414 52.6515C140.493 53.6175 141.707 54.0217 142.125 53.5543Z" fill="#57B894"/>
<path d="M142.012 53.191C142.43 52.7235 141.894 51.5615 140.815 50.5954C139.737 49.6294 138.523 49.2252 138.105 49.6927C137.687 50.1601 138.222 51.3222 139.301 52.2882C140.38 53.2543 141.594 53.6584 142.012 53.191Z" stroke="#3F3D56" stroke-miterlimit="10"/>
</g>
<g opacity="0.3">
<path d="M118.773 40.4136C119.192 39.9462 118.656 38.7841 117.577 37.8181C116.498 36.8521 115.285 36.4479 114.867 36.9153C114.448 37.3828 114.984 38.5448 116.063 39.5109C117.142 40.4769 118.355 40.8811 118.773 40.4136Z" fill="#57B894"/>
<path d="M118.66 40.0504C119.078 39.5829 118.543 38.4208 117.464 37.4548C116.385 36.4888 115.171 36.0846 114.753 36.552C114.335 37.0195 114.871 38.1816 115.95 39.1476C117.028 40.1136 118.242 40.5178 118.66 40.0504Z" stroke="#3F3D56" stroke-miterlimit="10"/>
</g>
</g>
<defs>
<clipPath id="clip0_333_574">
<rect width="157" height="116" fill="white"/>
</clipPath>
</defs>
</svg>
