<svg width="207" height="154" viewBox="0 0 207 154" fill="none" xmlns="http://www.w3.org/2000/svg">
<g clip-path="url(#clip0_333_293)">
<path d="M70.4593 108.18C79.4006 108.18 86.649 100.941 86.649 92.01C86.649 83.0795 79.4006 75.8398 70.4593 75.8398C61.5179 75.8398 54.2695 83.0795 54.2695 92.01C54.2695 100.941 61.5179 108.18 70.4593 108.18Z" fill="#E5E5E5"/>
<path opacity="0.2" d="M58.5047 81.2109C56.9945 84.7392 56.7897 88.6888 57.9267 92.354C59.0637 96.0192 61.4685 99.1611 64.7114 101.218C67.9543 103.276 71.824 104.114 75.6289 103.584C79.4338 103.054 82.926 101.19 85.4816 98.325C84.5591 100.481 83.1784 102.41 81.4351 103.98C79.6919 105.55 77.6278 106.722 75.3859 107.416C73.144 108.11 70.7778 108.308 68.4514 107.998C66.1249 107.688 63.8938 106.877 61.9125 105.62C59.9313 104.363 58.2474 102.691 56.9774 100.719C55.7074 98.7478 54.8817 96.5242 54.5575 94.2024C54.2333 91.8806 54.4185 89.5162 55.1 87.2729C55.7816 85.0297 56.9433 82.9612 58.5047 81.2109Z" fill="black"/>
<path d="M70.5014 92.0117H70.5458L71.3465 137.857H69.6562L70.5014 92.0117Z" fill="#CBCBCB"/>
<path d="M98.6644 85.3559C109.434 85.3559 118.165 76.6359 118.165 65.8791C118.165 55.1224 109.434 46.4023 98.6644 46.4023C87.8947 46.4023 79.1641 55.1224 79.1641 65.8791C79.1641 76.6359 87.8947 85.3559 98.6644 85.3559Z" fill="#E5E5E5"/>
<path opacity="0.2" d="M113.064 52.8711C114.883 57.1208 115.129 61.878 113.76 66.2927C112.39 70.7074 109.494 74.4918 105.588 76.9698C101.682 79.4478 97.0207 80.4578 92.4377 79.8194C87.8548 79.1809 83.6484 76.9357 80.5703 73.4848C81.6815 76.0811 83.3445 78.4052 85.4442 80.2959C87.5439 82.1866 90.03 83.5988 92.7304 84.4346C95.4308 85.2703 98.2808 85.5097 101.083 85.1362C103.885 84.7626 106.573 83.785 108.959 82.2711C111.345 80.7572 113.374 78.7432 114.903 76.3686C116.433 73.994 117.427 71.3157 117.818 68.5191C118.208 65.7225 117.985 62.8746 117.164 60.1727C116.344 57.4707 114.944 54.9793 113.064 52.8711Z" fill="black"/>
<path d="M98.6117 65.8789H98.5581L97.5938 121.099H99.6296L98.6117 65.8789Z" fill="#CBCBCB"/>
<path d="M62.4642 47.6369L65.1119 45.5218C63.055 45.2952 62.2099 46.4156 61.864 47.3024C60.2571 46.636 58.5078 47.5093 58.5078 47.5093L63.8053 49.4302C63.5381 48.7173 63.0729 48.0952 62.4642 47.6369Z" fill="#CBCBCB"/>
<path d="M55.7924 29.383L58.44 27.2679C56.3832 27.0413 55.538 28.1617 55.1922 29.0485C53.5852 28.382 51.8359 29.2554 51.8359 29.2554L57.1334 31.1763C56.8662 30.4633 56.401 29.8413 55.7924 29.383Z" fill="#CBCBCB"/>
<path d="M93.3002 41.1838L95.9478 39.0687C93.891 38.842 93.0458 39.9624 92.7 40.8493C91.093 40.1828 89.3438 41.0562 89.3438 41.0562L94.6413 42.9771C94.374 42.2641 93.9088 41.642 93.3002 41.1838Z" fill="#CBCBCB"/>
<path d="M90.6836 121.015C90.6836 121.015 90.7849 118.895 92.8617 119.141L90.6836 121.015Z" fill="#CBCBCB"/>
<path d="M104.789 121.015C104.789 121.015 104.89 118.895 106.967 119.141L104.789 121.015Z" fill="#CBCBCB"/>
<path d="M100.684 121.015C100.684 121.015 100.785 118.895 102.862 119.141L100.684 121.015Z" fill="#CBCBCB"/>
<path d="M86.9047 121.015C86.9047 121.015 86.8034 118.895 84.7266 119.141L86.9047 121.015Z" fill="#CBCBCB"/>
<path d="M95.7055 121.163C95.7055 121.163 95.6042 119.043 93.5273 119.289L95.7055 121.163Z" fill="#CBCBCB"/>
<path d="M63.3984 137.671C63.3984 137.671 63.4998 135.551 65.5766 135.797L63.3984 137.671Z" fill="#CBCBCB"/>
<path d="M77.5039 137.671C77.5039 137.671 77.6052 135.551 79.6821 135.797L77.5039 137.671Z" fill="#CBCBCB"/>
<path d="M73.3984 137.671C73.3984 137.671 73.4998 135.551 75.5766 135.797L73.3984 137.671Z" fill="#CBCBCB"/>
<path d="M59.6157 137.671C59.6157 137.671 59.5143 135.551 57.4375 135.797L59.6157 137.671Z" fill="#CBCBCB"/>
<path d="M68.4203 137.816C68.4203 137.816 68.319 135.695 66.2422 135.942L68.4203 137.816Z" fill="#CBCBCB"/>
<path d="M170.445 38.2812H143.297V40.6975H170.445V38.2812Z" fill="#3F3D56"/>
<path d="M170.445 47.1836H143.297V49.5998H170.445V47.1836Z" fill="#3F3D56"/>
<path d="M170.445 55.1562H143.297V57.5725H170.445V55.1562Z" fill="#3F3D56"/>
<path d="M133.086 39.4884C133.086 38.8649 133.271 38.2554 133.618 37.737C133.965 37.2186 134.458 36.8145 135.034 36.5759C135.611 36.3373 136.246 36.2749 136.858 36.3965C137.47 36.5182 138.033 36.8184 138.474 37.2593C138.915 37.7002 139.216 38.2619 139.338 38.8734C139.46 39.4849 139.397 40.1188 139.158 40.6948C138.919 41.2708 138.515 41.7632 137.996 42.1096C137.477 42.456 136.866 42.6409 136.242 42.6409C135.405 42.6399 134.603 42.3075 134.011 41.7165C133.42 41.1255 133.087 40.3242 133.086 39.4884Z" fill="#FFC801"/>
<path d="M133.086 48.3907C133.086 47.7673 133.271 47.1578 133.618 46.6393C133.965 46.1209 134.458 45.7169 135.034 45.4783C135.611 45.2397 136.246 45.1772 136.858 45.2989C137.47 45.4205 138.033 45.7207 138.474 46.1616C138.915 46.6025 139.216 47.1642 139.338 47.7757C139.46 48.3872 139.397 49.0211 139.158 49.5971C138.919 50.1732 138.515 50.6655 137.996 51.0119C137.477 51.3583 136.866 51.5432 136.242 51.5432C135.405 51.5423 134.603 51.2098 134.011 50.6188C133.42 50.0278 133.087 49.2265 133.086 48.3907Z" fill="#FFC801"/>
<path d="M133.086 56.3634C133.086 55.7399 133.271 55.1304 133.618 54.612C133.965 54.0936 134.458 53.6895 135.034 53.4509C135.611 53.2123 136.246 53.1499 136.858 53.2715C137.47 53.3932 138.033 53.6934 138.474 54.1343C138.915 54.5751 139.216 55.1369 139.338 55.7484C139.46 56.3599 139.397 56.9937 139.158 57.5698C138.919 58.1458 138.515 58.6382 137.996 58.9846C137.477 59.331 136.866 59.5159 136.242 59.5159C135.405 59.5149 134.603 59.1825 134.011 58.5915C133.42 58.0005 133.087 57.1992 133.086 56.3634Z" fill="#FFC801"/>
<path d="M106.481 60.7096L106.082 60.4003L116.301 47.2578H129.667V47.7625H116.549L106.481 60.7096Z" fill="#3F3D56"/>
<path d="M27.1483 67.0469H0V69.4631H27.1483V67.0469Z" fill="#3F3D56"/>
<path d="M27.1483 75.9492H0V78.3655H27.1483V75.9492Z" fill="#3F3D56"/>
<path d="M27.1483 83.9219H0V86.3381H27.1483V83.9219Z" fill="#3F3D56"/>
<path d="M34.2032 71.4104C33.5789 71.4104 32.9687 71.2255 32.4496 70.8791C31.9306 70.5327 31.526 70.0404 31.2871 69.4643C31.0482 68.8883 30.9857 68.2544 31.1075 67.6429C31.2293 67.0314 31.5299 66.4697 31.9713 66.0288C32.4127 65.5879 32.9751 65.2877 33.5874 65.166C34.1996 65.0444 34.8343 65.1068 35.411 65.3454C35.9877 65.584 36.4807 65.9881 36.8275 66.5065C37.1743 67.0249 37.3594 67.6344 37.3594 68.2579C37.3594 68.6719 37.2778 69.0818 37.1192 69.4643C36.9605 69.8468 36.7281 70.1943 36.435 70.4871C36.1419 70.7798 35.7939 71.012 35.411 71.1704C35.0281 71.3288 34.6176 71.4104 34.2032 71.4104Z" fill="#FFC801"/>
<path d="M34.2031 80.3088C33.5789 80.3088 32.9687 80.1239 32.4496 79.7775C31.9306 79.4311 31.526 78.9388 31.2871 78.3628C31.0482 77.7867 30.9857 77.1529 31.1075 76.5413C31.2293 75.9298 31.5299 75.3681 31.9713 74.9272C32.4127 74.4864 32.9751 74.1861 33.5874 74.0645C34.1996 73.9428 34.8343 74.0053 35.411 74.2439C35.9877 74.4825 36.4807 74.8865 36.8275 75.405C37.1743 75.9234 37.3594 76.5329 37.3594 77.1564C37.3594 77.5704 37.2778 77.9803 37.1192 78.3628C36.9605 78.7452 36.728 79.0928 36.435 79.3855C36.1419 79.6782 35.7939 79.9104 35.411 80.0689C35.028 80.2273 34.6176 80.3088 34.2031 80.3088Z" fill="#FFC801"/>
<path d="M34.2031 88.2854C33.5789 88.2854 32.9687 88.1005 32.4496 87.7541C31.9306 87.4077 31.526 86.9154 31.2871 86.3393C31.0482 85.7633 30.9857 85.1294 31.1075 84.5179C31.2293 83.9064 31.5299 83.3447 31.9713 82.9038C32.4127 82.4629 32.9751 82.1627 33.5874 82.041C34.1996 81.9194 34.8343 81.9818 35.411 82.2204C35.9877 82.459 36.4807 82.8631 36.8275 83.3815C37.1743 83.8999 37.3594 84.5094 37.3594 85.1329C37.3594 85.5469 37.2778 85.9569 37.1192 86.3393C36.9605 86.7218 36.728 87.0693 36.435 87.3621C36.1419 87.6548 35.7939 87.887 35.411 88.0454C35.028 88.2038 34.6176 88.2854 34.2031 88.2854Z" fill="#FFC801"/>
<path d="M63.963 89.4792L53.895 76.532H40.7773V76.0273H54.1423L54.2181 76.125L64.3619 89.1698L63.963 89.4792Z" fill="#3F3D56"/>
<path d="M121.43 1.94531H94.2812V4.36155H121.43V1.94531Z" fill="#3F3D56"/>
<path d="M121.43 10.8438H94.2812V13.26H121.43V10.8438Z" fill="#3F3D56"/>
<path d="M121.43 18.8203H94.2812V21.2366H121.43V18.8203Z" fill="#3F3D56"/>
<path d="M84.0703 3.15246C84.0703 2.52896 84.2554 1.91947 84.6023 1.40105C84.9491 0.882628 85.442 0.478572 86.0187 0.23997C86.5955 0.001368 87.2301 -0.0610641 87.8423 0.0605745C88.4546 0.182213 89.017 0.482457 89.4584 0.923336C89.8998 1.36422 90.2004 1.92593 90.3222 2.53745C90.444 3.14896 90.3815 3.78282 90.1426 4.35885C89.9037 4.93489 89.4992 5.42724 88.9801 5.77363C88.4611 6.12003 87.8508 6.30491 87.2266 6.30491C86.3898 6.30398 85.5875 5.97155 84.9958 5.38055C84.4041 4.78955 84.0712 3.98826 84.0703 3.15246Z" fill="#FFC801"/>
<path d="M84.0703 12.0548C84.0703 11.4313 84.2554 10.8218 84.6022 10.3034C84.9491 9.78497 85.442 9.38092 86.0187 9.14231C86.5955 8.90371 87.2301 8.84128 87.8423 8.96292C88.4546 9.08456 89.017 9.3848 89.4584 9.82568C89.8998 10.2666 90.2004 10.8283 90.3222 11.4398C90.444 12.0513 90.3815 12.6852 90.1426 13.2612C89.9037 13.8372 89.4992 14.3296 88.9801 14.676C88.4611 15.0224 87.8508 15.2073 87.2266 15.2073C86.3898 15.2063 85.5875 14.8739 84.9958 14.2829C84.4041 13.6919 84.0712 12.8906 84.0703 12.0548Z" fill="#FFC801"/>
<path d="M84.0703 20.0275C84.0703 19.404 84.2554 18.7945 84.6023 18.2761C84.9491 17.7576 85.442 17.3536 86.0187 17.115C86.5955 16.8764 87.2301 16.8139 87.8423 16.9356C88.4546 17.0572 89.017 17.3575 89.4584 17.7983C89.8998 18.2392 90.2004 18.8009 90.3222 19.4124C90.444 20.024 90.3815 20.6578 90.1426 21.2338C89.9037 21.8099 89.4992 22.3022 88.9801 22.6486C88.4611 22.995 87.8508 23.1799 87.2266 23.1799C86.3898 23.179 85.5875 22.8466 84.9958 22.2556C84.4041 21.6646 84.0712 20.8633 84.0703 20.0275Z" fill="#FFC801"/>
<path d="M57.4653 24.3737L57.0664 24.0643L67.2857 10.9219H80.651V11.4266H67.533L57.4653 24.3737Z" fill="#3F3D56"/>
<path d="M191.364 152.242H189.659L188.848 145.672H191.365L191.364 152.242Z" fill="#FFB7B7"/>
<path d="M191.799 153.895L186.301 153.895V153.825C186.301 153.258 186.526 152.714 186.928 152.314C187.329 151.913 187.873 151.688 188.441 151.688L191.8 151.688L191.799 153.895Z" fill="#2F2E41"/>
<path d="M184.036 152.242H182.331L181.52 145.672H184.036L184.036 152.242Z" fill="#FFB7B7"/>
<path d="M184.471 153.895L178.973 153.895V153.825C178.973 153.258 179.198 152.714 179.6 152.314C180.001 151.913 180.545 151.688 181.113 151.688L184.471 151.688L184.471 153.895Z" fill="#2F2E41"/>
<path d="M180.154 109.14L177.844 112.81L181.722 149.843L185.776 150.088L186.628 118.103L188.05 135.2L187.488 150.088L191.661 150.29L194.141 128.69L196.008 111.606L192.345 108.199L180.154 109.14Z" fill="#2F2E41"/>
<path d="M190.954 81.0742L184.638 81.3266L178.785 110.165C178.785 110.165 188.298 114.88 192.153 110.594L194.469 108.899L190.954 81.0742Z" fill="#FFC801"/>
<path d="M190.956 81.0742L196.514 84.3097L194.461 97.8549L196.261 111.666L190.413 110.714C190.413 110.714 189.216 97.8549 189.993 93.8175C190.77 89.78 190.956 81.0742 190.956 81.0742Z" fill="#3F3D56"/>
<path d="M184.639 81.3242L177.988 84.7337L178.495 99.7348L175.062 111.1C175.062 111.1 181.907 113.288 183.084 109.86C184.26 106.432 184.639 81.3242 184.639 81.3242Z" fill="#3F3D56"/>
<path d="M193.623 115.083C193.844 114.975 194.04 114.819 194.195 114.628C194.35 114.436 194.462 114.213 194.521 113.974C194.58 113.735 194.587 113.485 194.539 113.243C194.492 113.002 194.392 112.773 194.246 112.574L196.254 109.284L194.55 107.578L191.78 112.264C191.462 112.53 191.252 112.904 191.19 113.314C191.129 113.725 191.221 114.143 191.448 114.491C191.675 114.838 192.022 115.09 192.423 115.199C192.823 115.309 193.25 115.267 193.623 115.083Z" fill="#FFB7B7"/>
<path d="M193.628 86.1521L196.277 84.0547C196.277 84.0547 198.783 86.103 198.721 88.0664C198.66 90.0297 199.41 100.489 199.41 100.489L195.275 112.92L192.195 110.459L195.803 100.754L192.96 92.473L193.628 86.1521Z" fill="#3F3D56"/>
<path d="M176.498 115.67C176.294 115.531 176.122 115.35 175.996 115.139C175.869 114.927 175.79 114.691 175.765 114.445C175.74 114.2 175.769 113.952 175.85 113.72C175.931 113.487 176.062 113.275 176.234 113.098L174.711 109.559L176.639 108.109L178.72 113.138C178.998 113.446 179.153 113.846 179.156 114.261C179.158 114.676 179.009 115.077 178.735 115.389C178.461 115.701 178.082 115.902 177.67 115.954C177.258 116.006 176.841 115.904 176.498 115.67Z" fill="#FFB7B7"/>
<path d="M180.566 87.0273L178.238 84.5781C178.238 84.5781 175.469 86.2536 175.253 88.2061C175.038 90.1586 172.82 100.408 172.82 100.408L175.162 113.297L178.557 111.294L176.354 101.178L180.336 93.3791L180.566 87.0273Z" fill="#3F3D56"/>
<path d="M187.998 79.1881C190.38 79.1881 192.312 77.2589 192.312 74.8792C192.312 72.4995 190.38 70.5703 187.998 70.5703C185.615 70.5703 183.684 72.4995 183.684 74.8792C183.684 77.2589 185.615 79.1881 187.998 79.1881Z" fill="#FFB7B7"/>
<path d="M186.955 71.0548C186.519 70.978 186.088 71.1759 185.684 71.3566C185.281 71.5372 184.829 71.7084 184.406 71.579C184.211 71.5053 184.037 71.3862 183.897 71.2315C183.758 71.0768 183.657 70.8911 183.604 70.6898C183.501 70.2865 183.464 69.8694 183.495 69.4544L183.954 69.7195L183.64 69.1927L188.117 68.6985C189.472 68.549 190.991 68.4448 192.044 69.3081C192.581 69.7951 192.972 70.4214 193.173 71.1173C194.067 73.8499 195.082 77.8316 190.495 78.6438C189.856 78.4673 190.898 76.1166 190.888 75.4541C190.877 74.7917 190.512 74.047 189.857 73.9453L189.377 74.612C189.684 74.1853 188.593 72.7996 188.322 72.5293C188.078 72.3226 187.858 72.0895 187.666 71.8343C187.449 71.5027 187.447 71.1416 186.955 71.0548Z" fill="#2F2E41"/>
<path d="M206.746 154.001H161.522C161.455 154.001 161.391 153.974 161.344 153.927C161.296 153.88 161.27 153.815 161.27 153.748C161.27 153.682 161.296 153.617 161.344 153.57C161.391 153.523 161.455 153.496 161.522 153.496H206.746C206.813 153.496 206.877 153.523 206.925 153.57C206.972 153.617 206.999 153.682 206.999 153.748C206.999 153.815 206.972 153.88 206.925 153.927C206.877 153.974 206.813 154.001 206.746 154.001Z" fill="#CBCBCB"/>
</g>
<defs>
<clipPath id="clip0_333_293">
<rect width="207" height="154" fill="white"/>
</clipPath>
</defs>
</svg>
