<svg width="262" height="194" viewBox="0 0 262 194" fill="none" xmlns="http://www.w3.org/2000/svg">
<path d="M68.9705 55.3195C68.8873 54.6639 68.7191 54.0219 68.47 53.4095C68.4382 53.2937 68.3826 53.1857 68.3067 53.0925C68.2308 52.9993 68.1362 52.9229 68.0291 52.8681C67.8858 52.831 67.7356 52.8293 67.5916 52.8633L65.3454 53.2059C65.1574 53.2144 64.9774 53.2842 64.8329 53.4044C64.5404 53.7111 64.8284 54.2049 64.8195 54.6281C64.8094 55.1039 64.3853 55.4901 63.9254 55.6178C63.456 55.7124 62.9718 55.7064 62.5048 55.6003L59.364 55.1137C60.289 54.8193 61.1124 54.2716 61.7401 53.5331C62.1534 53.045 62.3733 52.1338 61.776 51.9026C61.5985 51.8541 61.4134 51.8393 61.2304 51.859C59.8074 51.87 58.6876 50.6856 57.3554 50.1868C56.5028 49.8882 55.5773 49.8659 54.7112 50.1233C53.8452 50.3807 53.0829 50.9044 52.5335 51.6197L54.2067 51.7001C54.3641 51.6915 54.5202 51.733 54.6523 51.8186C55.019 52.1189 54.5632 52.6958 54.6148 53.166C54.6819 53.777 55.4957 53.9075 56.1092 53.9693C56.7226 54.031 57.5009 54.5279 57.2058 55.0676C54.1225 56.1262 50.9849 52.9981 47.7468 53.3831C46.9273 53.4806 46.1534 53.8015 45.3532 54.0033C40.4654 55.2361 35.4122 51.9469 30.419 52.6435C29.3089 52.8321 28.2179 53.119 27.1589 53.5006C26.4793 53.723 25.7705 53.9634 25.2767 54.4793C24.7829 54.9951 24.595 55.8774 25.0628 56.4168C23.7734 56.5226 22.4755 56.3996 21.2292 56.0535C21.5663 56.2403 21.8466 56.514 22.0409 56.846C22.2352 57.178 22.3362 57.556 22.3334 57.9404C20.3203 58.2676 18.3605 58.8633 16.5066 59.7114C16.8526 60.285 17.2568 60.8216 17.7126 61.3129L15.1641 62.9451C16.0251 63.1614 16.4703 64.3317 15.9695 65.0627C16.8623 64.6668 17.4157 63.6426 18.3703 63.4349C18.9958 63.2989 19.6322 63.5539 20.2255 63.7935C20.8189 64.0331 21.471 64.2654 22.0852 64.0856C22.6995 63.9058 23.1525 63.1119 22.7622 62.606C25.3876 61.8424 28.1009 61.4199 30.8348 61.3488C31.0457 61.3224 31.2596 61.3629 31.4461 61.4644C31.802 61.7106 31.7084 62.2422 31.6892 62.6736C31.6701 63.1049 32.0073 63.6718 32.3941 63.4774C31.9391 63.8707 32.328 64.6112 32.7646 65.0248C33.2011 65.4384 33.7273 66.0091 33.46 66.5471C33.3903 66.6875 33.2719 66.7999 33.2048 66.9416C33.0067 67.3598 33.3213 67.8474 33.6923 68.1251C34.0633 68.4029 34.5177 68.597 34.7754 68.9816C35.0331 69.3662 34.9161 70.0394 34.4553 70.0931L33.1454 68.4352C32.6979 68.8978 32.3911 69.4774 32.2606 70.1067C33.6496 71.2386 33.8585 73.5425 32.6956 74.9044C32.1014 75.6003 31.2563 76.0232 30.5188 76.566C29.7812 77.1088 29.0988 77.8818 29.1006 78.7957C29.1038 80.3746 28.9744 81.8415 29.5679 83.3054C30.6624 86.0046 31.926 88.6326 33.3513 91.1738C33.7255 91.8411 34.2093 92.5725 34.9675 92.6874C34.0092 90.3619 33.1466 88.0003 32.3797 85.6025C32.8792 85.6045 33.4565 85.644 33.7493 86.0475C33.9918 86.3815 33.9397 86.8357 34.0151 87.2412C34.1109 87.634 34.2707 88.0085 34.4882 88.3498L39.064 96.4751C39.4433 97.1487 39.8784 97.8717 40.6034 98.1445C41.0669 98.3189 41.6032 98.286 42.0298 98.5371C42.3642 98.7339 42.5895 99.0833 42.9304 99.2687C43.8943 99.7928 45.2347 98.7875 46.1355 99.4134C46.3931 99.5923 46.557 99.8766 46.7943 100.081C47.6263 100.8 48.9911 100.319 49.9515 100.855C50.5705 101.2 50.8913 101.891 51.2214 102.517C52.0484 104.084 53.3865 105.62 55.1589 105.745C55.7156 105.784 56.2843 105.679 56.8285 105.802C57.3727 105.926 57.9084 106.399 57.821 106.949C57.6712 107.891 58.1382 108.922 58.0128 109.868C57.7843 111.59 55.3335 112.347 55.123 114.072C55.0769 114.449 55.1491 114.839 55.0589 115.209C54.9483 115.662 54.607 116.031 54.4857 116.481C54.2559 117.334 54.8692 118.184 55.5429 118.758C56.2167 119.332 57.0203 119.827 57.3886 120.63C57.778 121.48 57.5867 122.47 57.7133 123.395C57.9897 125.416 59.74 126.913 61.5413 127.879C62.0901 128.173 62.6794 128.458 63.0346 128.968C63.4982 129.634 63.452 130.512 63.6068 131.308C63.986 133.257 65.6321 134.864 65.6789 136.849C65.7121 138.259 64.9253 139.539 64.4553 140.871C64.0147 142.146 63.8553 143.501 63.9879 144.844C64.1205 146.186 64.542 147.485 65.2237 148.65C65.5753 149.242 65.9958 149.8 66.2445 150.441C66.6883 151.586 66.5443 152.887 66.9535 154.045C67.4945 155.575 68.9811 156.839 68.8388 158.456C69.5137 159.853 71.004 160.54 72.5026 160.955L75.1884 161.701C75.7027 161.843 76.2401 161.987 76.7637 161.884C77.2874 161.78 77.7871 161.347 77.7736 160.815C76.4565 160.519 75.0972 160.204 74.0115 159.404C72.9258 158.604 72.182 157.179 72.594 155.898C72.785 155.303 73.1914 154.617 72.805 154.126C72.5838 153.845 72.1793 153.771 71.9298 153.515C71.5406 153.114 71.6743 152.442 71.9541 151.96C72.2339 151.477 72.6383 151.046 72.7511 150.5C72.8081 150.195 72.7701 149.879 72.6421 149.596C72.5141 149.313 72.3023 149.075 72.0351 148.916C72.5331 148.728 72.986 148.439 73.3644 148.065C73.714 147.667 73.8755 147.054 73.6005 146.601C74.4172 146.705 75.3813 146.755 75.9174 146.133C76.3455 145.635 76.3161 144.892 76.1469 144.259C75.9778 143.625 75.6919 143.01 75.683 142.355C77.5669 142.444 79.4549 142.38 81.3284 142.164C81.0575 141.255 80.4419 140.486 79.612 140.021C80.4606 139.878 81.2336 138.866 81.5017 138.05C81.7697 137.235 81.7014 136.347 81.5357 135.505C81.472 135.289 81.4633 135.06 81.5103 134.839C81.6058 134.535 81.905 134.35 82.1817 134.191L86.3935 131.78C86.6448 131.655 86.8726 131.487 87.067 131.285C87.5082 130.768 87.4429 129.988 87.2169 129.348C86.991 128.708 86.6291 128.106 86.542 127.433C86.2817 125.42 88.4432 123.976 89.1726 122.081C89.4589 121.338 89.5172 120.529 89.5726 119.735C89.6321 118.882 89.6365 117.89 88.9792 117.341C88.3492 116.813 87.3647 116.931 86.7055 116.441C86.101 115.991 85.8925 115.118 85.2321 114.755C84.6325 114.425 83.8806 114.635 83.2137 114.48C82.0393 114.207 81.3004 112.858 80.1011 112.733C79.4244 112.662 78.6586 112.992 78.104 112.599C77.6153 112.253 77.5957 111.557 77.5027 110.967C77.3397 110.049 76.8985 109.204 76.2386 108.544C75.5787 107.884 74.7318 107.441 73.8119 107.276C73.1142 107.164 72.3548 107.207 71.7613 106.825C71.1603 106.438 70.8847 105.713 70.4126 105.177C69.6518 104.313 68.4535 104.006 67.3309 103.743L62.7649 102.673C61.9543 102.483 60.9095 102.383 60.4745 103.09C60.3458 103.36 60.2546 103.646 60.2036 103.94C60.0406 104.472 59.7126 104.939 59.2667 105.273C58.8208 105.608 58.28 105.793 57.722 105.802C57.3394 105.151 56.7194 104.673 55.9915 104.467C55.5285 104.338 55.0329 104.324 54.5913 104.135C54.3508 104.018 54.1368 103.853 53.9624 103.651C53.788 103.448 53.6568 103.213 53.5769 102.958C53.497 102.704 53.4701 102.435 53.4978 102.17C53.5255 101.905 53.6072 101.648 53.7379 101.415C54.0012 100.948 54.1028 100.407 54.0272 99.8766C53.9516 99.3461 53.7029 98.8551 53.3195 98.4794C52.543 97.7845 51.4198 97.6166 50.3786 97.6861C50.1059 97.093 50.5619 96.4238 51.0532 95.9927C51.5446 95.5617 52.1412 95.1379 52.2482 94.4942C52.4165 93.4817 51.1205 92.7127 50.1365 93.0146C49.1525 93.3165 48.5244 94.2692 48.1092 95.2084C47.871 95.7473 47.6685 96.3147 47.2928 96.7691C46.917 97.2235 46.3119 97.5488 45.7396 97.403C44.9294 97.1966 44.6164 96.237 44.4371 95.4227C44.1965 94.3302 43.9545 93.2225 44.0049 92.1051C44.0553 90.9878 44.4332 89.8404 45.2598 89.084C46.6067 87.8514 48.6729 87.9722 50.4907 88.1688C50.0612 87.6865 50.1673 86.8736 50.6268 86.4196C50.8694 86.2047 51.1609 86.0521 51.476 85.9749C51.7911 85.8978 52.1203 85.8984 52.4352 85.9767C52.9829 86.0904 53.4763 86.3845 53.836 86.8117C54.3526 87.4395 54.4995 88.2871 54.8899 88.9997C55.2804 89.7123 56.1583 90.3201 56.8769 89.9378C57.4976 89.6076 57.5961 88.7497 57.4416 88.0655C57.2872 87.3812 56.9591 86.7159 57.015 86.0168C57.1218 84.6828 58.509 83.8799 59.7331 83.3305C60.9572 82.7811 62.3588 82.0422 62.5528 80.7181C62.5594 80.4588 62.6085 80.2024 62.698 79.9589C62.8338 79.7438 63.0224 79.5669 63.2461 79.4451C66.8187 77.0915 70.4507 74.7092 74.534 73.4232C74.7464 73.3563 74.7713 73.4306 74.9878 73.3782C75.2908 73.2037 75.0901 72.7207 74.7996 72.5262C74.5091 72.3316 74.1208 72.1825 74.0471 71.8414C73.9929 71.5907 74.1411 71.3446 74.1795 71.091C74.2741 70.4679 73.5264 69.8926 72.9457 70.1417C72.6177 69.7087 73.2667 69.2056 73.7915 69.0615C75.3674 68.6292 76.985 68.3658 78.6169 68.2757C78.8053 68.2459 78.9982 68.2786 79.166 68.3688C79.4401 68.5581 79.4051 68.9922 79.2109 69.2624C79.0166 69.5325 78.7144 69.7022 78.4724 69.9307C78.2079 70.1876 78.0193 70.5119 77.9271 70.8683C77.8348 71.2247 77.8426 71.5995 77.9495 71.9518C78.8015 72.3838 79.7277 72.8285 80.6712 72.6763C81.6148 72.5241 82.4523 71.4673 82.0088 70.6232C81.5958 69.8372 80.3552 69.66 80.1418 68.7985C79.892 67.7899 81.3243 66.8929 81.0017 65.905C80.8604 65.4723 80.4278 65.2177 80.0958 64.9053C79.7038 64.5222 79.4371 64.03 79.3308 63.4931C79.2246 62.9563 79.2836 62.3999 79.5003 61.8972C78.9596 61.992 78.404 61.9562 77.8801 61.7927C77.3561 61.6293 76.8792 61.343 76.4891 60.9578C75.7689 60.2333 75.1943 59.0903 74.1716 59.1227C73.233 59.1524 72.4246 60.2439 71.5471 59.9109C71.3312 59.829 71.1035 59.6623 70.8943 59.76C70.8258 59.8043 70.7682 59.8637 70.7261 59.9335C70.6839 60.0033 70.6582 60.0817 70.6509 60.1628C70.4278 61.2257 70.8115 62.4368 70.2304 63.3552C69.598 64.3547 68.1353 64.4933 67.3686 65.3946C66.9525 65.8838 66.7912 66.5431 66.4087 67.0589C66.0262 67.5747 65.2143 67.9026 64.7552 67.4531C64.9808 66.9908 65.0425 66.4658 64.93 65.964C64.8175 65.4622 64.5377 65.0133 64.1361 64.6906C63.7099 64.4134 63.2505 64.1907 62.7686 64.0276C62.2302 63.8004 61.718 63.5158 61.2409 63.1788C61.0019 63.0351 60.8078 62.828 60.6801 62.5806C60.5791 62.2708 60.5927 61.9353 60.7184 61.6346C60.9512 60.9693 61.3619 60.3801 61.906 59.9304C62.4502 59.4808 63.1073 59.1879 63.8063 59.0833C64.4175 59.0004 65.1289 59.0296 65.5334 58.5654C65.7474 58.3198 65.8597 57.9484 66.1703 57.8486C66.3691 57.8088 66.5754 57.8342 66.7584 57.9208L69.0398 58.7213C69.2944 58.8359 69.5745 58.882 69.8525 58.8553C69.9904 58.8368 70.1161 58.767 70.2044 58.6599C70.2928 58.5529 70.3373 58.4165 70.329 58.2781C70.2561 57.9004 69.6731 57.7192 69.7262 57.3382C69.7559 57.2148 69.8224 57.1032 69.9171 57.0183C70.7404 56.1447 71.7473 55.4635 72.8656 55.0232C73.984 54.583 75.1862 54.3946 76.3861 54.4717C76.674 54.9432 76.2186 55.5014 75.8397 55.9039C75.4608 56.3063 75.1563 57.0254 75.6145 57.3352C75.8023 57.4307 76.0112 57.4776 76.222 57.4715C76.7836 57.5473 77.3295 57.7124 77.8387 57.9604C78.6271 58.3024 79.4003 58.6766 80.1584 59.083C80.0914 58.5847 80.0275 58.0598 80.217 57.5939C80.4064 57.128 80.9449 56.7626 81.4152 56.944C81.8685 57.1189 82.1009 57.7171 82.5838 57.772C83.228 57.8451 83.4821 56.8964 83.213 56.3084C82.944 55.7205 82.4113 55.2281 82.3668 54.5834C82.3368 54.1484 82.5029 53.6089 82.1543 53.3455C82.0303 53.2665 81.8895 53.2172 81.7431 53.2018L73.0401 51.6053C72.5233 51.5105 71.7766 51.5832 71.7537 52.1065C71.7409 52.3986 72.0027 52.6876 71.8868 52.9562C71.763 53.2429 71.3565 53.2166 71.0604 53.318C70.6011 53.4753 70.3705 54.0191 70.4147 54.5013C70.4954 54.9805 70.6816 55.4359 70.9598 55.8348C70.3937 55.5988 69.5365 55.5555 68.9705 55.3195Z" fill="#3F3D56"/>
<path d="M62.0267 47.9548C61.4779 47.7737 60.8866 47.7653 60.3328 47.9306C59.779 48.0959 59.2896 48.427 58.931 48.8789C58.7877 49.067 58.6674 49.3263 58.7873 49.53C58.9593 49.822 59.3976 49.7066 59.7207 49.6022C60.1956 49.433 60.7125 49.4208 61.1949 49.5671C61.4983 49.671 61.7698 49.8545 62.0745 49.9544C62.2228 50.0162 62.3852 50.0367 62.5443 50.0135C62.7034 49.9903 62.8532 49.9244 62.9776 49.8228C63.1867 49.6102 63.1998 49.2797 63.2002 48.9819C63.2147 48.8823 63.2067 48.7806 63.1768 48.6845C63.1469 48.5883 63.0958 48.5 63.0273 48.426C62.9054 48.3556 62.7683 48.3152 62.6275 48.3082C62.3122 48.25 62.0272 48.084 61.8215 47.8387" fill="#3F3D56"/>
<path d="M65.1621 47.0831C65.0393 47.0764 64.9169 47.1014 64.8065 47.1555C64.6962 47.2097 64.6017 47.2912 64.5321 47.3923C64.4625 47.4934 64.4201 47.6106 64.4091 47.7328C64.3981 47.8549 64.4188 47.9778 64.4692 48.0896C64.8464 48.1921 65.2405 48.2178 65.6278 48.1649C65.821 48.135 66.001 48.0488 66.1451 47.9171C66.2892 47.7853 66.391 47.6141 66.4376 47.4248C65.9816 47.5075 65.511 47.4179 65.1176 47.1735" fill="#3F3D56"/>
<path d="M75.6936 45.6307C74.667 45.8482 73.6698 46.1859 72.7227 46.6367C73.1691 46.8078 73.5487 47.1173 73.8054 47.5197C74.062 47.9221 74.1823 48.396 74.1483 48.8716C74.1083 49.0542 74.1129 49.2438 74.1618 49.4242C74.271 49.6879 74.5871 49.7868 74.8651 49.8545C75.3645 50.006 75.886 50.0724 76.4076 50.0508C76.6685 50.0372 76.9219 49.9589 77.1448 49.8231C77.3677 49.6873 77.5532 49.4982 77.6843 49.273C77.7599 49.0593 77.8486 48.8503 77.9498 48.6474C78.6161 47.6358 80.5955 48.8589 81.3108 47.8813C81.5628 47.5369 81.5398 47.0184 81.8683 46.7455C82.0382 46.6266 82.2352 46.5517 82.4413 46.5275C83.8799 46.2426 85.3331 46.0363 86.7943 45.9095C87.4866 45.8495 88.389 45.6017 88.3948 44.9089C85.787 44.3984 83.0831 44.761 80.7034 45.9404C79.846 46.3685 78.712 47.2689 77.8861 46.7014C77.5769 46.4889 77.5922 45.9167 77.1666 45.6778C76.7315 45.4335 76.1555 45.5328 75.6936 45.6307Z" fill="#3F3D56"/>
<path d="M84.2214 47.2176L85.4455 47.4521C85.2202 47.4422 84.9953 47.4802 84.7859 47.5638C84.5765 47.6473 84.3874 47.7744 84.2312 47.9366C84.075 48.0988 83.9552 48.2923 83.88 48.5042C83.8047 48.7162 83.7757 48.9417 83.7948 49.1658C84.9411 49.5475 86.1909 49.176 87.3985 49.2268C88.606 49.2775 90.011 50.1374 89.8049 51.3245C89.7425 51.6835 89.5345 52.0422 89.6427 52.3902C89.7185 52.6341 89.9343 52.8071 90.0561 53.0318C90.3099 53.4998 90.107 54.0919 89.7866 54.5174C89.4661 54.9429 89.0353 55.2824 88.7541 55.7346C88.0544 56.8592 88.4519 58.3131 88.8687 59.5696C88.9892 60.0443 89.2117 60.4873 89.5209 60.8679C90.1383 61.5223 91.1445 61.5792 92.0456 61.5923C92.7015 61.6018 93.4528 61.5695 93.8676 61.063C94.4091 60.4016 94.0305 59.3698 94.387 58.5936C94.7108 57.8887 95.5357 57.5862 96.2831 57.3718C97.6524 56.9788 99.0478 56.6447 100.342 56.0512C101.95 55.3142 103.452 54.1656 105.219 54.0707C105.714 54.0441 106.222 54.1024 106.7 53.9671C107.177 53.8317 107.631 53.4202 107.594 52.9267C107.564 52.505 107.206 52.1954 106.926 51.8775C106.646 51.5597 106.427 51.0709 106.684 50.7346L111.315 49.8723C110.986 48.9806 110.731 47.8061 111.485 47.2256C111.757 47.0162 112.122 46.9325 112.353 46.6793C112.748 46.2478 112.55 45.5044 112.094 45.1374C111.638 44.7704 111.021 44.6852 110.437 44.6369C108.407 44.4687 106.365 44.5798 104.33 44.691C100.353 44.9083 96.3764 45.1256 92.3995 45.3429C91.5989 45.3867 90.6746 45.3198 89.9403 45.5921C89.3187 45.8226 88.8767 46.2457 88.1658 46.3944C86.8533 46.6688 85.409 46.4831 84.2214 47.2176Z" fill="#3F3D56"/>
<path d="M106.152 56.8637C106.027 56.844 105.9 56.8729 105.796 56.9443C105.727 57.0198 105.686 57.1164 105.68 57.2182C105.601 57.6674 105.695 58.1298 105.943 58.5128C106.07 58.7007 106.244 58.8513 106.449 58.9492C106.654 59.047 106.881 59.0884 107.107 59.0692C107.659 58.9991 108.065 58.5303 108.571 58.3016C109.352 57.9494 112.669 57.4003 110.375 56.1646C109.584 55.7388 109.073 56.1147 108.45 56.3951C107.741 56.7567 106.946 56.9187 106.152 56.8637Z" fill="#3F3D56"/>
<path d="M126.245 46.5216C125.977 46.6307 125.753 46.8252 125.608 47.0747C125.541 47.2014 125.525 47.3488 125.564 47.4866C125.603 47.6244 125.694 47.742 125.817 47.815C125.918 47.8511 126.024 47.8679 126.13 47.8644L127.219 47.8968C127.682 47.9106 128.26 48.0089 128.385 48.4534C128.477 48.7835 128.27 49.2077 128.52 49.4436C128.627 49.5262 128.755 49.5763 128.89 49.5877C129.249 49.6796 129.624 49.6916 129.988 49.623C130.78 49.4111 130.364 48.9288 130.614 48.4994C130.996 47.8424 130.929 48.2402 131.602 47.8636C132.099 47.5855 132.742 47.0811 132.327 46.3723C131.605 45.1398 127.309 45.9921 126.245 46.5216Z" fill="#3F3D56"/>
<path d="M147.746 45.9012L147.114 45.9853C145.687 46.1751 144.253 46.3666 142.879 46.7936C143.474 47.028 144.098 47.1806 144.734 47.2472C145.084 47.2643 145.431 47.3136 145.772 47.3944C146.379 47.5745 146.991 48.0395 147.577 47.8013C147.94 47.6536 148.059 47.2763 148.36 47.0764C148.568 46.9383 149.357 46.7149 149.445 46.5755C150.157 45.4489 148.294 45.8283 147.746 45.9012Z" fill="#3F3D56"/>
<path d="M150.527 48.7684C149.682 49.2394 148.898 49.8117 148.193 50.4726C147.895 50.7511 147.592 51.0975 147.619 51.5032C147.655 52.0424 148.231 52.3552 148.73 52.566L150.752 53.4194C150.998 53.0747 150.773 52.5989 150.52 52.2602C150.266 51.9215 149.965 51.5296 150.077 51.1221C150.205 50.6569 150.774 50.4984 151.251 50.4183C152.028 50.2877 154.125 50.2982 153.873 49.0494C153.576 47.578 151.307 48.3337 150.527 48.7684Z" fill="#3F3D56"/>
<path d="M150.118 132.038C149.926 132.593 149.908 133.248 150.241 133.733C150.614 134.277 151.362 134.48 152.009 134.342C152.653 134.171 153.228 133.803 153.651 133.29C154.038 132.86 154.357 132.373 154.595 131.846C154.928 131.025 155.163 130.168 155.295 129.293L155.923 126.007C156.064 125.272 156.058 123.021 154.704 123.754C154.334 123.955 153.478 125.537 153.09 125.986C152.391 126.794 152.299 127.579 151.931 128.559C151.47 129.786 150.544 130.809 150.118 132.038Z" fill="#3F3D56"/>
<path d="M221.638 148.853C221.195 148.68 220.765 148.476 220.352 148.242C219.937 149.379 219.716 150.577 219.699 151.786L222.731 150.076C223.187 149.818 223.704 149.461 223.694 148.939C223.698 148.874 223.685 148.81 223.656 148.752C223.626 148.695 223.582 148.646 223.527 148.612C223.459 148.585 223.386 148.576 223.314 148.587C222.865 148.624 222.455 148.845 222.031 148.998C221.606 149.151 221.111 149.232 220.721 149.005" fill="#3F3D56"/>
<path d="M237.63 149.869C237.297 149.959 236.972 150.076 236.658 150.217C235.962 150.57 235.489 151.24 234.862 151.705C234.263 152.15 233.542 152.394 232.834 152.631C232.626 152.815 232.721 153.185 232.948 153.346C233.191 153.484 233.469 153.546 233.748 153.525C234.484 153.541 235.259 153.548 235.903 153.194C236.266 152.96 236.606 152.691 236.918 152.392C237.671 151.765 238.576 151.352 239.471 150.952C239.797 150.829 240.099 150.65 240.361 150.422C240.924 149.869 240.964 149.016 240.152 148.828C239.496 148.676 238.254 149.668 237.63 149.869Z" fill="#3F3D56"/>
<path d="M244.7 145.265C244.737 144.885 244.686 144.501 244.552 144.143C244.418 143.785 244.204 143.463 243.926 143.199C243.918 143.96 243.895 144.771 243.466 145.4C243.16 145.848 242.68 146.151 242.345 146.578C242.01 147.005 241.861 147.682 242.254 148.056C242.506 148.247 242.812 148.352 243.127 148.356C243.91 148.448 244.815 148.499 245.364 147.936C245.664 147.628 245.809 147.173 246.175 146.946C246.311 146.889 246.432 146.803 246.53 146.693C246.681 146.454 246.441 146.139 246.172 146.053C245.902 145.966 245.605 146.007 245.333 145.925C245.062 145.843 244.814 145.539 244.953 145.293" fill="#3F3D56"/>
<path d="M232.14 117.371C231.73 117.47 231.305 117.495 230.885 117.444C230.189 117.317 229.647 116.793 229.084 116.364C227.747 115.35 226.122 114.784 224.442 114.748C222.914 114.719 221.372 115.132 219.871 114.844C219.969 115.387 220.436 115.795 220.934 116.037C221.432 116.28 221.981 116.402 222.482 116.639C223.283 117.023 223.919 117.682 224.272 118.496C224.433 118.871 224.534 119.279 224.778 119.606C225.277 120.275 226.223 120.422 227.058 120.367C228.146 120.296 229.282 119.984 230.295 120.388C231.069 120.697 231.623 121.373 232.27 121.899C232.917 122.424 233.827 122.814 234.57 122.435C233.799 122.186 233.127 121.698 232.654 121.042C232.181 120.386 231.93 119.596 231.939 118.788C232.667 118.855 234.765 118.829 234.652 117.595C234.556 116.55 232.766 117.258 232.14 117.371Z" fill="#3F3D56"/>
<path d="M222.612 125.874C222.742 125.167 223.449 124.543 223.229 123.859C223.076 123.386 222.526 123.152 222.028 123.14C221.529 123.129 221.04 123.277 220.541 123.291C220.217 123.273 219.892 123.278 219.568 123.304C218.579 123.466 217.969 124.5 217.037 124.867C216.47 125.091 215.833 125.048 215.244 125.203C213.905 125.553 213.059 126.814 212.123 127.83C210.612 129.465 208.642 130.61 206.471 131.116C205.71 131.292 204.892 131.404 204.287 131.897C203.486 132.549 203.289 133.668 203.111 134.683C202.618 137.488 201.866 140.241 200.863 142.908L204.041 143.312C204.645 143.389 205.271 143.464 205.853 143.286C206.276 143.127 206.677 142.914 207.045 142.653C208.461 141.777 210.044 141.207 211.695 140.98C212.527 140.866 213.399 140.845 214.18 141.153C214.961 141.462 215.631 142.161 215.696 142.996C216.034 142.891 216.394 142.88 216.738 142.963C217.081 143.046 217.396 143.221 217.647 143.469C218.145 143.974 218.471 144.623 218.579 145.322C218.663 145.756 218.746 146.275 219.15 146.457C219.479 146.605 219.856 146.445 220.217 146.417C221.438 146.319 222.452 147.739 223.653 147.495C224.941 147.233 225.257 145.31 226.513 144.925C227.235 144.704 228.247 144.973 228.592 144.303C228.897 143.714 228.289 143.033 228.352 142.373C228.429 141.56 229.391 141.215 230.133 140.868C232.69 139.671 233.904 136.241 232.665 133.71C231.93 132.211 230.486 131.031 230.219 129.384C230.014 128.116 230.515 126.639 229.704 125.641C229.292 125.134 228.594 124.854 228.349 124.248C228.194 123.867 228.256 123.435 228.173 123.032C228.09 122.63 227.738 122.209 227.339 122.313C226.181 122.616 225.812 126.181 225.192 127.047C224.25 128.364 222.316 127.496 222.612 125.874Z" fill="#3F3D56"/>
<path d="M201.216 118.719C200.82 118.608 200.388 118.499 200.009 118.657C199.63 118.815 199.409 119.37 199.713 119.645C202.093 119.553 204.488 119.461 206.848 119.783C209.566 120.155 212.257 121.074 214.988 120.804C213.428 120.345 211.842 119.978 210.239 119.705L207.566 119.196C206.849 119.046 206.124 118.935 205.395 118.862C203.87 118.736 202.715 119.138 201.216 118.719Z" fill="#3F3D56"/>
<path d="M203.596 110.453C203.398 110.437 203.154 110.423 203.051 110.592C202.954 110.754 203.066 110.968 203.013 111.149C202.941 111.397 202.616 111.46 202.359 111.427C202.103 111.393 201.825 111.312 201.598 111.435C201.482 111.514 201.396 111.628 201.351 111.759C201.306 111.891 201.305 112.034 201.348 112.166C201.441 112.429 201.591 112.668 201.788 112.865C202.124 113.288 202.508 113.671 202.93 114.007C203.748 114.609 204.856 114.899 205.372 115.773C205.444 115.942 205.556 116.092 205.698 116.21C205.945 116.366 206.268 116.248 206.534 116.126L207.467 115.701C207.635 115.641 207.786 115.539 207.904 115.405C208.117 115.117 207.986 114.707 207.807 114.396C207.628 114.085 207.399 113.764 207.437 113.407C207.506 112.772 208.325 112.529 208.662 111.986C209.001 111.438 208.78 110.732 208.82 110.089C208.865 109.337 209.339 108.36 208.577 107.798C207.929 107.321 207.31 107.762 206.844 108.289C205.863 109.4 205.399 110.604 203.596 110.453Z" fill="#3F3D56"/>
<path d="M209.262 99.22C209.581 99.8283 210.245 100.191 210.593 100.784C210.969 101.426 210.926 102.255 211.335 102.878C211.754 103.516 212.598 103.855 212.833 104.581C213.09 105.374 212.507 106.338 212.972 107.031C213.058 107.144 213.168 107.238 213.293 107.307C213.417 107.376 213.555 107.418 213.698 107.431C213.84 107.444 213.983 107.428 214.119 107.383C214.254 107.338 214.379 107.265 214.485 107.169C214.68 106.957 214.785 106.677 214.777 106.388C214.768 106.1 214.647 105.826 214.439 105.626C214.164 105.376 213.769 105.268 213.54 104.976C213.42 104.808 213.341 104.615 213.307 104.411C213.182 103.824 213.202 103.215 213.365 102.638C213.427 102.491 213.442 102.329 213.41 102.174C213.307 101.874 212.9 101.853 212.615 101.714C211.966 101.399 211.982 100.487 212.095 99.7766C212.02 100.249 210.331 99.4453 210.154 99.1775C209.802 98.6455 209.993 97.6192 209.924 97.0312C209.165 97.3957 208.873 98.4763 209.262 99.22Z" fill="#3F3D56"/>
<path d="M192.243 108.58C191.931 108.232 191.461 107.868 191.043 108.077C190.724 108.238 190.637 108.677 190.762 109.011C190.914 109.335 191.148 109.613 191.442 109.819C192.313 110.536 193.251 111.182 194.011 112.015C195.372 113.505 196.092 115.515 197.571 116.888C197.869 117.206 198.262 117.419 198.692 117.493C199.123 117.533 199.607 117.258 199.657 116.829C199.698 116.476 199.451 116.16 199.209 115.898C198.635 115.275 198.006 114.702 197.463 114.051C197.213 113.801 197.055 113.473 197.017 113.121C197.014 112.771 197.335 112.404 197.675 112.491C197.261 112.385 196.954 111.697 196.346 111.568C195.837 111.46 195.714 111.773 195.11 111.515C193.956 111.021 193.051 109.481 192.243 108.58Z" fill="#3F3D56"/>
<path d="M219.349 74.6978C219.018 74.5998 218.692 74.4839 218.374 74.3508C217.517 74.0945 216.384 74.7221 216.498 75.6063C216.574 76.1937 217.123 76.5898 217.426 77.0994C217.875 77.8551 217.755 78.8135 217.519 79.6598C217.461 79.9219 217.351 80.1696 217.195 80.3883C216.977 80.6192 216.716 80.8061 216.427 80.9387C215.271 81.5853 214.251 82.4492 213.423 83.4826C213.334 83.5781 213.271 83.6958 213.242 83.8235C213.201 84.122 213.502 84.3395 213.672 84.5885C214.05 85.1416 213.777 85.8858 213.815 86.5541C213.809 86.6486 213.827 86.7429 213.869 86.8283C213.91 86.9136 213.972 86.9871 214.049 87.0417C214.277 87.157 214.547 86.961 214.671 86.738C215.081 85.9978 214.772 84.8096 215.541 84.4527C215.686 84.3852 215.863 84.3568 215.96 84.2294C216.114 84.0274 215.965 83.7282 216.043 83.4867C216.16 83.1241 216.658 83.1078 217.039 83.1239C217.697 83.1513 218.355 83.0641 218.982 82.8661C219.228 82.8077 219.452 82.6787 219.625 82.4949C219.855 82.2089 219.835 81.8024 219.789 81.4388C219.559 79.6264 218.983 77.8746 218.092 76.278C218.767 76.364 219.502 76.4385 220.085 76.0876C220.411 75.8911 220.803 75.3036 220.641 74.9037C220.385 74.2712 219.923 74.8036 219.349 74.6978Z" fill="#3F3D56"/>
<path d="M132.762 84.6661C132.843 85.0983 132.923 85.5533 132.78 85.9695C132.638 86.3856 132.191 86.7333 131.769 86.6058C131.442 86.5068 131.253 86.1786 131.02 85.9283C129.727 84.5365 126.809 85.3423 126.01 83.6203C125.684 82.9176 125.905 82.0756 125.683 81.3338C125.543 80.905 125.264 80.5349 124.889 80.2814C124.515 80.028 124.067 79.9056 123.615 79.9336C123.204 79.9929 122.803 80.1122 122.426 80.2877C119.9 81.2961 117.248 81.9573 114.543 82.2531C114.029 82.2843 113.52 82.3765 113.028 82.5278C111.917 82.9292 111.159 83.9556 110.618 85.003C110.078 86.0505 109.68 87.1844 108.956 88.115C108.195 89.093 107.128 89.7778 106.134 90.5186C105.751 90.7647 105.431 91.0981 105.203 91.4912C104.987 91.9325 104.999 92.4458 105.016 92.9364L105.219 98.895C105.245 99.6614 105.278 100.455 105.622 101.141C106.052 101.998 106.901 102.559 107.49 103.315C108.091 104.093 108.404 105.053 108.376 106.034C108.363 106.429 108.324 106.895 108.632 107.143C108.82 107.264 109.039 107.327 109.263 107.324L117.348 107.984C118.771 108.1 120.347 108.29 121.275 109.371C121.714 109.88 122.066 110.614 122.737 110.668C123.025 110.692 123.305 110.574 123.593 110.551C124.32 110.494 124.958 111.044 125.361 111.649C125.971 112.572 126.247 113.674 126.146 114.775C126.08 115.465 125.865 116.137 125.819 116.829C125.642 119.463 127.883 121.752 127.926 124.392C127.952 125.945 127.212 127.396 126.491 128.772C127.655 130.529 126.702 132.869 127.165 134.923C127.605 136.872 129.235 138.398 129.641 140.354C129.827 141.249 129.838 142.351 130.63 142.813C130.977 142.981 131.363 143.058 131.749 143.036C134.077 143.063 136.379 142.541 138.466 141.511C139.445 141.027 140.46 140.304 140.631 139.227C140.769 138.359 140.327 137.388 140.777 136.632C141.307 135.74 142.664 135.811 143.443 135.126C144.708 134.014 143.722 131.894 144.234 130.293C144.694 128.853 146.28 128.089 147.066 126.797C147.375 126.241 147.597 125.642 147.724 125.019C148.084 123.531 148.308 122.013 148.393 120.485C148.414 119.556 148.483 118.629 148.599 117.708C149.446 112.461 154.65 108.947 156.339 103.907C156.5 103.425 156.576 102.784 156.147 102.512C155.892 102.391 155.603 102.361 155.328 102.427L151.601 102.895C151.138 102.953 150.647 103.008 150.222 102.816C149.797 102.624 149.492 102.088 149.718 101.681C150.351 100.538 149.049 99.0932 148.47 97.9217C146.912 94.7673 145.057 91.7678 142.929 88.9636C142.793 88.8193 142.708 88.6347 142.686 88.4378L143.744 88.4729C143.387 87.1956 142.798 85.7978 141.553 85.3306C140.851 85.0673 140.074 85.1583 139.326 85.1991C137.182 85.3158 134.884 84.9932 132.762 84.6661Z" fill="#3F3D56"/>
<path d="M139.328 55.8821C139.889 56.476 140.517 57.1056 141.329 57.2091C142.762 57.3919 143.793 55.9141 144.449 54.6305C144.474 54.9578 144.625 55.2627 144.871 55.4803C145.118 55.698 145.439 55.8113 145.768 55.7962C146.122 55.7368 146.46 55.6052 146.76 55.4095C149.601 53.8622 152.782 53.0424 156.019 53.0237C155.988 52.7792 156.049 52.532 156.19 52.3297C156.331 52.1273 156.542 51.9842 156.782 51.9279C157.441 51.7979 158.033 52.365 158.351 52.9542C158.668 53.5434 158.866 54.2263 159.371 54.6673C159.875 55.1083 160.851 55.0891 161.051 54.4505C161.242 53.8374 160.601 53.3145 160.069 52.953C159.537 52.5916 158.975 51.9226 159.334 51.3891C162.054 50.789 164.79 50.1866 167.573 50.0674C168.047 50.0838 168.519 50.0027 168.96 49.8292C169.384 49.6216 169.721 49.1503 169.607 48.693C169 48.8353 168.364 48.7941 167.78 48.5747C167.197 48.3552 166.692 47.9674 166.33 47.4607C170.191 47.1431 174.298 46.8723 177.72 48.6836C178.131 49.5624 176.038 50.2935 176.598 51.0861C176.777 51.3389 177.135 51.3686 177.445 51.3743C179.823 51.4183 182.214 51.4615 184.566 51.1036C185.425 50.9728 186.293 50.7882 187.155 50.8942C188.592 51.0709 189.821 52.0266 191.235 52.3382C191.81 52.465 192.455 52.4693 192.94 52.1357C193.425 51.8021 193.634 51.0425 193.236 50.6089C194.567 49.3085 196.776 49.6308 198.532 50.2533C200.288 50.8759 201.951 51.8798 203.81 52.0186C205.142 52.1181 206.494 51.7608 207.81 51.9879C208.638 52.1306 209.408 52.4976 210.217 52.7231C211.746 53.1495 213.364 53.0595 214.953 53.08C219.005 53.1344 223.013 53.9283 226.778 55.4224C227.268 55.5813 227.717 55.8456 228.093 56.1966C228.443 56.5706 228.622 57.1518 228.386 57.6064L224.495 57.0397C224.862 57.7591 225.81 57.8817 226.581 58.1299C227.351 58.3781 228.149 59.2259 227.686 59.8878C226.852 59.623 226.096 60.4546 225.674 61.2199C225.253 61.9851 224.739 62.9015 223.864 62.9482C223.081 62.9899 222.134 62.3252 221.624 62.9187C222.329 63.8055 222.933 64.7679 223.424 65.788C223.929 66.8353 224.288 68.155 223.606 69.0973C223.499 69.2655 223.336 69.3912 223.146 69.4529C222.589 69.5933 222.228 68.9145 221.829 68.503C221.325 67.9845 220.565 67.8377 219.883 67.5945C219.202 67.3513 218.485 66.873 218.431 66.1536C218.398 65.7061 218.635 65.29 218.81 64.8764C219.103 64.1791 219.232 63.4238 219.185 62.6692C219.147 62.062 218.976 61.4304 218.538 61.0062C218.101 60.582 217.346 60.4474 216.876 60.836C216.657 61.0172 216.482 61.3072 216.197 61.3181C215.694 61.3373 215.308 60.4635 214.904 60.7618C214.951 61.0796 214.885 61.4039 214.717 61.678C213.51 62.7245 211.656 62.2818 210.1 62.6515C209.36 62.8626 208.651 63.171 207.993 63.5686C207.747 63.6735 207.537 63.8488 207.391 64.0724C207.197 64.4487 207.411 64.9306 207.753 65.1808C208.116 65.4028 208.524 65.5416 208.948 65.5872C210.845 65.9454 212.769 66.4998 214.267 67.7145C215.765 68.9292 216.747 70.9371 216.273 72.8029L212.532 69.2394C212.674 70.7357 212.755 72.236 212.774 73.7405C212.798 74.0342 212.758 74.3297 212.655 74.6063C212.389 75.1935 211.666 75.3911 211.032 75.5207C210.856 75.5541 210.689 75.6242 210.542 75.7265C210.395 75.8289 210.271 75.961 210.179 76.1144C210.087 76.2677 210.028 76.4388 210.007 76.6163C209.986 76.7938 210.003 76.9738 210.056 77.1444C210.281 77.8756 210.843 78.4458 211.356 79.0138C211.87 79.5819 212.376 80.2276 212.443 80.9895C212.51 81.7514 211.934 82.6103 211.168 82.5573C210.588 82.5171 210.157 81.9993 209.91 81.4746C209.662 80.9498 209.515 80.3653 209.143 79.9195C208.018 78.57 205.489 79.1481 204.481 77.7095C204.224 78.0001 204.046 78.3514 203.963 78.7301C203.881 79.1087 203.897 79.502 204.009 79.8728C204.479 79.5801 205.121 79.8521 205.473 80.2774C205.826 80.7028 205.992 81.2482 206.269 81.7259C206.642 82.3706 207.237 82.9421 207.289 83.6848C207.275 83.9656 207.28 84.247 207.303 84.5272C207.396 84.9772 207.777 85.3003 208.042 85.6764C208.657 86.5516 208.627 87.7539 208.23 88.7469C207.833 89.7399 207.121 90.5696 206.415 91.3741C205.181 92.7792 203.923 94.176 202.461 95.3429C202.044 95.6759 201.599 96.0032 201.339 96.4687C201.079 96.9342 201.066 97.5876 201.465 97.9417C201.18 97.956 200.667 98.096 200.382 98.1103C200.281 96.968 200.259 95.8201 200.316 94.6748C199.189 94.1352 197.975 95.5802 198.121 96.8184C198.266 98.0565 199.165 99.0501 199.804 100.121C200.272 100.905 200.619 101.818 200.463 102.716C200.307 103.614 199.503 104.443 198.592 104.364C197.143 104.238 196.537 102.164 195.102 101.927C194.975 101.897 194.842 101.91 194.724 101.964C194.511 102.081 194.474 102.365 194.462 102.607C194.403 103.794 194.352 105.029 194.817 106.123C195.498 107.725 197.255 109.07 196.886 110.77C194.9 109.85 193.868 107.63 193.399 105.498C192.93 103.365 192.852 101.127 192.012 99.1108C191.374 99.9261 190.033 99.2521 189.45 98.3969C188.897 97.586 188.557 96.648 188.021 95.8263C187.484 95.0045 186.663 94.2687 185.68 94.2235C184.651 94.1761 183.757 94.8807 182.972 95.5465C182.326 96.0939 181.663 96.6629 181.285 97.4196C180.735 98.5208 180.879 99.819 180.853 101.049C180.824 102.378 180.541 103.78 179.633 104.754C178.724 105.727 177.046 106.066 176.044 105.189C175.52 104.731 175.267 104.047 175.041 103.39C173.953 100.225 173.047 96.9999 172.327 93.7317C172.159 94.4776 171.502 95.439 170.874 94.9996C170.733 94.8815 170.619 94.735 170.539 94.5696C169.368 92.5914 167.2 91.4048 165.009 90.6933C162.818 89.9818 160.513 89.65 158.347 88.868C157.132 88.4297 155.973 87.8539 154.89 87.1519C154.615 87.556 154.453 88.027 154.424 88.5149C154.395 89.0029 154.499 89.4896 154.724 89.9236C155.205 90.7719 156.292 91.2627 157.223 90.9662C157.704 90.813 158.111 90.48 158.588 90.3156C159.065 90.1512 159.706 90.2319 159.915 90.6904C160.115 91.1292 159.813 91.66 159.962 92.1182C160.191 92.816 161.246 92.8698 161.616 93.5048C161.89 93.9772 161.664 94.6046 161.272 94.9859C160.88 95.3671 160.357 95.5762 159.878 95.8416C158.324 96.7027 157.22 98.1727 155.862 99.3163C154.505 100.46 152.589 101.295 150.971 100.561C151.357 98.6146 149.031 97.1854 148.603 95.2475C148.462 94.6096 148.535 93.932 148.334 93.3104C148.043 92.4104 147.242 91.7916 146.584 91.1096C145.787 90.2734 145.167 89.2866 144.758 88.2073C144.35 87.128 144.163 85.9781 144.208 84.8255C144.243 84.0246 144.391 83.2106 144.208 82.43C144.025 81.6493 143.377 80.8937 142.573 80.9291C140.738 81.0099 138.426 81.1459 137.463 79.5865C137.12 79.03 136.97 78.2149 137.467 77.7885C137.818 77.4877 138.335 77.516 138.795 77.5611L142.93 77.9666C143.897 78.0614 144.942 78.1397 145.772 77.6357C146.602 77.1317 146.961 75.794 146.193 75.2011C145.632 74.7678 144.626 74.7913 144.462 74.1025C144.327 73.5289 144.964 72.878 144.62 72.3985C144.373 72.0548 143.818 72.1501 143.482 72.4078C143.146 72.6655 142.902 73.0424 142.526 73.2375C141.866 73.5798 141.078 73.2541 140.368 73.0327C139.658 72.8113 138.707 72.7925 138.363 73.4497C137.978 74.1847 138.704 75.1478 138.322 75.8843C137.817 76.858 136.106 76.3037 135.396 77.1412C134.582 78.1024 135.95 79.5355 135.676 80.7633C135.325 80.9364 134.936 81.0159 134.545 80.994C134.154 80.9721 133.776 80.8496 133.447 80.6385C133.124 80.4192 132.866 80.1166 132.701 79.7628C132.537 79.409 132.471 79.0174 132.512 78.6295C132.58 78.0772 132.869 77.5134 132.675 76.9914C132.519 76.5694 132.094 76.3182 131.699 76.1006L127.681 73.8873C127.308 74.5771 127.779 75.4323 128.369 75.9504C128.959 76.4686 129.698 76.8588 130.085 77.5407C130.33 78.0131 130.385 78.561 130.239 79.0725C130.092 79.5839 129.755 80.0204 129.297 80.2927C129.24 80.3322 129.174 80.3588 129.106 80.3708C129.037 80.3828 128.966 80.3797 128.899 80.3619C128.835 80.3244 128.779 80.2744 128.735 80.2149C128.69 80.1554 128.658 80.0877 128.641 80.0157C127.932 78.2072 126.867 76.4241 125.166 75.4793C123.464 74.5346 121.019 74.7288 119.903 76.3203C119.638 76.6983 119.46 77.1292 119.229 77.5288C118.002 79.6521 115.372 80.6575 112.915 80.5918C112.675 80.6051 112.436 80.5491 112.227 80.4305C111.829 80.1571 111.847 79.577 111.908 79.0997L112.166 77.0743C112.218 76.6676 112.293 76.2181 112.616 75.9642C113.071 75.6063 113.728 75.8322 114.307 75.8239C114.746 75.8034 115.169 75.6488 115.517 75.381C115.865 75.1132 116.122 74.7453 116.253 74.327C116.37 73.9045 116.369 73.4583 116.251 73.0363C116.132 72.6142 115.9 72.2324 115.58 71.932C115.315 71.6833 114.958 71.3708 115.098 71.0355C115.154 70.9427 115.23 70.8633 115.32 70.8028C115.41 70.7424 115.513 70.7023 115.62 70.6855C116.661 70.384 117.761 70.305 118.785 69.9494C119.809 69.5937 120.802 68.8661 121.044 67.8126C121.119 67.4898 121.153 67.0987 121.444 66.9386C121.59 66.8772 121.746 66.8452 121.905 66.8447C122.46 66.766 122.965 66.4829 123.321 66.0513C123.678 65.6197 123.859 65.0708 123.83 64.5127C124.32 64.1709 125.008 64.4223 125.482 64.7858C125.957 65.1494 126.376 65.6297 126.954 65.7864C128.03 66.0784 129.071 65.1284 130.186 65.124C130.655 65.1221 131.141 65.2875 131.582 65.1289C132.03 64.9682 132.297 64.5242 132.64 64.1962C132.984 63.8682 133.586 63.6681 133.903 64.0215L133.633 62.0277C134.177 62.1646 134.744 62.184 135.296 62.0845C135.848 61.9851 136.372 61.7691 136.833 61.451L133.344 60.2756C133.222 60.2453 133.11 60.1856 133.017 60.1016C132.763 59.8293 133.015 59.4049 133.222 59.0953C133.715 58.3547 133.798 57.1348 132.987 56.7661C132.433 56.5144 131.797 56.8165 131.265 57.112L128.718 58.5278C128.637 59.0104 129.229 59.2839 129.596 59.609C129.818 59.8057 129.975 60.0647 130.047 60.3521C130.118 60.6394 130.101 60.9416 129.997 61.2189C129.893 61.4963 129.708 61.7359 129.465 61.9062C129.222 62.0765 128.933 62.1696 128.636 62.1732C128.804 62.3906 128.92 62.6428 128.977 62.9111C129.034 63.1795 129.029 63.4571 128.963 63.7235L127.25 63.8463C127.057 63.8849 126.858 63.846 126.694 63.7382C126.511 63.5759 126.535 63.2916 126.493 63.0509C126.39 62.47 125.82 62.0629 125.238 61.9585C124.655 61.8541 124.059 61.9879 123.483 62.12C123.238 62.2078 122.969 62.2017 122.729 62.1027C122.591 62.0133 122.486 61.8815 122.43 61.7272C122.177 61.1162 122.414 60.3979 122.82 59.8754C123.226 59.3529 123.782 58.9709 124.281 58.5358C125.474 57.4917 126.352 56.1356 126.813 54.6208C127.756 54.2267 128.733 53.6914 129.676 53.2973C131.131 52.5632 132.762 52.2482 134.386 52.3876L137.581 52.4485C138.527 52.4665 139.499 52.4896 140.373 52.8491C141.248 53.2085 142.016 53.9861 142.077 54.9272C142.095 55.0338 142.086 55.1432 142.05 55.2452C142.014 55.3472 141.953 55.4385 141.872 55.5105C141.748 55.5777 141.609 55.6091 141.468 55.6012C140.586 55.6321 140.21 55.8512 139.328 55.8821Z" fill="#3F3D56"/>
<path d="M113.861 65.8628C113.986 65.745 114.076 65.5952 114.121 65.4299C114.166 65.2645 114.164 65.09 114.116 64.9255C113.813 64.8086 113.482 64.7786 113.162 64.8389C112.842 64.8991 112.546 65.0471 112.306 65.2663C112.116 65.4572 111.953 65.6722 111.821 65.9056C111.401 66.5884 111.029 67.404 111.273 68.1672C111.293 68.2505 111.329 68.3289 111.379 68.398C111.43 68.467 111.494 68.5253 111.568 68.5694C111.677 68.613 111.794 68.6314 111.911 68.6231C112.374 68.6225 112.836 68.5941 113.295 68.5382C113.577 68.5038 113.904 68.4245 114.013 68.163C114.157 67.8193 113.81 67.4303 113.911 67.072C113.978 66.9118 114.078 66.768 114.206 66.6506C114.27 66.5915 114.319 66.5184 114.349 66.4372C114.379 66.356 114.39 66.2689 114.38 66.1828C114.34 66.0147 114.081 65.9193 113.988 66.0654" fill="#3F3D56"/>
<path d="M116.259 62.7619C115.848 62.6679 115.424 62.6414 115.005 62.6834C114.912 62.6807 114.82 62.7015 114.738 62.744C114.658 62.8027 114.6 62.8863 114.573 62.9816C114.485 63.2651 114.506 63.5714 114.634 63.8395C114.762 64.1077 114.986 64.318 115.263 64.4286C115.413 64.4631 115.558 64.5209 115.69 64.5999C116.045 64.8742 115.819 65.4348 115.886 65.8772C115.961 66.3739 116.444 66.7909 116.355 67.2855C116.286 67.6752 115.868 67.9837 115.935 68.3738C116.006 68.7824 116.526 68.9052 116.94 68.9379C117.181 68.9798 117.428 68.9516 117.653 68.8566C117.878 68.7032 118.038 68.4721 118.102 68.208C118.272 67.7044 118.343 67.173 118.312 66.6426C118.31 66.4014 118.249 66.1642 118.135 65.9517C118.01 65.7833 117.872 65.6254 117.721 65.4794C116.927 64.5584 117.763 63.1846 116.259 62.7619Z" fill="#3F3D56"/>
<path opacity="0.8" d="M220.708 134.914C220.708 134.914 159.873 100.103 133.682 106.699C133.682 106.699 78.1773 112.653 71.7446 125.753C71.7446 125.753 54.1007 70.7892 47.668 68.957" stroke="#FEE490" stroke-width="2" stroke-miterlimit="10"/>
<path opacity="0.8" d="M71.7446 125.752C81.9451 98.6368 173.841 68.5898 173.841 68.5898C160.792 71.8877 133.682 106.698 133.682 106.698C133.682 106.698 76.3394 65.1088 47.668 68.9563C47.668 68.9563 173.933 73.0786 220.708 134.913" stroke="#FEE490" stroke-width="2" stroke-miterlimit="10"/>
<path d="M47.6689 71.6101C49.1407 71.6101 50.3339 70.4207 50.3339 68.9535C50.3339 67.4863 49.1407 66.2969 47.6689 66.2969C46.1971 66.2969 45.0039 67.4863 45.0039 68.9535C45.0039 70.4207 46.1971 71.6101 47.6689 71.6101Z" fill="#00BFA6"/>
<path d="M71.747 128.407C73.2188 128.407 74.412 127.218 74.412 125.75C74.412 124.283 73.2188 123.094 71.747 123.094C70.2752 123.094 69.082 124.283 69.082 125.75C69.082 127.218 70.2752 128.407 71.747 128.407Z" fill="#00BFA6"/>
<path d="M173.841 71.2468C175.313 71.2468 176.506 70.0574 176.506 68.5902C176.506 67.123 175.313 65.9336 173.841 65.9336C172.369 65.9336 171.176 67.123 171.176 68.5902C171.176 70.0574 172.369 71.2468 173.841 71.2468Z" fill="#00BFA6"/>
<path d="M220.708 137.567C222.18 137.567 223.373 136.378 223.373 134.91C223.373 133.443 222.18 132.254 220.708 132.254C219.236 132.254 218.043 133.443 218.043 134.91C218.043 136.378 219.236 137.567 220.708 137.567Z" fill="#00BFA6"/>
<path d="M133.685 109.352C135.156 109.352 136.349 108.163 136.349 106.696C136.349 105.228 135.156 104.039 133.685 104.039C132.213 104.039 131.02 105.228 131.02 106.696C131.02 108.163 132.213 109.352 133.685 109.352Z" fill="#00BFA6"/>
</svg>
