<svg width="347" height="53" viewBox="0 0 347 53" fill="none" xmlns="http://www.w3.org/2000/svg">
<path d="M46.375 41.6875C43.4688 42.7188 40.4531 43.2344 37.3281 43.2344C25.1875 43.2344 20.2812 37.4141 22.6094 25.7734C24.8125 14.7578 31.7734 9.25 43.4922 9.25C46.8516 9.25 49.8828 9.71875 52.5859 10.6562L51.8359 14.4062C49.1641 13.3125 46.3047 12.7656 43.2578 12.7656C34.1172 12.7656 28.6797 17.1016 26.9453 25.7734C25.0859 35.0703 28.6562 39.7188 37.6562 39.7188C39.0938 39.7188 40.7266 39.5312 42.5547 39.1562L44.8281 27.7656H49.1641L46.375 41.6875ZM52.8203 43L57.7422 18.3906H61.6094L60.5078 26.2188C63.2891 21 66.5859 18.3906 70.3984 18.3906L69.625 22.2344C65.9062 22.2344 62.6328 24.7578 59.8047 29.8047L57.1562 43H52.8203ZM84.5312 18.3906C90.9688 18.3906 93.7188 20.7266 92.7812 25.3984C91.875 29.9141 88.4922 32.1719 82.6328 32.1719H74.7812C73.8125 37.0469 75.6406 39.4844 80.2656 39.4844C83.8438 39.4844 86.9219 38.4688 89.5 36.4375L88.7969 39.9531C86.2188 41.9844 83.1406 43 79.5625 43C72.0469 43 69.125 38.8047 70.7969 30.4141C72.4062 22.3984 76.9844 18.3906 84.5312 18.3906ZM75.5078 28.5625H83.3594C86.3281 28.5625 88.0312 27.4844 88.4688 25.3281C88.9219 23.0156 87.375 21.8594 83.8281 21.8594C79.4531 21.8594 76.6797 24.0938 75.5078 28.5625ZM109.984 18.3906C116.422 18.3906 119.172 20.7266 118.234 25.3984C117.328 29.9141 113.945 32.1719 108.086 32.1719H100.234C99.2656 37.0469 101.094 39.4844 105.719 39.4844C109.297 39.4844 112.375 38.4688 114.953 36.4375L114.25 39.9531C111.672 41.9844 108.594 43 105.016 43C97.5 43 94.5781 38.8047 96.25 30.4141C97.8594 22.3984 102.438 18.3906 109.984 18.3906ZM100.961 28.5625H108.812C111.781 28.5625 113.484 27.4844 113.922 25.3281C114.375 23.0156 112.828 21.8594 109.281 21.8594C104.906 21.8594 102.133 24.0938 100.961 28.5625ZM120.367 43L125.289 18.3906H129.156L128.102 25.9844C131.211 20.9219 135.055 18.3906 139.633 18.3906C144.211 18.3906 145.969 21.0547 144.906 26.3828L141.578 43H137.242L140.57 26.3125C141.148 23.4375 140.008 22 137.148 22C133.883 22 130.617 24.6016 127.352 29.8047L124.703 43H120.367ZM148.867 41.8281L149.664 37.8438C152.93 39.0938 156.602 39.7188 160.68 39.7188C166.445 39.7188 169.75 37.6094 170.594 33.3906C171.312 29.7969 169.547 28 165.297 28H160.984C153.969 28 151.07 24.9531 152.289 18.8594C153.57 12.4531 158.703 9.25 167.688 9.25C171.594 9.25 175.133 9.71875 178.305 10.6562L177.508 14.6406C174.398 13.3906 170.891 12.7656 166.984 12.7656C160.891 12.7656 157.438 14.7969 156.625 18.8594C155.906 22.4531 157.609 24.25 161.734 24.25H166.047C173.188 24.25 176.148 27.2969 174.93 33.3906C173.617 39.9531 168.633 43.2344 159.977 43.2344C155.898 43.2344 152.195 42.7656 148.867 41.8281ZM196.586 39.9531C194.148 41.9844 191.289 43 188.008 43C181.133 43 178.531 38.8203 180.203 30.4609C181.812 22.4141 186.523 18.3906 194.336 18.3906C196.68 18.3906 198.82 18.625 200.758 19.0938L200.055 22.6094C198.117 22.1406 195.898 21.9062 193.398 21.9062C188.633 21.9062 185.68 24.7578 184.539 30.4609C183.336 36.4766 184.805 39.4844 188.945 39.4844C192.07 39.4844 194.852 38.4688 197.289 36.4375L196.586 39.9531ZM221.102 22.5625C220.32 22.1875 218.836 22 216.648 22C211.414 22 208.203 24.9922 207.016 30.9766C205.906 36.4922 206.969 39.25 210.203 39.25C213.547 39.25 216.469 37.2656 218.969 33.2969L221.102 22.5625ZM221.359 43H217.492L218.195 37.1406C215.57 41.0469 212.414 43 208.727 43C203.133 43 201.133 39.0078 202.727 31.0234C204.414 22.6016 209.359 18.3906 217.562 18.3906C220.891 18.3906 223.727 18.7266 226.07 19.3984L221.359 43ZM228.414 43L233.336 18.3906H237.203L236.148 25.9844C239.258 20.9219 243.102 18.3906 247.68 18.3906C252.258 18.3906 254.016 21.0547 252.953 26.3828L249.625 43H245.289L248.617 26.3125C249.195 23.4375 248.055 22 245.195 22C241.93 22 238.664 24.6016 235.398 29.8047L232.75 43H228.414ZM256.68 43L261.602 18.3906H265.469L264.414 25.9844C267.523 20.9219 271.367 18.3906 275.945 18.3906C280.523 18.3906 282.281 21.0547 281.219 26.3828L277.891 43H273.555L276.883 26.3125C277.461 23.4375 276.32 22 273.461 22C270.195 22 266.93 24.6016 263.664 29.8047L261.016 43H256.68ZM300.016 18.3906C306.453 18.3906 309.203 20.7266 308.266 25.3984C307.359 29.9141 303.977 32.1719 298.117 32.1719H290.266C289.297 37.0469 291.125 39.4844 295.75 39.4844C299.328 39.4844 302.406 38.4688 304.984 36.4375L304.281 39.9531C301.703 41.9844 298.625 43 295.047 43C287.531 43 284.609 38.8047 286.281 30.4141C287.891 22.3984 292.469 18.3906 300.016 18.3906ZM290.992 28.5625H298.844C301.812 28.5625 303.516 27.4844 303.953 25.3281C304.406 23.0156 302.859 21.8594 299.312 21.8594C294.938 21.8594 292.164 24.0938 290.992 28.5625ZM310.398 43L315.32 18.3906H319.188L318.086 26.2188C320.867 21 324.164 18.3906 327.977 18.3906L327.203 22.2344C323.484 22.2344 320.211 24.7578 317.383 29.8047L314.734 43H310.398Z" fill="#00BFA6"/>
</svg>
